{
.appVersion = "3151";
.formatVersion = 3;
DisplayStrings = (
"ɋ"
);
axes = (
{
name = Weight;
tag = wght;
}
);
classes = (
{
automatic = 1;

glyphs = (
{
glyphname = A;
kernRight = V;
lastChange = "2024-02-10 08:31:27 +0000";
layers = (
{
anchors = (
{
name = bottom;
pos = (236,1);
},
{
name = ogonek;
pos = (392,0);
},
{
name = top;
pos = (71,700);
}
);
layerId = m01;
shapes = (
{
closed = 1;
nodes = (
(55,1,o),
(96,0,o),
(103,-5,cs),
(104,-6,o),
(124,1,o),
(132,1,cs),
(201,1,ls),
(224,1,o),
(329,1,o),
(341,0,cs),
(355,0,o),
(365,7,o),
(379,8,c),
(413,0,l),
(423,0,o),
(452,1,o),
(452,17,cs),
(452,21,o),
(451,27,o),
(447,33,c),
(429,69,o),
(410,103,o),
(391,137,cs),
(385,149,o),
(376,162,o),
(370,172,cs),
(363,184,o),
(347,227,o),
(337,239,cs),
(327,252,o),
(326,271,o),
(317,281,cs),
(299,302,o),
(292,329,o),
(275,351,c),
(275,364,o),
(273,372,o),
(264,381,cs),
(255,391,o),
(254,404,o),
(246,414,cs),
(238,422,o),
(233,432,o),
(227,441,c),
(202,489,o),
(178,535,o),
(153,581,cs),
(148,592,o),
(139,601,o),
(138,611,cs),
(138,626,o),
(120,630,o),
(120,644,c),
(109,653,o),
(104,665,o),
(97,677,cs),
(92,684,o),
(86,691,o),
(79,696,c),
(68,707,o),
(48,697,o),
(48,681,cs),
(48,594,ls),
(48,591,o),
(47,586,o),
(49,584,cs),
(55,578,o),
(57,570,o),
(57,564,cs),
(57,558,o),
(56,553,o),
(56,548,cs),
(56,451,ls),
(56,444,o),
(55,439,o),
(54,432,c),
(42,427,o),
(62,416,o),
(49,411,c),
(49,401,o),
(48,391,o),
(48,48,cs),
(48,30,o),
(50,21,o),
(41,12,cs),
(37,9,o),
(43,2,o),
(48,1,c)
);
},
{
closed = 1;
nodes = (
(230,166,o),
(233,173,o),
(234,179,c),
(237,186,o),
(234,192,o),
(229,197,cs),
(220,208,o),
(187,224,o),
(176,213,c),
(171,205,o),
(165,196,o),
(163,186,c),
(163,180,o),
(171,172,o),
(173,164,cs),
(177,145,o),
(202,145,o),
(226,162,c)
);
},
{
closed = 1;
nodes = (
(201,174,o),
(194,174,o),
(193,179,c),
(192,181,o),
(190,183,o),
(190,185,cs),
(190,188,o),
(192,190,o),
(193,192,c),
(196,195,o),
(206,191,o),
(208,188,cs),
(209,187,o),
(210,185,o),
(209,183,c),
(209,181,o),
(208,179,o),
(207,178,cs)
);
},
{
closed = 1;
nodes = (
(394,36,o),
(373,32,o),
(366,31,cs),
(362,30,o),
(356,30,o),
(355,31,c),
(346,41,o),
(307,34,o),
(299,26,c),
(290,37,o),
(261,36,o),
(253,26,c),
(245,32,o),
(237,34,o),
(227,34,cs),
(219,33,o),
(209,27,o),
(106,32,cs),
(100,32,o),
(96,31,o),
(91,32,c),
(77,31,o),
(74,37,o),
(77,44,cs),
(81,54,o),
(82,66,o),
(76,74,c),
(72,80,o),
(79,81,o),
(79,86,cs),
(78,95,o),
(77,110,o),
(77,115,cs),
(77,122,o),
(78,129,o),
(84,135,c),
(78,141,o),
(76,148,o),
(76,157,cs),
(76,164,o),
(78,172,o),
(78,180,cs),
(77,300,ls),
(77,309,o),
(79,319,o),
(85,327,cs),
(86,329,o),
(82,334,o),
(80,337,c),
(80,342,o),
(108,350,o),
(112,346,c),
(119,342,o),
(127,342,o),
(134,342,cs),
(230,342,ls),
(243,342,o),
(250,338,o),
(255,328,cs),
(259,317,o),
(263,305,o),
(270,296,cs),
(280,282,o),
(283,265,o),
(297,253,cs),
(304,247,o),
(297,236,o),
(306,231,cs),
(315,225,o),
(314,216,o),
(317,209,cs),
(323,194,o),
(355,142,o),
(355,128,c),
(356,123,o),
(360,117,o),
(364,112,cs),
(384,93,o),
(395,64,o),
(409,43,c),
(414,29,o),
(410,33,o),
(399,32,c)
);
},
{
closed = 1;
nodes = (
(140,378,o),
(106,377,o),
(86,372,c),
(85,372,o),
(81,374,o),
(81,374,cs),
(80,379,o),
(80,415,o),
(80,419,cs),
(80,425,o),
(85,432,o),
(80,438,cs),
(77,440,o),
(81,463,o),
(83,466,cs),
(92,478,o),
(94,490,o),
(85,502,c),
(89,512,o),
(92,519,o),
(90,521,cs),
(83,530,o),
(79,631,o),
(79,640,cs),
(79,644,o),
(86,643,o),
(86,641,cs),
(86,630,o),
(103,628,o),
(107,595,cs),
(108,585,o),
(112,579,o),
(117,573,cs),
(124,565,o),
(127,556,o),
(135,549,cs),
(142,544,o),
(135,532,o),
(144,526,c),
(160,496,o),
(197,436,o),
(199,435,cs),
(213,426,o),
(223,393,o),
(232,377,cs),
(233,377,o),
(230,372,o),
(227,372,cs),
(216,371,o),
(189,376,o),
(178,371,c),
(175,370,o),
(165,370,o),
(160,371,cs)
);
}
);
width = 452;
}
);
unicode = 65;
},
{
glyphname = "Alpha-latin";
lastChange = "2024-01-20 05:19:46 +0000";
layers = (
{
layerId = m01;
shapes = (
{
closed = 1;
nodes = (
(386,0,o),
(410,0,o),
(432,0,cs),
(458,0,o),
(485,8,o),
(485,12,cs),
(485,17,o),
(480,22,o),
(470,25,c),
(464,24,o),
(462,22,o),
(449,22,cs),
(442,22,o),
(432,23,o),
(417,24,c),
(415,75,o),
(415,104,o),
(415,139,cs),
(415,173,o),
(418,214,o),
(413,289,cs),
(410,330,o),
(419,352,o),
(413,394,cs),
(413,394,o),
(415,446,o),
(415,483,cs),
(415,501,o),
(410,531,o),
(410,537,cs),
(410,546,o),
(414,576,o),
(413,579,cs),
(409,590,o),
(408,598,o),
(408,606,cs),
(408,620,o),
(412,632,o),
(411,651,c),
(401,686,o),
(393,697,o),
(387,697,cs),
(378,697,o),
(374,677,o),
(374,670,cs),
(374,658,o),
(377,644,o),
(381,629,c),
(386,15,l)
);
},
{
pos = (-30,0);
ref = zero;
}
);
width = 495;
}
);
unicode = 11373;
},
{
glyphname = Astroke;
kernRight = V;
lastChange = "2024-01-17 15:15:00 +0000";
layers = (
{
layerId = m01;
shapes = (
{
closed = 1;
nodes = (
(271,1,o),
(352,2,o),
(364,1,cs),
(378,1,o),
(388,8,o),
(402,9,c),
(436,1,l),
(446,1,o),
(475,1,o),
(475,17,cs),
(475,21,o),
(474,27,o),
(470,33,c),
(452,69,o),
(433,103,o),
(414,137,cs),
(408,149,o),
(399,161,o),
(396,173,cs),
(393,187,o),
(370,237,o),
(360,246,cs),
(348,256,o),
(349,271,o),
(340,281,cs),
(322,302,o),
(315,329,o),
(298,351,c),
(298,364,o),
(296,372,o),
(287,381,cs),
(278,391,o),
(277,404,o),
(269,414,cs),
(261,422,o),
(256,432,o),
(250,441,c),
(225,489,o),
(201,535,o),
(176,581,cs),
(171,592,o),
(162,601,o),
(161,611,cs),
(161,626,o),
(143,630,o),
(143,644,c),
(132,653,o),
(127,665,o),
(120,677,cs),
(115,684,o),
(109,691,o),
(102,696,c),
(91,707,o),
(71,697,o),
(71,681,cs),
(71,594,ls),
(71,591,o),
(70,586,o),
(72,584,cs),
(78,578,o),
(80,570,o),
(80,564,cs),
(80,558,o),
(79,553,o),
(79,548,cs),
(79,451,ls),
(79,444,o),
(78,439,o),
(77,432,c),
(65,427,o),
(85,416,o),
(72,411,c),
(72,401,o),
(71,391,o),
(71,48,cs),
(71,37,o),
(73,28,o),
(64,19,cs),
(60,16,o),
(66,9,o),
(71,8,c),
(78,8,o),
(119,7,o),
(126,2,cs),
(127,1,o),
(147,8,o),
(155,8,cs),
(224,8,ls),
(247,8,o),
(241,1,o),
(259,1,cs)
);
},
{
closed = 1;
nodes = (
(415,35,o),
(402,33,o),
(395,32,cs),
(391,31,o),
(385,31,o),
(383,32,c),
(374,42,o),
(334,40,o),
(326,32,c),
(316,43,o),
(287,42,o),
(278,32,c),
(270,38,o),
(262,39,o),
(252,39,cs),
(243,38,o),
(233,39,o),
(127,39,cs),
(121,39,o),
(116,38,o),
(111,39,c),
(100,45,o),
(92,53,o),
(99,61,cs),
(105,67,o),
(104,72,o),
(98,77,c),
(94,82,o),
(100,83,o),
(101,86,cs),
(104,92,o),
(103,108,o),
(103,113,cs),
(103,120,o),
(104,127,o),
(110,133,c),
(104,140,o),
(102,147,o),
(102,156,cs),
(102,163,o),
(104,172,o),
(104,180,cs),
(103,304,ls),
(103,313,o),
(105,323,o),
(111,331,cs),
(112,333,o),
(108,339,o),
(106,342,c),
(106,347,o),
(129,355,o),
(133,351,c),
(140,347,o),
(148,347,o),
(156,347,cs),
(249,347,ls),
(262,347,o),
(269,343,o),
(274,332,cs),
(278,321,o),
(283,309,o),
(290,299,cs),
(300,285,o),
(304,267,o),
(319,255,cs),
(326,249,o),
(319,237,o),
(328,232,cs),
(337,226,o),
(336,217,o),
(339,210,cs),
(345,194,o),
(379,141,o),
(379,126,c),
(380,121,o),
(384,115,o),
(388,110,cs),
(408,90,o),
(416,64,o),
(430,42,c),
(435,28,o),
(431,32,o),
(420,31,c)
);
},
{
closed = 1;
nodes = (
(162,388,o),
(138,387,o),
(117,379,c),
(116,378,o),
(112,381,o),
(112,382,cs),
(111,390,o),
(111,417,o),
(111,421,cs),
(111,427,o),
(110,434,o),
(105,440,cs),
(102,443,o),
(102,466,o),
(104,469,cs),
(113,482,o),
(115,494,o),
(106,507,c),
(110,517,o),
(113,524,o),
(111,527,cs),
(104,536,o),
(104,617,o),
(104,626,cs),
(104,630,o),
(111,629,o),
(111,627,cs),
(111,616,o),
(127,613,o),
(127,603,cs),
(127,593,o),
(132,587,o),
(138,580,cs),
(145,572,o),
(148,563,o),
(156,556,cs),
(164,550,o),
(156,538,o),
(166,532,c),
(182,501,o),
(217,433,o),
(219,432,cs),
(234,423,o),
(234,399,o),
(243,387,cs),
(244,386,o),
(241,379,o),
(238,379,cs),
(227,377,o),
(212,385,o),
(201,377,c),
(197,375,o),
(187,375,o),
(182,377,cs)
);
},
{
angle = -7.09387;
pos = (28,96);
ref = slash;
scale = (1,0.9278);
}
);
width = 475;
}
);
metricLeft = A;
metricRight = A;
unicode = 570;
},
{
glyphname = AE;
lastChange = "2024-01-17 15:21:38 +0000";
layers = (
{
anchors = (
{
name = bottom;
pos = (317,0);
},
{
name = top;
pos = (397,700);
}
);
layerId = m01;
shapes = (
{
closed = 1;
nodes = (
(58,-10,o),
(70,6,cs),
(74,12,o),
(77,18,o),
(77,23,c),
(75,38,o),
(129,167,o),
(133,183,cs),
(135,191,o),
(133,199,o),
(141,207,cs),
(149,213,o),
(141,224,o),
(147,231,cs),
(160,244,o),
(162,263,o),
(170,278,cs),
(175,289,o),
(179,301,o),
(181,313,cs),
(185,324,o),
(209,408,o),
(222,419,cs),
(224,420,o),
(250,492,o),
(262,525,c),
(271,533,o),
(261,543,o),
(269,550,cs),
(276,558,o),
(277,568,o),
(283,577,cs),
(288,584,o),
(292,591,o),
(291,601,cs),
(290,611,o),
(305,616,o),
(304,627,cs),
(299,629,o),
(306,630,o),
(306,626,cs),
(306,617,o),
(306,536,o),
(299,527,cs),
(297,524,o),
(300,517,o),
(304,507,c),
(295,494,o),
(297,482,o),
(306,469,cs),
(308,466,o),
(308,443,o),
(305,440,cs),
(300,434,o),
(299,427,o),
(299,421,cs),
(299,417,o),
(299,390,o),
(298,382,cs),
(298,381,o),
(248,388,o),
(228,377,cs),
(223,375,o),
(213,375,o),
(209,377,c),
(201,383,o),
(196,382,o),
(188,383,c),
(169,347,l),
(254,347,ls),
(262,347,o),
(270,347,o),
(277,351,c),
(281,355,o),
(304,347,o),
(304,342,c),
(302,339,o),
(298,333,o),
(299,331,cs),
(305,323,o),
(307,313,o),
(307,304,cs),
(306,180,ls),
(306,172,o),
(308,163,o),
(308,156,cs),
(308,147,o),
(306,140,o),
(300,133,c),
(306,127,o),
(307,120,o),
(307,113,cs),
(307,108,o),
(306,92,o),
(309,86,cs),
(310,83,o),
(316,82,o),
(312,77,c),
(306,72,o),
(305,67,o),
(311,61,cs),
(318,53,o),
(310,45,o),
(299,39,c),
(294,38,o),
(289,39,o),
(283,39,cs),
(189,39,o),
(179,38,o),
(170,39,cs),
(160,39,o),
(152,38,o),
(144,32,c),
(135,42,o),
(106,43,o),
(96,32,c),
(88,40,o),
(69,41,o),
(60,31,c),
(58,30,o),
(44,1,o),
(58,1,cs),
(70,2,o),
(151,2,o),
(163,1,cs),
(184,0,o),
(185,10,o),
(198,8,cs),
(262,0,ls),
(285,-3,o),
(378,1,o),
(379,1,cs),
(424,7,o),
(464,2,o),
(471,2,c),
(537,2,l),
(559,5,o),
(557,37,o),
(538,37,c),
(348,37,l),
(338,38,o),
(343,293,o),
(339,348,c),
(349,347,o),
(372,347,o),
(381,347,cs),
(403,347,o),
(426,352,o),
(448,356,cs),
(455,358,o),
(455,369,o),
(448,370,cs),
(441,371,o),
(441,376,o),
(435,377,cs),
(428,378,o),
(420,379,o),
(412,379,cs),
(397,379,o),
(377,378,o),
(362,378,c),
(338,378,l),
(338,411,l),
(325,416,o),
(345,427,o),
(333,432,c),
(332,439,o),
(331,444,o),
(331,451,cs),
(331,548,ls),
(331,553,o),
(330,558,o),
(330,564,cs),
(330,570,o),
(332,578,o),
(338,584,cs),
(340,586,o),
(339,591,o),
(339,594,cs),
(339,662,l),
(381,663,o),
(400,663,o),
(435,663,cs),
(441,663,o),
(469,671,o),
(478,671,cs),
(485,671,o),
(492,669,o),
(498,666,cs),
(503,664,o),
(508,663,o),
(512,663,cs),
(525,663,o),
(535,678,o),
(548,679,cs),
(549,679,o),
(549,686,o),
(548,689,c),
(544,694,o),
(539,699,o),
(531,699,cs),
(336,699,ls),
(333,699,o),
(331,699,o),
(328,698,c),
(321,702,o),
(314,702,o),
(308,696,cs),
(301,691,o),
(295,684,o),
(288,675,cs),
(283,662,o),
(280,650,o),
(270,639,c),
(272,625,o),
(254,619,o),
(256,604,cs),
(257,594,o),
(249,584,o),
(245,573,cs),
(227,524,o),
(209,475,o),
(191,424,c),
(186,414,o),
(182,404,o),
(175,395,cs),
(169,384,o),
(169,371,o),
(162,360,cs),
(154,350,o),
(153,341,o),
(155,328,c),
(141,304,o),
(138,277,o),
(122,254,cs),
(115,242,o),
(118,228,o),
(107,216,cs),
(99,206,o),
(55,81,o),
(54,67,cs),
(53,55,o),
(46,42,o),
(41,29,cs),
(35,15,o)
);
},
{
closed = 1;
nodes = (
(548,357,ls),
(551,360,o),
(552,365,o),
(552,370,cs),
(552,381,o),
(545,394,o),
(535,398,cs),
(524,400,o),
(497,404,o),
(497,385,c),
(491,368,o),
(478,369,o),
(490,357,cs),
(501,345,o),
(516,325,o),
(528,337,cs)
);
},
{
closed = 1;
nodes = (
(520,357,o),
(515,362,o),
(513,366,cs),
(509,369,o),
(513,369,o),
(514,373,c),
(514,379,o),
(522,377,o),
(525,376,cs),
(527,376,o),
(529,372,o),
(529,369,cs),
(529,368,o),
(529,367,o),
(528,366,cs),
(523,360,ls)
);
}
);
width = 553;
}
);
metricLeft = A;
metricRight = E;
unicode = 198;
},
{
glyphname = B;
lastChange = "2024-02-10 08:39:38 +0000";
layers = (
{
anchors = (
{
name = bottom;
pos = (213,0);
},
{
name = center;
pos = (81,350);
},
{
name = top;
pos = (234,696);
}
);
layerId = m01;
shapes = (
{
closed = 1;
nodes = (
(68,2,o),
(76,6,o),
(84,5,c),
(226,5,ls),
(232,5,o),
(237,4,o),
(241,1,cs),
(249,-4,o),
(252,5,o),
(259,5,cs),
(285,1,o),
(350,14,o),
(373,1,cs),
(374,0,o),
(395,4,o),
(406,1,cs),
(412,-2,o),
(430,5,o),
(438,12,cs),
(446,18,o),
(433,25,o),
(431,32,cs),
(430,37,o),
(398,60,o),
(394,70,cs),
(390,80,o),
(378,81,o),
(373,90,cs),
(369,98,o),
(244,223,o),
(226,226,c),
(213,251,o),
(187,264,o),
(168,284,cs),
(162,290,o),
(155,296,o),
(149,303,c),
(151,315,o),
(132,310,o),
(132,320,cs),
(132,332,o),
(116,333,o),
(108,338,cs),
(100,343,o),
(99,352,o),
(100,353,cs),
(109,364,o),
(116,376,o),
(128,384,cs),
(171,406,o),
(350,627,o),
(386,662,cs),
(390,665,o),
(391,670,o),
(393,675,cs),
(395,678,o),
(399,680,o),
(394,684,cs),
(391,686,o),
(388,690,o),
(385,690,c),
(346,698,l),
(300,698,o),
(275,695,o),
(269,690,cs),
(263,684,o),
(254,698,o),
(242,698,cs),
(98,698,ls),
(85,698,o),
(75,690,o),
(61,690,cs),
(49,692,o),
(41,682,o),
(41,673,cs),
(41,658,l),
(41,478,ls),
(41,471,o),
(41,463,o),
(47,457,c),
(41,429,l),
(41,420,o),
(42,412,o),
(47,404,cs),
(50,399,o),
(49,391,o),
(47,384,cs),
(41,359,o),
(49,318,o),
(48,317,cs),
(41,310,o),
(40,302,o),
(40,294,cs),
(43,236,o),
(42,87,o),
(41,23,cs),
(41,18,o),
(39,13,o),
(40,8,cs),
(41,3,o),
(57,-6,o),
(61,-2,cs)
);
},
{
closed = 1;
nodes = (
(184,94,o),
(195,101,o),
(206,118,c),
(206,123,ls),
(206,125,o),
(206,127,o),
(205,127,cs),
(196,136,o),
(190,141,o),
(183,149,cs),
(174,153,o),
(158,154,o),
(151,147,cs),
(137,132,ls),
(128,123,o),
(127,120,o),
(139,108,cs),
(150,98,o),
(161,94,o),
(170,94,cs)
);
},
{
closed = 1;
nodes = (
(164,114,o),
(161,116,o),
(158,119,cs),
(155,122,o),
(155,124,o),
(157,126,cs),
(162,130,ls),
(165,132,o),
(169,133,o),
(172,131,cs),
(173,129,o),
(176,126,o),
(178,125,cs),
(178,125,o),
(178,125,o),
(178,123,cs),
(178,121,l),
(176,117,o),
(172,114,o),
(168,114,cs)
);
},
{
closed = 1;
nodes = (
(76,31,o),
(74,33,o),
(74,43,cs),
(74,54,o),
(63,223,o),
(75,252,c),
(69,259,o),
(69,274,o),
(70,309,cs),
(70,313,o),
(71,316,o),
(72,320,cs),
(72,322,o),
(80,322,o),
(83,321,cs),
(89,318,o),
(92,307,o),
(107,300,cs),
(118,295,o),
(113,283,o),
(126,285,c),
(132,281,o),
(138,275,o),
(146,271,cs),
(154,265,o),
(156,257,o),
(161,250,c),
(202,211,o),
(232,191,o),
(253,160,c),
(267,163,o),
(262,143,o),
(276,144,c),
(284,136,o),
(361,62,o),
(370,53,cs),
(373,50,o),
(389,38,o),
(392,33,c),
(388,32,o),
(377,34,o),
(360,34,cs),
(211,31,o),
(122,31,o),
(89,31,cs)
);
},
{
closed = 1;
nodes = (
(67,359,l),
(70,396,ls),
(70,397,o),
(70,411,o),
(73,427,cs),
(78,454,o),
(75,462,o),
(69,494,cs),
(65,511,o),
(68,551,o),
(70,612,c),
(72,637,o),
(71,652,o),
(73,662,cs),
(74,667,o),
(92,667,o),
(107,667,cs),
(314,667,ls),
(321,667,o),
(336,667,o),
(343,669,c),
(358,669,l),
(352,661,o),
(331,642,o),
(324,635,cs),
(313,624,o),
(262,547,o),
(244,542,c),
(238,533,o),
(236,519,o),
(223,516,cs),
(213,514,o),
(205,507,o),
(205,496,c),
(187,490,o),
(155,449,o),
(149,437,cs),
(146,430,o),
(89,383,o),
(74,356,c)
);
},
{
closed = 1;
nodes = (
(179,554,o),
(191,562,o),
(200,578,c),
(200,583,ls),
(200,585,o),
(200,587,o),
(199,587,cs),
(192,595,o),
(185,600,o),
(178,608,cs),
(170,613,o),
(155,613,o),
(148,606,cs),
(133,592,ls),
(125,584,o),
(125,580,o),
(136,569,cs),
(147,559,o),
(157,554,o),
(166,554,cs)
);
},
{
closed = 1;
nodes = (
(160,574,o),
(157,576,o),
(154,579,cs),
(151,582,o),
(151,584,o),
(153,586,cs),
(158,590,ls),
(161,592,o),
(165,593,o),
(168,591,cs),
(169,589,o),
(172,586,o),
(174,585,cs),
(174,585,o),
(174,585,o),
(174,583,cs),
(174,581,l),
(172,577,o),
(168,574,o),
(164,574,cs)
);
}
);
width = 441;
}
);
unicode = 66;
},
{
glyphname = Bhook;
lastChange = "2023-11-11 14:30:52 +0000";
layers = (
{
layerId = m01;
shapes = (
{
pos = (79,0);
ref = B;
},
{
closed = 1;
nodes = (
(1,555,o),
(27,557,o),
(27,565,c),
(40,580,o),
(16,666,o),
(62,664,cs),
(69,664,o),
(88,665,o),
(95,663,cs),
(108,660,o),
(101,668,o),
(140,663,cs),
(147,662,o),
(153,669,o),
(161,665,c),
(181,677,o),
(206,707,o),
(116,695,cs),
(111,694,o),
(84,694,o),
(77,694,cs),
(46,695,o),
(50,695,o),
(45,695,cs),
(8,693,o),
(4,668,o),
(1,635,cs),
(0,622,o),
(7,606,o),
(1,597,cs),
(-2,592,o),
(2,575,o),
(1,571,c)
);
}
);
width = 520;
}
);
unicode = 385;
},
{
glyphname = C;
lastChange = "2024-02-10 08:39:23 +0000";
layers = (
{
anchors = (
{
name = bottom;
pos = (279,0);
},
{
name = top;
pos = (243,697);
}
);
layerId = m01;
shapes = (
{
closed = 1;
nodes = (
(64,-11,o),
(162,29,o),
(175,39,cs),
(191,51,o),
(210,52,o),
(227,60,cs),
(373,131,o),
(264,80,o),
(415,141,c),
(415,29,o),
(414,17,o),
(414,6,cs),
(414,-1,o),
(428,-8,o),
(437,-8,cs),
(447,-8,o),
(448,-2,o),
(449,5,cs),
(450,9,o),
(456,33,o),
(457,40,c),
(450,47,o),
(448,54,o),
(448,61,cs),
(448,131,o),
(449,101,o),
(448,171,cs),
(448,174,o),
(444,178,o),
(441,178,cs),
(434,179,o),
(424,181,o),
(420,178,cs),
(411,169,o),
(399,173,o),
(389,168,cs),
(370,158,o),
(291,117,o),
(266,117,cs),
(264,117,o),
(143,57,o),
(98,37,cs),
(90,34,o),
(77,26,o),
(75,33,c),
(72,191,o),
(75,115,o),
(75,198,cs),
(75,202,o),
(78,207,o),
(81,211,c),
(83,216,o),
(72,218,o),
(78,224,c),
(84,228,o),
(84,268,o),
(80,272,cs),
(70,280,o),
(84,284,o),
(83,291,cs),
(82,297,o),
(83,304,o),
(83,310,cs),
(83,329,o),
(74,330,o),
(78,334,cs),
(85,340,o),
(83,348,o),
(83,355,cs),
(83,586,ls),
(83,592,o),
(83,600,o),
(81,604,cs),
(76,618,o),
(84,624,o),
(84,631,cs),
(84,653,o),
(82,661,o),
(92,656,cs),
(110,647,o),
(148,624,o),
(168,622,cs),
(176,621,o),
(185,618,o),
(190,613,cs),
(205,599,o),
(385,526,o),
(405,513,cs),
(418,504,o),
(447,508,o),
(449,526,cs),
(449,534,o),
(447,542,o),
(447,550,cs),
(447,562,o),
(456,572,o),
(456,583,cs),
(456,588,o),
(455,593,o),
(451,597,c),
(464,606,o),
(445,612,o),
(448,621,cs),
(451,629,o),
(449,638,o),
(449,681,cs),
(449,688,o),
(444,692,o),
(438,696,c),
(434,700,o),
(426,699,o),
(424,695,cs),
(420,684,o),
(415,675,o),
(415,663,cs),
(415,648,o),
(416,563,o),
(415,556,cs),
(415,548,o),
(408,545,o),
(401,549,cs),
(370,564,o),
(240,627,o),
(221,630,cs),
(201,635,o),
(84,700,o),
(64,700,cs),
(58,700,o),
(53,698,o),
(48,695,cs),
(33,683,o),
(66,654,o),
(55,638,cs),
(45,623,o),
(44,620,o),
(55,608,c),
(62,598,o),
(47,593,o),
(47,578,cs),
(47,488,o),
(52,482,o),
(52,474,cs),
(52,473,o),
(47,440,o),
(47,364,cs),
(47,355,o),
(48,346,o),
(55,337,cs),
(57,334,o),
(57,328,o),
(55,325,c),
(48,319,o),
(47,311,o),
(47,303,cs),
(44,193,o),
(48,181,o),
(48,134,c),
(41,55,o),
(40,46,o),
(40,37,cs),
(40,8,ls),
(40,-4,o),
(49,-11,o),
(61,-11,cs)
);
},
{
closed = 1;
nodes = (
(272,309,o),
(285,323,o),
(295,333,cs),
(300,340,o),
(300,349,o),
(295,356,cs),
(287,366,o),
(279,372,o),
(266,370,cs),
(241,370,o),
(226,357,o),
(226,341,cs),
(226,332,o),
(234,309,o),
(258,309,cs)
);
},
{
closed = 1;
nodes = (
(255,332,o),
(254,339,o),
(254,341,cs),
(254,345,o),
(257,348,o),
(264,348,cs),
(267,349,o),
(269,347,o),
(271,345,cs),
(272,342,o),
(272,340,o),
(271,339,cs),
(269,335,o),
(265,332,o),
(261,332,cs)
);
}
);
width = 477;
}
);
unicode = 67;
},
{
glyphname = "Chi-latin";
lastChange = "2024-01-30 05:27:15 +0000";
layers = (
{
layerId = m01;
shapes = (
{
closed = 1;
nodes = (
(377,8,o),
(374,14,o),
(388,20,c),
(396,30,o),
(403,39,o),
(414,44,cs),
(417,46,o),
(421,44,o),
(420,51,cs),
(420,55,o),
(423,57,o),
(425,58,c),
(431,66,o),
(438,70,o),
(446,75,c),
(450,79,o),
(472,95,o),
(460,107,cs),
(455,111,o),
(442,111,o),
(439,107,c),
(428,99,o),
(381,52,o),
(371,46,cs),
(363,41,l),
(360,48,o),
(357,60,o),
(356,71,cs),
(351,99,o),
(313,169,o),
(305,197,cs),
(301,209,o),
(284,230,o),
(285,238,cs),
(285,257,o),
(277,262,o),
(269,277,c),
(275,295,o),
(252,326,o),
(242,351,c),
(245,356,o),
(248,360,o),
(250,365,cs),
(258,376,o),
(273,383,o),
(275,396,cs),
(277,419,o),
(292,420,o),
(301,436,cs),
(378,569,o),
(375,567,o),
(427,652,c),
(434,661,o),
(438,676,o),
(438,684,cs),
(438,692,o),
(432,696,o),
(427,700,c),
(423,697,o),
(408,686,o),
(392,656,cs),
(388,647,o),
(347,573,o),
(343,566,cs),
(306,506,o),
(324,530,o),
(285,469,cs),
(274,449,o),
(259,431,o),
(251,414,cs),
(246,401,o),
(237,393,o),
(229,384,c),
(223,399,o),
(218,420,o),
(213,433,cs),
(194,484,o),
(181,517,o),
(169,555,cs),
(166,563,o),
(134,645,o),
(133,654,cs),
(129,678,o),
(114,697,o),
(113,699,c),
(109,700,o),
(105,699,o),
(101,696,c),
(90,688,o),
(93,682,o),
(79,674,c),
(71,664,o),
(66,655,o),
(56,648,cs),
(53,646,o),
(48,648,o),
(49,642,cs),
(49,639,o),
(47,635,o),
(45,632,cs),
(40,625,o),
(34,620,o),
(26,615,c),
(23,612,o),
(2,592,o),
(14,582,cs),
(20,577,o),
(33,578,o),
(36,584,c),
(45,592,o),
(92,651,o),
(100,659,c),
(123,592,o),
(166,494,o),
(190,406,cs),
(193,393,o),
(208,372,o),
(210,354,c),
(202,346,o),
(196,332,o),
(189,319,cs),
(180,301,o),
(145,254,o),
(142,233,c),
(132,222,o),
(126,210,o),
(121,194,cs),
(118,187,o),
(109,173,o),
(104,163,c),
(84,126,o),
(50,81,o),
(37,57,c),
(24,21,o),
(20,20,o),
(20,12,cs),
(20,-3,o),
(31,1,o),
(39,4,c),
(53,34,o),
(85,53,o),
(92,88,c),
(109,98,o),
(116,118,o),
(120,150,c),
(139,163,o),
(145,179,o),
(148,196,c),
(173,236,o),
(200,282,o),
(224,321,c),
(224,319,o),
(222,318,o),
(259,246,c),
(255,226,o),
(277,192,o),
(289,176,c),
(288,156,o),
(308,120,o),
(320,104,c),
(314,69,o),
(335,46,o),
(343,15,c),
(349,3,o),
(342,3,o),
(365,0,c)
);
}
);
width = 474;
}
);
unicode = 42931;
},
{
glyphname = Cstroke;
lastChange = "2023-11-03 10:39:56 +0000";
layers = (
{
anchors = (
{
name = bottom;
pos = (309,51);
},
{
name = top;
pos = (273,697);
}
);
layerId = m01;
shapes = (
{
closed = 1;
nodes = (
(174,-46,o),
(175,-25,o),
(176,-6,cs),
(176,-5,o),
(177,-5,o),
(177,-4,c),
(191,2,o),
(201,7,o),
(205,10,cs),
(221,22,o),
(240,23,o),
(257,31,cs),
(403,102,o),
(294,51,o),
(445,112,c),
(445,4,o),
(444,-8,o),
(444,-19,cs),
(444,-26,o),
(458,-33,o),
(467,-33,cs),
(477,-33,o),
(478,-27,o),
(479,-20,cs),
(480,-16,o),
(486,8,o),
(487,15,c),
(480,22,o),
(478,29,o),
(478,36,cs),
(478,106,o),
(479,72,o),
(478,142,cs),
(478,145,o),
(474,149,o),
(471,149,cs),
(464,150,o),
(454,152,o),
(450,149,cs),
(441,140,o),
(429,144,o),
(419,139,cs),
(400,129,o),
(321,88,o),
(296,88,cs),
(295,88,o),
(241,62,o),
(192,38,c),
(192,50,l),
(213,118,o),
(232,186,o),
(254,253,cs),
(258,266,o),
(270,276,o),
(269,291,cs),
(266,316,o),
(280,322,o),
(285,339,cs),
(348,553,l),
(389,535,o),
(427,519,o),
(435,513,cs),
(448,504,o),
(477,508,o),
(479,526,cs),
(479,534,o),
(477,542,o),
(477,550,cs),
(477,562,o),
(486,572,o),
(486,583,cs),
(486,588,o),
(485,593,o),
(481,597,c),
(494,606,o),
(475,612,o),
(478,621,cs),
(481,629,o),
(479,638,o),
(479,681,cs),
(479,688,o),
(474,692,o),
(468,696,c),
(464,700,o),
(456,699,o),
(454,695,cs),
(450,684,o),
(445,675,o),
(445,663,cs),
(445,648,o),
(446,563,o),
(445,556,cs),
(445,548,o),
(438,545,o),
(431,549,cs),
(357,584,l),
(369,623,o),
(379,660,o),
(389,693,c),
(394,704,o),
(394,718,o),
(392,728,cs),
(390,736,o),
(387,740,o),
(381,743,c),
(378,739,o),
(365,733,o),
(356,697,cs),
(354,688,o),
(346,655,o),
(343,647,cs),
(329,598,l),
(293,614,o),
(260,629,o),
(251,630,c),
(231,635,o),
(114,700,o),
(94,700,cs),
(88,700,o),
(83,698,o),
(78,695,cs),
(63,683,o),
(96,654,o),
(85,638,cs),
(75,623,o),
(74,620,o),
(85,608,c),
(92,598,o),
(77,593,o),
(77,578,cs),
(77,488,o),
(82,482,o),
(82,474,cs),
(82,473,o),
(77,439,o),
(77,363,cs),
(77,354,o),
(78,345,o),
(85,336,cs),
(87,333,o),
(87,327,o),
(85,324,c),
(78,318,o),
(77,310,o),
(77,302,cs),
(74,164,o),
(78,152,o),
(78,105,c),
(71,26,o),
(70,17,o),
(70,8,cs),
(70,-21,ls),
(70,-33,o),
(79,-40,o),
(91,-40,cs),
(93,-40,o),
(118,-30,o),
(145,-18,c),
(140,-36,o),
(134,-51,o),
(133,-55,c),
(121,-83,o),
(162,-100,o),
(160,-61,c)
);
},
{
closed = 1;
nodes = (
(120,5,o),
(107,10,o),
(105,17,c),
(102,175,o),
(105,86,o),
(105,169,cs),
(105,173,o),
(108,178,o),
(111,182,c),
(113,187,o),
(102,189,o),
(108,195,c),
(114,199,o),
(114,267,o),
(110,271,cs),
(100,279,o),
(114,283,o),
(113,290,cs),
(112,296,o),
(113,303,o),
(113,309,cs),
(113,328,o),
(104,329,o),
(108,333,cs),
(115,339,o),
(113,347,o),
(113,354,cs),
(113,586,ls),
(113,592,o),
(114,600,o),
(111,604,cs),
(106,611,o),
(105,617,o),
(105,624,cs),
(105,646,o),
(116,654,o),
(126,654,cs),
(146,654,o),
(178,624,o),
(198,622,cs),
(206,621,o),
(215,618,o),
(220,613,cs),
(227,606,o),
(272,586,o),
(319,565,c),
(264,378,ls),
(257,357,o),
(248,333,o),
(245,313,cs),
(241,286,o),
(221,276,o),
(223,249,c),
(217,231,o),
(207,221,o),
(203,201,cs),
(198,181,o),
(176,122,o),
(179,100,c),
(171,85,o),
(168,72,o),
(167,54,cs),
(167,51,o),
(163,38,o),
(158,22,c),
(147,16,o),
(136,12,o),
(128,8,cs)
);
}
);
width = 497;
}
);
unicode = 571;
},
{
glyphname = D;
kernRight = I;
lastChange = "2024-02-09 15:28:17 +0000";
layers = (
{
anchors = (
{
name = bottom;
pos = (59,-38);
},
{
name = center;
pos = (207,334);
},
{
name = top;
pos = (64,698);
}
);
layerId = m01;
shapes = (
{
closed = 1;
nodes = (
(68,-12,o),
(74,-7,o),
(82,-4,cs),
(88,-1,o),
(90,1,o),
(93,6,cs),
(102,20,o),
(358,254,o),
(370,255,c),
(395,276,o),
(453,333,o),
(453,340,cs),
(453,354,o),
(414,374,o),
(406,387,cs),
(400,398,o),
(388,406,o),
(377,414,cs),
(338,444,o),
(313,486,o),
(260,530,cs),
(250,537,o),
(238,541,o),
(232,551,cs),
(224,561,o),
(153,632,o),
(119,649,c),
(121,661,o),
(104,659,o),
(103,664,cs),
(102,678,o),
(70,693,o),
(64,698,c),
(58,702,o),
(53,699,o),
(49,696,c),
(41,676,o),
(36,663,o),
(48,649,c),
(52,641,o),
(52,631,o),
(46,623,cs),
(40,614,o),
(38,607,o),
(45,598,cs),
(53,590,o),
(49,581,o),
(49,572,c),
(37,560,o),
(38,523,o),
(47,506,c),
(42,503,o),
(38,419,o),
(44,411,cs),
(52,403,o),
(38,399,o),
(41,392,cs),
(43,383,o),
(52,371,o),
(45,364,c),
(48,318,l),
(45,314,o),
(44,312,o),
(44,307,cs),
(44,300,o),
(50,295,o),
(50,286,cs),
(50,278,o),
(41,269,o),
(44,265,cs),
(48,258,o),
(49,250,o),
(49,243,cs),
(49,173,ls),
(49,168,o),
(51,161,o),
(48,158,cs),
(42,152,o),
(41,145,o),
(41,137,c),
(41,4,l),
(41,-9,o),
(44,-11,o),
(59,-11,cs)
);
},
{
closed = 1;
nodes = (
(215,304,o),
(228,317,o),
(238,328,cs),
(243,335,o),
(243,344,o),
(238,351,cs),
(230,361,o),
(222,366,o),
(209,365,cs),
(184,365,o),
(169,352,o),
(169,336,cs),
(169,327,o),
(177,304,o),
(201,304,cs)
);
},
{
closed = 1;
nodes = (
(198,327,o),
(197,333,o),
(197,335,cs),
(197,339,o),
(200,342,o),
(207,342,cs),
(210,343,o),
(212,342,o),
(214,339,cs),
(215,337,o),
(215,334,o),
(214,333,cs),
(212,330,o),
(208,327,o),
(204,327,cs)
);
},
{
closed = 1;
nodes = (
(66,38,o),
(70,49,o),
(73,55,cs),
(74,57,o),
(76,60,o),
(75,61,cs),
(64,69,o),
(75,77,o),
(75,84,c),
(76,322,l),
(76,329,o),
(73,404,o),
(80,410,c),
(81,412,o),
(82,416,o),
(81,417,cs),
(77,422,o),
(75,426,o),
(75,431,cs),
(75,501,o),
(75,570,o),
(76,638,cs),
(76,646,o),
(79,650,o),
(83,646,c),
(111,621,o),
(184,553,o),
(198,547,c),
(203,546,o),
(205,537,o),
(209,533,cs),
(221,521,o),
(285,469,o),
(295,446,c),
(319,428,o),
(327,402,o),
(357,390,cs),
(361,389,o),
(367,382,o),
(368,379,c),
(368,369,o),
(382,372,o),
(384,365,cs),
(387,358,o),
(401,352,o),
(408,348,cs),
(413,346,o),
(417,341,o),
(406,330,c),
(372,299,o),
(333,263,o),
(300,232,c),
(288,230,o),
(284,218,o),
(276,214,cs),
(265,210,o),
(258,201,o),
(250,194,cs),
(242,187,o),
(226,167,o),
(217,162,cs),
(204,152,o),
(123,82,o),
(116,68,cs),
(109,55,o),
(94,46,o),
(83,36,cs),
(71,26,o),
(69,28,o),
(68,32,cs)
);
}
);
width = 453;
}
);
unicode = 68;
},
{
glyphname = Dcroat;
kernRight = I;
lastChange = "2024-01-29 13:42:32 +0000";
layers = (
{
layerId = m01;
shapes = (
{
closed = 1;
nodes = (
(97,0,o),
(103,5,o),
(111,8,cs),
(117,10,o),
(119,12,o),
(122,18,cs),
(131,31,o),
(387,261,o),
(399,262,c),
(424,283,o),
(482,339,o),
(482,346,cs),
(482,360,o),
(443,379,o),
(435,392,cs),
(429,403,o),
(417,411,o),
(406,419,cs),
(367,448,o),
(342,490,o),
(289,532,cs),
(279,540,o),
(267,544,o),
(261,553,cs),
(253,564,o),
(182,633,o),
(148,650,c),
(150,661,o),
(133,659,o),
(132,665,cs),
(131,678,o),
(99,693,o),
(93,698,c),
(87,702,o),
(82,699,o),
(78,696,c),
(70,676,o),
(65,664,o),
(77,650,c),
(81,642,o),
(81,632,o),
(75,624,cs),
(69,616,o),
(67,608,o),
(74,600,cs),
(82,592,o),
(78,583,o),
(78,574,c),
(66,563,o),
(67,526,o),
(76,510,c),
(71,506,o),
(67,423,o),
(73,416,cs),
(81,408,o),
(67,404,o),
(70,397,cs),
(72,388,o),
(81,376,o),
(74,369,cs),
(69,365,o),
(64,362,o),
(56,362,cs),
(43,362,o),
(20,362,o),
(7,361,cs),
(-4,361,o),
(-2,333,o),
(9,333,cs),
(62,333,ls),
(69,333,o),
(81,321,o),
(77,318,cs),
(74,314,o),
(73,312,o),
(73,308,cs),
(73,301,o),
(79,295,o),
(79,287,cs),
(79,279,o),
(70,271,o),
(73,266,cs),
(77,259,o),
(78,252,o),
(78,245,cs),
(78,182,ls),
(78,177,o),
(80,170,o),
(77,167,cs),
(71,161,o),
(70,154,o),
(70,147,c),
(70,15,l),
(70,3,o),
(73,1,o),
(88,1,cs)
);
},
{
closed = 1;
nodes = (
(95,57,o),
(99,60,o),
(102,65,cs),
(103,67,o),
(105,71,o),
(104,72,cs),
(93,80,o),
(104,87,o),
(104,94,c),
(105,323,l),
(105,329,o),
(107,333,o),
(114,333,cs),
(237,333,ls),
(241,333,o),
(246,333,o),
(249,335,cs),
(265,344,o),
(259,357,o),
(247,361,cs),
(242,363,o),
(236,362,o),
(120,362,cs),
(115,362,o),
(105,373,o),
(107,375,cs),
(117,382,o),
(102,409,o),
(109,415,c),
(110,417,o),
(111,421,o),
(110,422,cs),
(106,426,o),
(104,430,o),
(104,436,cs),
(104,504,o),
(104,572,o),
(105,639,cs),
(105,647,o),
(108,646,o),
(112,642,c),
(140,618,o),
(213,550,o),
(227,545,c),
(232,544,o),
(234,535,o),
(238,531,cs),
(250,519,o),
(314,468,o),
(324,445,c),
(348,428,o),
(364,403,o),
(394,390,cs),
(398,389,o),
(404,383,o),
(405,380,c),
(405,369,o),
(419,372,o),
(421,366,cs),
(424,359,o),
(427,354,o),
(435,353,cs),
(438,353,o),
(441,343,o),
(437,341,c),
(403,311,o),
(370,280,o),
(337,250,c),
(325,248,o),
(321,237,o),
(313,232,cs),
(302,228,o),
(295,220,o),
(287,213,cs),
(279,206,o),
(268,202,o),
(259,196,cs),
(246,187,o),
(152,102,o),
(145,89,cs),
(138,76,o),
(123,67,o),
(112,58,cs),
(100,47,o),
(98,46,o),
(97,51,cs)
);
}
);
width = 482;
}
);
unicode = 272;
},
{
glyphname = Dhook;
lastChange = "2023-11-11 14:28:45 +0000";
layers = (
{
layerId = m01;
shapes = (
{
pos = (90,0);
ref = D;
},
{
closed = 1;
nodes = (
(2,558,o),
(28,560,o),
(28,568,c),
(40,583,o),
(15,669,o),
(61,667,cs),
(68,667,o),
(87,669,o),
(94,667,cs),
(107,664,o),
(100,672,o),
(139,667,cs),
(146,666,o),
(152,673,o),
(160,669,c),
(177,680,o),
(174,686,o),
(160,693,c),
(144,703,o),
(133,706,o),
(115,699,cs),
(110,697,o),
(83,698,o),
(76,698,cs),
(45,698,o),
(49,698,o),
(44,698,cs),
(7,696,o),
(3,671,o),
(1,638,cs),
(0,625,o),
(7,609,o),
(1,600,cs),
(-2,595,o),
(2,578,o),
(2,574,c)
);
}
);
width = 543;
}
);
unicode = 394;
},
{
glyphname = Dtail;
lastChange = "2023-11-11 16:20:12 +0000";
layers = (
{
layerId = m01;
shapes = (
{
pos = (4,0);
ref = D;
},
{
closed = 1;
nodes = (
(-40,348,o),
(-91,324,o),
(-29,320,c),
(-2,319,o),
(55,322,o),
(80,315,cs),
(86,311,o),
(109,311,o),
(119,314,cs),
(135,321,o),
(150,342,o),
(135,350,cs),
(132,352,o),
(115,355,o),
(113,353,c),
(102,347,o),
(88,346,o),
(73,346,cs),
(46,344,o),
(26,343,o),
(11,354,c),
(-38,348,ls)
);
}
);
width = 457;
}
);
unicode = 393;
},
{
glyphname = Eth;
kernRight = I;
lastChange = "2024-01-29 13:42:30 +0000";
layers = (
{
layerId = m01;
shapes = (
{
closed = 1;
nodes = (
(97,0,o),
(103,5,o),
(111,8,cs),
(117,10,o),
(119,12,o),
(122,18,cs),
(131,31,o),
(387,261,o),
(399,262,c),
(424,283,o),
(482,339,o),
(482,346,cs),
(482,360,o),
(443,379,o),
(435,392,cs),
(429,403,o),
(417,411,o),
(406,419,cs),
(367,448,o),
(342,490,o),
(289,532,cs),
(279,540,o),
(267,544,o),
(261,553,cs),
(253,564,o),
(182,633,o),
(148,650,c),
(150,661,o),
(133,659,o),
(132,665,cs),
(131,678,o),
(99,693,o),
(93,698,c),
(87,702,o),
(82,699,o),
(78,696,c),
(70,676,o),
(65,664,o),
(77,650,c),
(81,642,o),
(81,632,o),
(75,624,cs),
(69,616,o),
(67,608,o),
(74,600,cs),
(82,592,o),
(78,583,o),
(78,574,c),
(66,563,o),
(67,526,o),
(76,510,c),
(71,506,o),
(67,423,o),
(73,416,cs),
(81,408,o),
(67,404,o),
(70,397,cs),
(72,388,o),
(81,376,o),
(74,369,cs),
(69,365,o),
(64,362,o),
(56,362,cs),
(43,362,o),
(20,362,o),
(7,361,cs),
(-4,361,o),
(-2,333,o),
(9,333,cs),
(62,333,ls),
(69,333,o),
(81,321,o),
(77,318,cs),
(74,314,o),
(73,312,o),
(73,308,cs),
(73,301,o),
(79,295,o),
(79,287,cs),
(79,279,o),
(70,271,o),
(73,266,cs),
(77,259,o),
(78,252,o),
(78,245,cs),
(78,182,ls),
(78,177,o),
(80,170,o),
(77,167,cs),
(71,161,o),
(70,154,o),
(70,147,c),
(70,15,l),
(70,3,o),
(73,1,o),
(88,1,cs)
);
},
{
closed = 1;
nodes = (
(95,57,o),
(99,60,o),
(102,65,cs),
(103,67,o),
(105,71,o),
(104,72,cs),
(93,80,o),
(104,87,o),
(104,94,c),
(105,323,l),
(105,329,o),
(107,333,o),
(114,333,cs),
(237,333,ls),
(241,333,o),
(246,333,o),
(249,335,cs),
(265,344,o),
(259,357,o),
(247,361,cs),
(242,363,o),
(236,362,o),
(120,362,cs),
(115,362,o),
(105,373,o),
(107,375,cs),
(117,382,o),
(102,409,o),
(109,415,c),
(110,417,o),
(111,421,o),
(110,422,cs),
(106,426,o),
(104,430,o),
(104,436,cs),
(104,504,o),
(104,572,o),
(105,639,cs),
(105,647,o),
(108,646,o),
(112,642,c),
(140,618,o),
(213,550,o),
(227,545,c),
(232,544,o),
(234,535,o),
(238,531,cs),
(250,519,o),
(314,468,o),
(324,445,c),
(348,428,o),
(364,403,o),
(394,390,cs),
(398,389,o),
(404,383,o),
(405,380,c),
(405,369,o),
(419,372,o),
(421,366,cs),
(424,359,o),
(427,354,o),
(435,353,cs),
(438,353,o),
(441,343,o),
(437,341,c),
(403,311,o),
(370,280,o),
(337,250,c),
(325,248,o),
(321,237,o),
(313,232,cs),
(302,228,o),
(295,220,o),
(287,213,cs),
(279,206,o),
(268,202,o),
(259,196,cs),
(246,187,o),
(152,102,o),
(145,89,cs),
(138,76,o),
(123,67,o),
(112,58,cs),
(100,47,o),
(98,46,o),
(97,51,cs)
);
}
);
width = 502;
}
);
unicode = 208;
},
{
glyphname = E;
lastChange = "2024-02-09 15:37:19 +0000";
layers = (
{
anchors = (
{
name = bottom;
pos = (207,0);
},
{
name = ogonek;
pos = (323,-3);
},
{
name = top;
pos = (212,700);
},
{
name = topleft;
pos = (45,700);
}
);
layerId = m01;
shapes = (
{
closed = 1;
nodes = (
(72,0,o),
(115,1,o),
(120,-2,cs),
(127,-7,o),
(134,0,o),
(141,0,cs),
(145,0,o),
(148,0,o),
(152,0,cs),
(308,3,ls),
(317,3,o),
(338,-1,o),
(353,-3,cs),
(357,-4,o),
(371,0,o),
(374,2,c),
(384,12,o),
(380,31,o),
(367,31,c),
(341,31,l),
(332,30,o),
(181,25,o),
(173,29,cs),
(163,34,o),
(156,31,o),
(148,29,cs),
(144,28,o),
(139,30,o),
(136,30,cs),
(119,32,o),
(98,41,o),
(82,29,cs),
(77,26,o),
(70,30,o),
(70,36,cs),
(69,298,ls),
(69,303,o),
(67,310,o),
(70,314,cs),
(76,322,o),
(78,330,o),
(78,339,cs),
(78,345,o),
(78,517,o),
(78,523,cs),
(78,533,o),
(76,543,o),
(69,551,c),
(69,569,o),
(76,572,o),
(76,582,c),
(70,590,o),
(68,603,o),
(74,645,c),
(74,659,o),
(83,666,o),
(97,666,cs),
(336,660,ls),
(372,659,o),
(381,665,o),
(381,681,c),
(381,687,o),
(378,691,o),
(371,691,cs),
(334,692,o),
(323,690,o),
(318,694,cs),
(311,698,o),
(252,698,o),
(101,697,c),
(96,693,o),
(93,693,o),
(87,697,cs),
(85,699,o),
(79,700,o),
(76,699,cs),
(58,692,o),
(32,683,o),
(43,667,c),
(45,666,o),
(47,662,o),
(47,661,c),
(40,573,o),
(41,556,o),
(48,544,c),
(48,521,o),
(49,475,o),
(48,452,cs),
(48,447,o),
(42,441,o),
(43,438,c),
(47,433,o),
(46,430,o),
(43,424,cs),
(39,418,o),
(39,412,o),
(43,405,cs),
(45,400,o),
(48,395,o),
(48,390,cs),
(49,375,o),
(47,268,o),
(45,264,cs),
(42,257,o),
(40,251,o),
(40,244,cs),
(40,194,o),
(41,87,o),
(40,37,cs),
(39,27,o),
(47,1,o),
(59,1,cs)
);
},
{
closed = 1;
nodes = (
(142,323,o),
(131,430,o),
(150,408,cs),
(198,355,ls),
(205,348,o),
(218,343,o),
(214,339,cs),
(211,336,o),
(200,334,o),
(196,328,cs),
(191,321,o),
(180,318,o),
(171,311,cs),
(163,305,o),
(161,295,o),
(147,288,cs),
(145,287,o),
(144,285,o),
(140,286,c)
);
},
{
closed = 1;
nodes = (
(128,239,o),
(202,304,o),
(239,336,cs),
(243,340,o),
(242,346,o),
(236,350,cs),
(225,359,o),
(221,367,o),
(214,374,cs),
(203,386,ls),
(197,393,o),
(191,398,o),
(184,407,cs),
(181,410,o),
(162,432,o),
(156,440,c),
(148,447,o),
(130,466,o),
(120,469,cs),
(112,462,o),
(116,453,o),
(116,447,c),
(119,442,o),
(119,437,o),
(118,431,cs),
(117,421,ls),
(113,382,o),
(120,343,o),
(116,305,cs),
(115,297,o),
(119,290,o),
(118,282,cs),
(117,276,o),
(114,269,o),
(113,264,cs),
(113,259,o),
(112,255,o),
(114,250,cs),
(114,247,o),
(118,240,o),
(124,240,cs)
);
}
);
width = 381;
}
);
unicode = 69;
},
{
glyphname = Eopen;
lastChange = "2023-11-11 16:26:20 +0000";
layers = (
{
anchors = (
{
name = bottom;
pos = (208,0);
},
{
name = top;
pos = (208,700);
}
);
layerId = m01;
shapes = (
{
closed = 1;
nodes = (
(403,0,o),
(406,2,c),
(416,12,o),
(412,36,o),
(399,36,cs),
(373,36,ls),
(364,36,o),
(183,30,o),
(175,34,cs),
(165,39,o),
(158,36,o),
(150,34,cs),
(146,33,o),
(141,33,o),
(138,35,cs),
(121,45,o),
(106,24,o),
(88,26,cs),
(86,26,o),
(84,26,o),
(82,27,c),
(159,204,o),
(167,225,o),
(163,233,c),
(162,246,o),
(172,248,o),
(176,260,cs),
(200,338,o),
(209,330,o),
(222,354,c),
(226,353,o),
(229,352,o),
(230,354,c),
(236,360,o),
(242,356,o),
(249,357,cs),
(273,361,o),
(287,351,o),
(301,353,cs),
(324,357,o),
(344,363,o),
(344,372,cs),
(344,389,o),
(318,380,o),
(271,385,cs),
(254,385,o),
(232,385,o),
(221,389,c),
(208,408,o),
(199,404,o),
(176,472,cs),
(172,483,o),
(161,485,o),
(162,497,c),
(166,504,o),
(119,575,o),
(77,664,c),
(99,663,o),
(119,665,o),
(136,665,cs),
(368,666,ls),
(404,666,o),
(413,671,o),
(413,687,cs),
(413,693,o),
(410,697,o),
(403,697,cs),
(366,698,o),
(355,696,o),
(350,700,cs),
(343,704,o),
(254,698,o),
(103,697,c),
(98,693,o),
(95,693,o),
(89,697,cs),
(87,699,o),
(81,700,o),
(78,699,cs),
(63,693,o),
(39,689,o),
(40,677,c),
(37,657,o),
(83,603,o),
(88,575,cs),
(93,557,o),
(121,500,o),
(126,487,c),
(140,478,o),
(179,403,o),
(185,387,c),
(186,378,o),
(191,373,o),
(191,367,cs),
(190,359,o),
(142,255,o),
(127,244,c),
(122,230,o),
(95,167,o),
(90,147,cs),
(86,127,o),
(74,97,o),
(41,21,c),
(42,21,l),
(41,19,o),
(41,18,o),
(41,16,cs),
(41,6,o),
(49,-1,o),
(61,-1,cs),
(74,-2,o),
(110,4,o),
(115,1,cs),
(122,-4,o),
(136,0,o),
(143,0,cs),
(154,0,l),
(340,3,ls),
(349,3,o)
);
}
);
width = 423;
}
);
unicode = 400;
},
{
glyphname = Esh;
lastChange = "2023-11-11 16:26:09 +0000";
layers = (
{
layerId = m01;
shapes = (
{
closed = 1;
nodes = (
(349,3,o),
(403,0,o),
(406,2,c),
(416,12,o),
(412,36,o),
(399,36,cs),
(373,36,ls),
(364,36,o),
(183,30,o),
(175,34,cs),
(165,39,o),
(158,36,o),
(150,34,cs),
(146,33,o),
(141,33,o),
(138,35,cs),
(121,45,o),
(106,24,o),
(88,26,cs),
(86,26,o),
(84,26,o),
(82,27,c),
(159,204,o),
(167,225,o),
(163,233,c),
(162,246,o),
(172,248,o),
(176,260,cs),
(200,338,o),
(209,330,o),
(222,354,c),
(233,367,o),
(232,385,o),
(221,389,c),
(208,408,o),
(199,404,o),
(176,472,cs),
(172,483,o),
(161,485,o),
(162,497,c),
(166,504,o),
(119,575,o),
(77,664,c),
(99,663,o),
(119,665,o),
(136,665,cs),
(368,666,ls),
(404,666,o),
(413,671,o),
(413,687,cs),
(413,693,o),
(410,697,o),
(403,697,cs),
(366,698,o),
(355,696,o),
(350,700,cs),
(343,704,o),
(254,698,o),
(103,697,c),
(98,693,o),
(95,693,o),
(89,697,cs),
(87,699,o),
(81,700,o),
(78,699,cs),
(63,693,o),
(39,689,o),
(40,677,c),
(37,657,o),
(83,603,o),
(88,575,cs),
(93,557,o),
(121,500,o),
(126,487,c),
(140,478,o),
(179,403,o),
(185,387,c),
(186,378,o),
(191,373,o),
(191,367,cs),
(190,359,o),
(142,255,o),
(127,244,c),
(122,230,o),
(95,167,o),
(90,147,cs),
(86,127,o),
(74,97,o),
(41,21,c),
(42,21,l),
(41,19,o),
(41,18,o),
(41,16,cs),
(41,6,o),
(49,-1,o),
(61,-1,cs),
(74,-2,o),
(110,4,o),
(115,1,cs),
(122,-4,o),
(136,0,o),
(143,0,cs),
(154,0,l),
(340,3,ls)
);
}
);
width = 413;
}
);
unicode = 425;
},
{
glyphname = Estroke;
lastChange = "2024-01-17 15:14:28 +0000";
layers = (
{
anchors = (
{
name = bottom;
pos = (272,0);
},
{
name = ogonek;
pos = (487,44);
},
{
name = top;
pos = (271,700);
},
{
name = topleft;
pos = (75,700);
}
);
layerId = m01;
shapes = (
{
closed = 1;
nodes = (
(84,-31,l),
(80,-22,o),
(87,-14,o),
(89,-6,cs),
(112,51,o),
(149,142,o),
(151,148,cs),
(154,154,o),
(159,160,o),
(167,162,c),
(168,163,o),
(170,171,o),
(169,174,cs),
(165,185,o),
(210,289,o),
(217,295,cs),
(227,305,o),
(234,311,o),
(230,324,c),
(239,327,o),
(242,333,o),
(246,342,cs),
(258,374,o),
(392,691,o),
(394,695,cs),
(397,702,o),
(398,706,o),
(395,713,cs),
(396,727,o),
(394,732,o),
(373,732,c),
(353,690,o),
(354,686,o),
(351,677,cs),
(243,425,ls),
(241,420,o),
(235,397,o),
(227,398,c),
(225,390,o),
(210,342,o),
(206,335,cs),
(109,141,o),
(109,119,o),
(100,115,cs),
(94,112,o),
(88,100,o),
(91,95,cs),
(92,81,o),
(72,22,o),
(60,27,c),
(58,14,o),
(51,-21,o),
(46,-33,c),
(38,-65,o),
(69,-51,o),
(70,-49,cs)
);
},
{
closed = 1;
nodes = (
(357,-4,o),
(371,0,o),
(374,2,c),
(384,12,o),
(380,36,o),
(367,36,c),
(341,36,l),
(332,35,o),
(181,30,o),
(173,34,cs),
(163,39,o),
(156,36,o),
(148,34,cs),
(144,33,o),
(139,35,o),
(136,35,cs),
(119,37,o),
(102,46,o),
(86,34,cs),
(81,31,o),
(74,35,o),
(74,41,cs),
(74,298,ls),
(74,303,o),
(72,310,o),
(75,314,cs),
(81,322,o),
(83,330,o),
(83,339,cs),
(83,345,o),
(83,517,o),
(83,523,cs),
(83,533,o),
(81,543,o),
(74,551,c),
(74,569,o),
(81,572,o),
(81,582,c),
(75,590,o),
(73,603,o),
(74,645,c),
(74,659,o),
(83,666,o),
(97,666,cs),
(336,660,ls),
(372,659,o),
(381,665,o),
(381,681,c),
(381,687,o),
(378,691,o),
(371,691,cs),
(334,692,o),
(323,690,o),
(318,694,cs),
(311,698,o),
(252,698,o),
(101,697,c),
(96,693,o),
(93,693,o),
(87,697,cs),
(85,699,o),
(79,700,o),
(76,699,cs),
(58,692,o),
(32,683,o),
(43,667,c),
(45,666,o),
(47,662,o),
(47,661,c),
(40,573,o),
(41,556,o),
(48,544,c),
(48,521,o),
(49,475,o),
(48,452,cs),
(48,447,o),
(42,441,o),
(43,438,c),
(47,433,o),
(46,430,o),
(43,424,cs),
(39,418,o),
(39,412,o),
(43,405,cs),
(45,400,o),
(48,395,o),
(48,390,cs),
(49,375,o),
(47,268,o),
(45,264,cs),
(42,257,o),
(40,251,o),
(40,244,cs),
(40,194,o),
(41,87,o),
(40,37,cs),
(39,27,o),
(47,1,o),
(59,1,cs),
(72,0,o),
(115,1,o),
(120,-2,cs),
(127,-7,o),
(134,0,o),
(141,0,cs),
(145,0,o),
(148,0,o),
(152,0,cs),
(308,3,ls),
(317,3,o),
(338,-1,o),
(353,-3,cs)
);
},
{
closed = 1;
nodes = (
(124,284,o),
(182,335,o),
(211,360,cs),
(214,363,o),
(214,368,o),
(209,371,cs),
(200,378,o),
(198,384,o),
(192,390,cs),
(183,399,ls),
(177,405,o),
(174,409,o),
(168,416,cs),
(166,418,o),
(151,435,o),
(146,441,c),
(140,447,o),
(126,462,o),
(118,464,cs),
(112,459,o),
(115,452,o),
(115,447,c),
(117,443,o),
(118,439,o),
(117,434,cs),
(116,427,ls),
(112,396,o),
(118,366,o),
(115,336,cs),
(114,330,o),
(117,324,o),
(117,318,cs),
(116,313,o),
(114,308,o),
(113,304,cs),
(113,300,o),
(112,297,o),
(114,293,cs),
(114,291,o),
(117,285,o),
(121,285,cs)
);
},
{
closed = 1;
nodes = (
(143,358,o),
(137,411,o),
(147,400,cs),
(171,373,ls),
(174,369,o),
(175,370,o),
(172,365,cs),
(171,363,o),
(169,363,o),
(169,361,cs),
(167,356,o),
(164,353,o),
(157,351,cs),
(156,351,o),
(154,350,o),
(145,340,cs),
(145,339,o),
(144,338,o),
(142,339,c)
);
}
);
width = 435;
}
);
unicode = 582;
},
{
glyphname = Schwa;
lastChange = "2023-11-04 17:06:34 +0000";
layers = (
{
anchors = (
{
name = bottom;
pos = (247,0);
},
{
name = bottomright;
pos = (443,0);
},
{
name = ogonek;
pos = (31,656);
},
{
name = top;
pos = (246,700);
}
);
layerId = m01;
shapes = (
{
closed = 1;
nodes = (
(490,8,o),
(516,17,o),
(505,33,c),
(503,34,o),
(501,38,o),
(501,39,cs),
(508,127,o),
(507,144,o),
(500,156,c),
(500,179,o),
(499,225,o),
(500,248,cs),
(500,253,o),
(506,259,o),
(505,262,c),
(501,267,o),
(502,270,o),
(505,276,cs),
(509,282,o),
(509,288,o),
(505,295,cs),
(503,300,o),
(500,305,o),
(500,310,cs),
(499,325,o),
(501,432,o),
(503,436,cs),
(506,443,o),
(508,449,o),
(508,456,cs),
(508,506,o),
(507,605,o),
(508,655,cs),
(509,665,o),
(501,691,o),
(489,691,cs),
(476,692,o),
(433,691,o),
(428,694,cs),
(421,699,o),
(414,700,o),
(407,700,cs),
(396,700,l),
(200,697,ls),
(191,697,o),
(170,701,o),
(155,703,cs),
(151,704,o),
(137,700,o),
(134,698,c),
(124,688,o),
(128,664,o),
(141,664,cs),
(167,664,ls),
(176,664,o),
(367,670,o),
(375,666,cs),
(385,661,o),
(392,664,o),
(400,666,cs),
(404,667,o),
(409,667,o),
(412,665,cs),
(429,655,o),
(446,654,o),
(462,666,cs),
(467,669,o),
(474,665,o),
(474,659,cs),
(474,402,ls),
(474,397,o),
(476,390,o),
(473,386,cs),
(467,378,o),
(465,371,o),
(465,362,c),
(444,362,o),
(437,362,o),
(433,364,c),
(427,369,o),
(279,369,o),
(130,368,c),
(125,364,o),
(122,364,o),
(116,368,cs),
(114,370,o),
(108,371,o),
(105,369,c),
(88,363,o),
(62,354,o),
(73,338,c),
(75,337,o),
(77,333,o),
(77,332,cs),
(70,244,o),
(71,227,o),
(78,215,c),
(78,192,o),
(79,146,o),
(78,122,cs),
(78,118,o),
(72,112,o),
(73,109,c),
(77,104,o),
(76,101,o),
(73,95,cs),
(69,89,o),
(69,83,o),
(73,75,cs),
(75,71,o),
(77,20,o),
(77,14,c),
(78,14,l),
(79,11,o),
(82,9,o),
(87,9,cs),
(124,8,o),
(135,10,o),
(140,6,cs),
(147,2,o),
(296,2,o),
(447,3,c),
(452,7,o),
(455,7,o),
(461,3,cs),
(463,1,o),
(469,0,o),
(472,1,cs)
);
},
{
closed = 1;
nodes = (
(122,40,ls),
(118,40,o),
(115,40,o),
(112,40,c),
(112,194,ls),
(112,204,o),
(110,214,o),
(104,222,c),
(104,240,o),
(110,243,o),
(110,253,c),
(104,261,o),
(103,274,o),
(104,316,cs),
(104,330,o),
(112,336,o),
(126,336,cs),
(451,330,ls),
(456,330,o),
(461,330,o),
(465,330,c),
(465,177,ls),
(465,167,o),
(467,157,o),
(474,149,c),
(474,131,o),
(467,128,o),
(467,118,c),
(473,110,o),
(475,97,o),
(474,55,cs),
(474,41,o),
(465,34,o),
(451,34,cs)
);
},
{
closed = 1;
nodes = (
(298,158,o),
(311,172,o),
(321,182,cs),
(326,189,o),
(326,198,o),
(321,205,cs),
(313,215,o),
(305,221,o),
(292,219,cs),
(267,219,o),
(252,206,o),
(252,190,cs),
(252,181,o),
(260,158,o),
(284,158,cs)
);
},
{
closed = 1;
nodes = (
(281,181,o),
(280,188,o),
(280,190,cs),
(280,194,o),
(283,197,o),
(290,197,cs),
(293,198,o),
(295,196,o),
(297,194,cs),
(298,191,o),
(298,189,o),
(297,188,cs),
(295,184,o),
(291,181,o),
(287,181,cs)
);
}
);
width = 578;
}
);
unicode = 399;
},
{
glyphname = Ezh;
lastChange = "2024-02-10 08:37:48 +0000";
layers = (
{
anchors = (
{
name = bottom;
pos = (212,0);
},
{
name = top;
pos = (212,700);
}
);
layerId = m01;
shapes = (
{
closed = 1;
nodes = (
(348,0,o),
(366,1,o),
(371,1,cs),
(384,0,o),
(403,45,o),
(390,70,c),
(399,82,o),
(398,191,o),
(393,201,cs),
(383,215,o),
(395,221,o),
(395,233,cs),
(393,315,ls),
(393,329,o),
(391,338,o),
(373,344,c),
(362,346,o),
(325,348,o),
(254,350,cs),
(237,350,o),
(194,342,o),
(174,348,c),
(143,354,o),
(76,347,o),
(57,346,c),
(291,560,o),
(320,578,o),
(326,591,cs),
(331,602,o),
(380,645,o),
(395,656,cs),
(405,663,o),
(408,676,o),
(415,684,cs),
(419,689,o),
(412,700,o),
(405,702,cs),
(400,703,o),
(372,693,o),
(254,699,cs),
(233,700,o),
(210,699,o),
(184,699,cs),
(172,699,o),
(151,692,o),
(146,699,cs),
(141,706,o),
(132,698,o),
(124,699,cs),
(95,704,o),
(64,699,o),
(29,699,cs),
(11,700,o),
(0,655,o),
(32,666,cs),
(45,671,o),
(109,667,o),
(183,668,cs),
(194,668,o),
(205,663,o),
(216,668,cs),
(225,672,o),
(234,670,o),
(244,668,cs),
(290,659,o),
(349,675,o),
(371,675,c),
(377,674,o),
(343,645,o),
(331,641,cs),
(321,639,o),
(316,630,o),
(313,622,c),
(298,596,o),
(52,379,o),
(31,358,cs),
(-10,321,o),
(27,319,o),
(53,319,cs),
(116,320,l),
(130,315,l),
(161,322,l),
(361,320,ls),
(365,320,o),
(366,52,o),
(361,32,c),
(335,34,o),
(301,30,o),
(197,27,c),
(150,30,o),
(134,33,o),
(102,33,cs),
(-40,33,o),
(14,0,o),
(53,0,cs)
);
},
{
closed = 1;
nodes = (
(243,172,o),
(246,179,o),
(247,185,cs),
(250,192,o),
(247,198,o),
(242,204,cs),
(233,215,o),
(200,231,o),
(189,220,c),
(184,212,o),
(178,203,o),
(176,192,cs),
(176,186,o),
(184,178,o),
(186,170,cs),
(190,150,o),
(215,150,o),
(239,168,cs)
);
},
{
closed = 1;
nodes = (
(214,180,o),
(207,180,o),
(206,185,cs),
(205,187,o),
(203,189,o),
(203,191,cs),
(203,194,o),
(205,196,o),
(206,198,c),
(209,202,o),
(219,197,o),
(221,194,cs),
(222,193,o),
(223,191,o),
(222,189,cs),
(222,187,o),
(221,185,o),
(220,184,cs)
);
}
);
width = 436;
}
);
unicode = 439;
},
{
glyphname = F;
lastChange = "2024-01-29 14:03:47 +0000";
layers = (
{
anchors = (
{
name = bottom;
pos = (166,7);
},
{
name = top;
pos = (316,700);
}
);
layerId = m01;
shapes = (
{
closed = 1;
nodes = (
(207,1,ls),
(214,1,o),
(220,3,o),
(226,5,cs),
(232,7,o),
(241,0,o),
(248,0,cs),
(258,0,o),
(343,-1,o),
(344,1,c),
(352,4,o),
(357,11,o),
(347,21,cs),
(339,29,o),
(330,29,o),
(320,29,cs),
(298,29,o),
(207,30,o),
(185,30,cs),
(182,30,o),
(177,31,o),
(177,72,cs),
(178,360,l),
(174,386,l),
(183,397,o),
(177,639,o),
(177,658,cs),
(177,663,o),
(179,666,o),
(183,667,c),
(190,667,o),
(221,668,o),
(248,670,cs),
(276,671,o),
(283,678,o),
(317,670,c),
(321,663,o),
(335,667,o),
(364,668,cs),
(368,668,o),
(377,667,o),
(381,671,cs),
(388,678,o),
(394,669,o),
(397,669,cs),
(414,669,o),
(428,674,o),
(434,673,cs),
(457,668,o),
(473,675,o),
(475,681,cs),
(481,698,o),
(467,700,o),
(452,700,cs),
(232,704,o),
(196,698,o),
(194,696,cs),
(186,688,o),
(176,690,o),
(166,689,cs),
(157,688,o),
(148,680,o),
(148,670,c),
(149,555,o),
(147,545,o),
(141,535,c),
(152,522,o),
(148,512,o),
(148,495,cs),
(148,41,ls),
(148,32,o),
(146,29,o),
(135,29,cs),
(79,29,ls),
(74,29,o),
(68,29,o),
(63,28,cs),
(58,27,o),
(49,21,o),
(51,18,cs),
(54,12,o),
(58,6,o),
(63,2,cs),
(66,0,o),
(71,1,o),
(76,1,cs)
);
},
{
closed = 1;
nodes = (
(86,311,o),
(99,325,o),
(109,335,cs),
(114,342,o),
(114,351,o),
(109,358,cs),
(101,368,o),
(93,374,o),
(80,372,cs),
(55,372,o),
(40,359,o),
(40,343,cs),
(40,334,o),
(48,311,o),
(72,311,cs)
);
},
{
closed = 1;
nodes = (
(70,335,o),
(69,341,o),
(69,343,cs),
(69,347,o),
(71,349,o),
(78,349,cs),
(81,350,o),
(83,349,o),
(84,347,cs),
(85,344,o),
(85,342,o),
(84,341,cs),
(83,337,o),
(79,335,o),
(75,335,cs)
);
},
{
closed = 1;
nodes = (
(350,241,o),
(354,248,o),
(354,251,cs),
(356,256,o),
(355,260,o),
(355,265,cs),
(354,270,o),
(351,277,o),
(350,283,cs),
(349,291,o),
(353,298,o),
(352,306,cs),
(348,344,o),
(355,383,o),
(351,422,cs),
(350,432,ls),
(349,438,o),
(349,443,o),
(352,448,c),
(352,454,o),
(356,463,o),
(348,470,cs),
(338,467,o),
(320,448,o),
(312,441,c),
(306,433,o),
(287,411,o),
(284,408,cs),
(277,399,o),
(271,394,o),
(265,387,cs),
(254,375,ls),
(247,368,o),
(243,360,o),
(232,351,cs),
(226,347,o),
(225,341,o),
(229,337,cs),
(266,305,o),
(340,240,o),
(344,241,cs)
);
},
{
closed = 1;
nodes = (
(321,292,o),
(320,293,o),
(319,294,cs),
(303,312,o),
(300,315,o),
(297,315,cs),
(286,318,o),
(279,323,o),
(276,332,cs),
(276,335,o),
(273,337,o),
(272,340,cs),
(267,348,o),
(267,348,o),
(273,354,cs),
(316,402,ls),
(333,421,o),
(323,326,o),
(325,293,c)
);
}
);
width = 446;
}
);
unicode = 70;
},
{
glyphname = Fhook;
lastChange = "2024-01-17 16:13:37 +0000";
layers = (
{
anchors = (
{
name = bottom;
pos = (126,7);
},
{
name = top;
pos = (226,700);
}
);
layerId = m01;
shapes = (
{
closed = 1;
nodes = (
(142,36,o),
(142,72,cs),
(143,360,l),
(139,386,l),
(148,397,o),
(142,639,o),
(142,658,cs),
(142,663,o),
(144,666,o),
(148,667,c),
(155,667,o),
(181,668,o),
(208,670,cs),
(236,671,o),
(243,678,o),
(277,670,c),
(281,663,o),
(295,667,o),
(324,668,cs),
(328,668,o),
(337,667,o),
(341,671,cs),
(348,678,o),
(354,669,o),
(357,669,cs),
(374,669,o),
(388,674,o),
(394,673,cs),
(417,668,o),
(433,675,o),
(435,681,cs),
(441,698,o),
(427,700,o),
(412,700,cs),
(192,704,o),
(156,698,o),
(154,696,cs),
(146,688,o),
(136,690,o),
(126,689,cs),
(117,688,o),
(108,680,o),
(108,670,c),
(109,555,o),
(107,545,o),
(101,535,c),
(112,522,o),
(108,512,o),
(108,495,cs),
(108,50,ls),
(108,0,o)
);
},
{
closed = 1;
nodes = (
(46,281,o),
(59,295,o),
(69,305,cs),
(74,312,o),
(74,321,o),
(69,328,cs),
(61,338,o),
(53,344,o),
(40,342,cs),
(15,342,o),
(0,329,o),
(0,313,cs),
(0,304,o),
(8,281,o),
(32,281,cs)
);
},
{
closed = 1;
nodes = (
(30,305,o),
(29,311,o),
(29,313,cs),
(29,317,o),
(31,319,o),
(38,319,cs),
(41,320,o),
(43,319,o),
(44,317,cs),
(45,314,o),
(45,312,o),
(44,311,cs),
(43,307,o),
(39,305,o),
(35,305,cs)
);
},
{
closed = 1;
nodes = (
(300,211,o),
(304,218,o),
(304,221,cs),
(306,226,o),
(305,230,o),
(305,235,cs),
(304,240,o),
(301,247,o),
(300,253,cs),
(299,261,o),
(303,268,o),
(302,276,cs),
(298,314,o),
(305,353,o),
(301,392,cs),
(300,402,ls),
(299,408,o),
(299,413,o),
(302,418,c),
(302,424,o),
(306,433,o),
(298,440,cs),
(288,437,o),
(270,418,o),
(262,411,c),
(256,403,o),
(237,381,o),
(234,378,cs),
(227,369,o),
(221,364,o),
(215,357,cs),
(204,345,ls),
(197,338,o),
(193,330,o),
(182,321,cs),
(176,317,o),
(175,311,o),
(179,307,cs),
(216,275,o),
(290,210,o),
(294,211,cs)
);
},
{
closed = 1;
nodes = (
(271,262,o),
(270,263,o),
(269,264,cs),
(253,282,o),
(250,285,o),
(247,285,cs),
(236,288,o),
(229,293,o),
(226,302,cs),
(226,305,o),
(223,307,o),
(222,310,cs),
(217,318,o),
(217,318,o),
(223,324,cs),
(266,372,ls),
(283,391,o),
(273,296,o),
(275,263,c)
);
},
{
closed = 1;
nodes = (
(142,116,o),
(112,112,o),
(112,104,c),
(99,89,o),
(127,-105,o),
(81,-103,cs),
(74,-103,o),
(55,-104,o),
(48,-102,cs),
(35,-99,o),
(42,-107,o),
(3,-102,cs),
(-4,-101,o),
(-10,-108,o),
(-18,-104,c),
(-35,-114,o),
(-32,-121,o),
(-18,-128,c),
(-2,-138,o),
(9,-141,o),
(27,-134,cs),
(32,-132,o),
(59,-133,o),
(66,-133,cs),
(97,-134,o),
(93,-134,o),
(98,-134,cs),
(135,-132,o),
(139,-107,o),
(142,36,cs),
(142,49,o),
(136,65,o),
(142,74,cs),
(145,79,o),
(141,96,o),
(142,100,c)
);
}
);
width = 436;
}
);
unicode = 401;
},
{
glyphname = G;
lastChange = "2024-02-10 08:36:19 +0000";
layers = (
{
anchors = (
{
name = bottom;
pos = (245,0);
},
{
name = top;
pos = (245,700);
}
);
layerId = m01;
shapes = (
{
closed = 1;
nodes = (
(72,0,o),
(115,1,o),
(120,-2,cs),
(127,-7,o),
(134,-1,o),
(141,-1,cs),
(145,-1,o),
(148,-1,o),
(152,-1,cs),
(368,0,ls),
(377,0,o),
(389,7,o),
(397,-1,cs),
(400,-4,o),
(441,-1,o),
(444,1,c),
(454,11,o),
(443,54,o),
(449,257,cs),
(449,263,o),
(449,278,o),
(434,278,c),
(365,283,o),
(398,277,o),
(329,286,c),
(323,280,o),
(317,278,o),
(310,278,cs),
(292,278,o),
(288,281,o),
(270,278,c),
(267,277,o),
(264,273,o),
(263,270,c),
(263,254,o),
(264,246,o),
(270,240,cs),
(298,210,o),
(321,188,o),
(353,163,cs),
(365,154,o),
(408,115,o),
(419,102,c),
(420,30,l),
(411,29,o),
(181,24,o),
(173,28,cs),
(163,33,o),
(156,30,o),
(148,28,cs),
(144,27,o),
(139,28,o),
(136,29,cs),
(119,32,o),
(102,37,o),
(86,25,cs),
(81,22,o),
(74,26,o),
(74,32,cs),
(74,302,ls),
(74,307,o),
(72,314,o),
(75,318,cs),
(81,326,o),
(83,334,o),
(83,343,cs),
(83,349,o),
(83,521,o),
(83,527,cs),
(83,537,o),
(81,547,o),
(74,555,c),
(74,573,o),
(81,576,o),
(81,586,c),
(75,594,o),
(73,608,o),
(74,650,c),
(74,664,o),
(83,671,o),
(97,671,cs),
(397,671,ls),
(403,671,o),
(407,668,o),
(407,661,c),
(407,562,o),
(407,550,o),
(408,544,cs),
(409,536,o),
(416,530,o),
(416,521,cs),
(416,513,o),
(421,511,o),
(431,512,cs),
(438,512,o),
(441,516,o),
(441,522,cs),
(441,686,ls),
(441,692,o),
(438,696,o),
(431,696,cs),
(394,697,o),
(383,695,o),
(378,699,cs),
(371,703,o),
(252,703,o),
(101,702,c),
(96,698,o),
(93,698,o),
(87,702,cs),
(85,704,o),
(79,705,o),
(76,704,cs),
(58,697,o),
(32,688,o),
(43,672,c),
(45,671,o),
(47,667,o),
(47,666,c),
(40,578,o),
(41,560,o),
(48,548,c),
(48,525,o),
(49,479,o),
(48,456,cs),
(48,451,o),
(42,445,o),
(43,442,c),
(47,437,o),
(46,434,o),
(43,428,cs),
(39,422,o),
(39,416,o),
(43,409,cs),
(45,404,o),
(48,399,o),
(48,394,cs),
(49,379,o),
(47,272,o),
(45,268,cs),
(42,261,o),
(40,255,o),
(40,248,cs),
(40,198,o),
(41,87,o),
(40,37,cs),
(39,27,o),
(47,1,o),
(59,1,cs)
);
},
{
closed = 1;
nodes = (
(407,149,o),
(303,234,o),
(297,251,c),
(314,253,l),
(322,256,o),
(344,261,o),
(350,255,c),
(403,250,o),
(412,254,o),
(417,247,c),
(420,245,o),
(420,208,o),
(420,174,cs),
(420,144,o),
(419,134,o),
(417,137,cs)
);
},
{
closed = 1;
nodes = (
(252,400,o),
(265,414,o),
(275,424,cs),
(280,431,o),
(280,440,o),
(275,447,cs),
(267,457,o),
(259,463,o),
(246,461,cs),
(221,461,o),
(206,448,o),
(206,432,cs),
(206,423,o),
(214,400,o),
(238,400,cs)
);
},
{
closed = 1;
nodes = (
(235,423,o),
(234,430,o),
(234,432,cs),
(234,436,o),
(237,439,o),
(244,439,cs),
(247,440,o),
(249,438,o),
(251,436,cs),
(252,433,o),
(252,431,o),
(251,430,cs),
(249,426,o),
(245,423,o),
(241,423,cs)
);
}
);
width = 489;
}
);
unicode = 71;
},
{
glyphname = Ghook;
lastChange = "2024-01-17 15:43:38 +0000";
layers = (
{
anchors = (
{
name = bottom;
pos = (274,0);
},
{
name = top;
pos = (252,697);
}
);
layerId = m01;
shapes = (
{
closed = 1;
nodes = (
(145,-1,o),
(148,-1,o),
(152,-1,cs),
(368,0,ls),
(377,0,o),
(389,7,o),
(397,-1,cs),
(400,-4,o),
(441,-1,o),
(444,1,c),
(454,11,o),
(443,104,o),
(449,307,cs),
(449,313,o),
(449,328,o),
(431,328,c),
(348,333,o),
(387,327,o),
(304,336,c),
(297,330,o),
(289,328,o),
(281,328,cs),
(259,328,o),
(254,331,o),
(232,328,c),
(229,327,o),
(225,323,o),
(224,320,c),
(224,304,o),
(225,296,o),
(233,290,cs),
(267,260,o),
(294,222,o),
(333,197,cs),
(348,188,o),
(401,135,o),
(414,122,c),
(414,35,l),
(405,34,o),
(181,29,o),
(173,33,cs),
(163,38,o),
(156,35,o),
(148,33,cs),
(144,32,o),
(139,33,o),
(136,34,cs),
(119,37,o),
(102,42,o),
(86,30,cs),
(81,27,o),
(74,31,o),
(74,37,cs),
(74,302,ls),
(74,307,o),
(72,314,o),
(75,318,cs),
(81,326,o),
(83,334,o),
(83,343,cs),
(83,349,o),
(83,521,o),
(83,527,cs),
(83,537,o),
(81,547,o),
(74,555,c),
(74,573,o),
(81,576,o),
(81,586,c),
(75,594,o),
(73,608,o),
(74,650,c),
(74,664,o),
(83,671,o),
(97,671,cs),
(397,671,ls),
(424,671,o),
(441,658,o),
(441,686,c),
(441,692,o),
(438,696,o),
(431,696,cs),
(394,697,o),
(383,695,o),
(378,699,cs),
(371,703,o),
(252,703,o),
(101,702,c),
(96,698,o),
(93,698,o),
(87,702,cs),
(85,704,o),
(79,705,o),
(76,704,cs),
(58,697,o),
(32,688,o),
(43,672,c),
(45,671,o),
(47,667,o),
(47,666,c),
(40,578,o),
(41,560,o),
(48,548,c),
(48,525,o),
(49,479,o),
(48,456,cs),
(48,451,o),
(42,445,o),
(43,442,c),
(47,437,o),
(46,434,o),
(43,428,cs),
(39,422,o),
(39,416,o),
(43,409,cs),
(45,404,o),
(48,399,o),
(48,394,cs),
(49,379,o),
(47,272,o),
(45,268,cs),
(42,261,o),
(40,255,o),
(40,248,cs),
(40,198,o),
(41,87,o),
(40,37,cs),
(39,27,o),
(47,1,o),
(59,1,cs),
(72,0,o),
(115,1,o),
(120,-2,cs),
(127,-7,o),
(134,-1,o),
(141,-1,cs)
);
},
{
closed = 1;
nodes = (
(397,182,o),
(275,282,o),
(267,299,c),
(286,301,l),
(297,304,o),
(312,306,o),
(322,300,c),
(396,295,o),
(408,299,o),
(415,292,c),
(420,290,o),
(416,226,o),
(416,192,cs),
(416,173,o),
(414,167,o),
(411,170,cs)
);
},
{
closed = 1;
nodes = (
(252,460,o),
(265,474,o),
(275,484,cs),
(280,491,o),
(280,500,o),
(275,507,cs),
(267,517,o),
(259,523,o),
(246,521,cs),
(221,521,o),
(206,508,o),
(206,492,cs),
(206,483,o),
(214,460,o),
(238,460,cs)
);
},
{
closed = 1;
nodes = (
(235,483,o),
(234,490,o),
(234,492,cs),
(234,496,o),
(237,499,o),
(244,499,cs),
(247,500,o),
(249,498,o),
(251,496,cs),
(252,493,o),
(252,491,o),
(251,490,cs),
(249,486,o),
(245,483,o),
(241,483,cs)
);
},
{
closed = 1;
nodes = (
(538,801,o),
(521,805,o),
(516,802,cs),
(507,796,o),
(491,803,o),
(478,802,cs),
(445,800,o),
(420,796,o),
(418,759,cs),
(418,754,o),
(418,758,o),
(418,727,cs),
(418,720,o),
(417,687,o),
(415,682,cs),
(408,664,o),
(450,665,o),
(449,672,cs),
(444,711,o),
(452,696,o),
(449,709,cs),
(447,716,o),
(449,735,o),
(449,742,cs),
(447,788,o),
(533,763,o),
(548,776,c),
(556,776,o),
(558,802,o),
(542,802,c)
);
}
);
width = 480;
}
);
unicode = 403;
},
{
glyphname = Glottalstop;
lastChange = "2024-01-29 13:48:15 +0000";
layers = (
{
layerId = m01;
shapes = (
{
closed = 1;
nodes = (
(213,105,o),
(214,298,o),
(222,317,cs),
(225,323,o),
(237,327,o),
(245,329,cs),
(251,330,o),
(258,329,o),
(263,329,c),
(292,336,o),
(295,346,o),
(350,352,cs),
(364,354,o),
(375,380,o),
(375,400,cs),
(375,407,o),
(374,413,o),
(371,417,c),
(381,425,o),
(376,434,o),
(370,442,c),
(371,502,l),
(371,508,o),
(382,514,o),
(375,521,cs),
(364,530,o),
(378,535,o),
(378,542,cs),
(377,589,o),
(377,635,o),
(377,682,cs),
(377,691,o),
(367,701,o),
(358,701,cs),
(38,701,ls),
(22,701,o),
(22,700,o),
(15,683,cs),
(10,673,o),
(8,662,o),
(14,652,cs),
(22,640,o),
(22,629,o),
(15,616,cs),
(11,610,o),
(18,607,o),
(17,603,cs),
(16,596,o),
(6,581,o),
(11,576,c),
(18,564,o),
(20,551,o),
(20,538,cs),
(20,530,o),
(19,522,o),
(19,514,cs),
(19,503,o),
(24,496,o),
(32,490,cs),
(35,487,o),
(38,478,o),
(45,485,c),
(50,494,o),
(92,511,o),
(99,524,cs),
(107,541,o),
(120,551,o),
(136,556,cs),
(146,559,o),
(144,567,o),
(149,570,cs),
(162,579,o),
(175,576,o),
(183,590,cs),
(196,615,o),
(223,626,o),
(239,649,cs),
(246,659,o),
(256,665,o),
(259,671,cs),
(259,672,o),
(295,671,o),
(300,671,cs),
(334,671,ls),
(341,671,o),
(343,666,o),
(343,660,cs),
(344,626,o),
(341,534,o),
(344,525,cs),
(349,514,o),
(330,476,o),
(341,465,c),
(340,457,o),
(335,423,o),
(335,395,cs),
(335,390,o),
(332,389,o),
(328,387,cs),
(301,375,o),
(262,364,o),
(253,364,cs),
(224,366,o),
(229,358,o),
(200,357,c),
(191,357,o),
(181,342,o),
(185,332,cs),
(190,318,o),
(187,290,o),
(187,278,c),
(181,272,o),
(180,127,o),
(180,120,cs),
(180,115,o),
(180,131,o),
(180,36,c),
(181,25,o),
(207,29,o),
(213,33,c)
);
},
{
closed = 1;
nodes = (
(49,529,o),
(45,645,o),
(51,668,c),
(69,668,o),
(94,669,o),
(113,669,cs),
(216,669,l),
(186,644,o),
(160,612,o),
(129,588,cs),
(108,572,o),
(78,534,o),
(52,526,c)
);
}
);
width = 418;
}
);
unicode = 577;
},
{
glyphname = H;
lastChange = "2024-02-10 08:35:59 +0000";
layers = (
{
anchors = (
{
name = bottom;
pos = (256,0);
},
{
name = center;
pos = (256,350);
},
{
name = top;
pos = (256,700);
},
{
name = topleft;
pos = (20,700);
}
);
layerId = m01;
shapes = (
{
closed = 1;
nodes = (
(62,1,o),
(73,8,o),
(74,15,c),
(71,52,o),
(74,250,o),
(74,323,cs),
(74,337,o),
(76,337,o),
(99,337,cs),
(389,337,ls),
(409,337,o),
(424,340,o),
(429,335,cs),
(433,330,o),
(431,318,o),
(431,303,c),
(431,137,o),
(433,128,o),
(434,119,cs),
(435,110,o),
(421,101,o),
(433,92,cs),
(434,91,o),
(432,87,o),
(431,85,cs),
(419,63,o),
(426,43,o),
(427,18,cs),
(427,-1,o),
(460,-7,o),
(460,19,cs),
(460,62,o),
(465,120,o),
(462,162,c),
(462,224,o),
(464,417,o),
(464,478,cs),
(464,488,o),
(465,564,o),
(471,571,c),
(465,579,o),
(464,668,o),
(464,680,cs),
(464,684,ls),
(464,694,o),
(457,701,o),
(445,700,cs),
(441,700,o),
(435,698,o),
(435,695,c),
(433,687,o),
(434,677,o),
(434,668,cs),
(434,393,ls),
(434,385,o),
(431,374,o),
(427,370,cs),
(424,367,o),
(415,371,o),
(408,370,cs),
(403,368,o),
(397,368,o),
(391,368,cs),
(89,368,ls),
(85,368,o),
(80,369,o),
(77,370,cs),
(72,375,o),
(68,414,o),
(70,419,cs),
(73,425,o),
(74,431,o),
(74,437,cs),
(74,531,o),
(83,578,o),
(84,671,cs),
(84,684,o),
(65,705,o),
(57,698,c),
(41,682,o),
(40,677,o),
(42,675,cs),
(50,667,o),
(48,658,o),
(48,649,c),
(48,511,o),
(47,499,o),
(41,493,c),
(40,469,o),
(40,460,o),
(40,433,cs),
(40,388,o),
(40,119,o),
(40,8,cs),
(40,3,o),
(45,0,o),
(52,0,cs)
);
},
{
closed = 1;
nodes = (
(267,146,o),
(275,152,o),
(283,162,cs),
(288,169,o),
(288,178,o),
(283,185,cs),
(273,195,o),
(260,209,o),
(246,209,cs),
(222,209,o),
(214,186,o),
(214,177,cs),
(214,161,o),
(229,148,o),
(254,148,cs)
);
},
{
closed = 1;
nodes = (
(245,171,o),
(242,174,o),
(242,178,cs),
(242,180,o),
(243,187,o),
(249,187,cs),
(253,187,o),
(257,184,o),
(259,180,cs),
(260,179,o),
(260,177,o),
(259,174,cs),
(257,172,o),
(255,170,o),
(252,171,cs)
);
},
{
closed = 1;
nodes = (
(280,500,o),
(286,509,o),
(288,519,cs),
(288,525,o),
(280,533,o),
(278,541,cs),
(274,560,o),
(249,560,o),
(225,543,cs),
(221,539,o),
(218,532,o),
(217,526,cs),
(214,519,o),
(217,513,o),
(222,508,cs),
(231,497,o),
(264,481,o),
(275,492,c)
);
},
{
closed = 1;
nodes = (
(255,510,o),
(245,514,o),
(243,517,cs),
(242,518,o),
(241,520,o),
(242,522,cs),
(242,524,o),
(243,526,o),
(244,527,cs),
(250,531,o),
(257,531,o),
(258,526,cs),
(259,524,o),
(261,522,o),
(261,520,cs),
(261,517,o),
(259,515,o),
(258,513,c)
);
}
);
width = 511;
}
);
unicode = 72;
},
{
glyphname = Hbar;
lastChange = "2023-12-16 08:06:43 +0000";
layers = (
{
layerId = m01;
shapes = (
{
closed = 1;
nodes = (
(126,3,o),
(137,10,o),
(138,17,c),
(135,54,o),
(138,250,o),
(138,323,cs),
(138,337,o),
(140,337,o),
(163,337,cs),
(453,337,ls),
(490,337,o),
(492,335,o),
(492,303,cs),
(492,137,o),
(492,127,o),
(493,118,cs),
(494,109,o),
(480,100,o),
(492,91,cs),
(493,90,o),
(491,86,o),
(490,84,cs),
(478,62,o),
(493,42,o),
(494,17,cs),
(494,-2,o),
(527,-8,o),
(527,18,cs),
(526,224,o),
(528,510,o),
(529,530,c),
(569,531,o),
(609,527,o),
(629,537,c),
(627,544,l),
(596,558,o),
(542,564,o),
(533,560,c),
(534,562,o),
(528,665,o),
(528,677,cs),
(528,681,ls),
(528,691,o),
(516,698,o),
(504,697,cs),
(500,697,o),
(494,695,o),
(494,692,c),
(492,684,o),
(493,674,o),
(493,665,cs),
(493,562,l),
(471,562,ls),
(435,562,o),
(224,562,o),
(186,563,cs),
(173,563,o),
(160,564,o),
(147,564,c),
(147,599,o),
(148,634,o),
(148,671,cs),
(148,684,o),
(129,705,o),
(121,698,cs),
(105,682,o),
(104,677,o),
(106,675,cs),
(114,667,o),
(112,658,o),
(112,649,cs),
(112,566,l),
(104,566,o),
(97,566,o),
(89,566,cs),
(67,566,ls),
(41,566,o),
(27,557,o),
(7,556,cs),
(-1,555,o),
(-2,538,o),
(5,538,cs),
(26,539,o),
(47,537,o),
(70,537,cs),
(79,537,o),
(88,534,o),
(97,536,cs),
(111,539,l),
(110,495,o),
(104,477,o),
(104,433,cs),
(104,10,ls),
(104,5,o),
(109,2,o),
(116,2,cs)
);
},
{
closed = 1;
nodes = (
(158,368,o),
(153,369,o),
(150,370,c),
(145,375,o),
(141,379,o),
(143,384,cs),
(146,390,o),
(147,396,o),
(147,402,cs),
(147,538,l),
(173,538,o),
(199,536,o),
(216,536,cs),
(238,535,o),
(268,537,o),
(290,537,cs),
(298,537,o),
(306,537,o),
(311,535,cs),
(331,529,o),
(353,534,o),
(373,534,cs),
(395,534,o),
(417,536,o),
(438,535,cs),
(452,535,o),
(471,534,o),
(493,534,c),
(493,393,ls),
(493,371,o),
(473,368,o),
(455,368,cs),
(162,368,ls)
);
}
);
width = 629;
}
);
unicode = 294;
},
{
glyphname = Hbrevebelow;
lastChange = "2024-01-23 04:09:58 +0000";
layers = (
{
layerId = m01;
shapes = (
{
closed = 1;
nodes = (
(325,-158,o),
(350,-144,o),
(349,-129,cs),
(343,-50,l),
(316,-42,o),
(313,-56,o),
(313,-64,cs),
(313,-68,o),
(313,-87,o),
(314,-98,cs),
(316,-106,o),
(313,-115,o),
(309,-122,c),
(293,-123,o),
(255,-125,o),
(239,-121,cs),
(235,-120,o),
(233,-116,o),
(228,-120,cs),
(225,-123,o),
(221,-123,o),
(217,-123,cs),
(206,-124,o),
(195,-128,o),
(184,-125,cs),
(176,-125,o),
(163,-113,o),
(170,-102,c),
(174,-73,l),
(174,-64,o),
(168,-44,o),
(153,-53,cs),
(140,-61,o),
(141,-121,o),
(143,-136,cs),
(143,-143,o),
(154,-153,o),
(161,-153,cs),
(177,-155,o),
(276,-150,o),
(291,-150,cs),
(302,-150,o),
(313,-151,o),
(324,-157,cs)
);
},
{
ref = H;
}
);
width = 511;
}
);
unicode = 7722;
},
{
glyphname = Heng;
lastChange = "2023-11-11 11:03:21 +0000";
layers = (
{
layerId = m01;
shapes = (
{
ref = H;
},
{
closed = 1;
nodes = (
(333,-139,o),
(350,-143,o),
(355,-140,cs),
(364,-134,o),
(380,-141,o),
(393,-140,cs),
(426,-138,o),
(451,-134,o),
(453,-97,cs),
(453,-92,o),
(453,-96,o),
(453,-65,cs),
(453,-58,o),
(452,-31,o),
(454,-26,cs),
(461,-8,o),
(458,3,o),
(448,19,c),
(441,33,o),
(434,36,o),
(424,19,c),
(428,11,o),
(421,5,o),
(422,-2,cs),
(427,-41,o),
(419,-34,o),
(422,-47,cs),
(424,-54,o),
(422,-73,o),
(422,-80,cs),
(424,-126,o),
(338,-101,o),
(323,-114,c),
(315,-114,o),
(313,-140,o),
(329,-140,c)
);
}
);
width = 511;
}
);
unicode = 42790;
},
{
glyphname = Hhook;
lastChange = "2023-11-11 14:29:36 +0000";
layers = (
{
layerId = m01;
shapes = (
{
pos = (95,0);
ref = H;
},
{
closed = 1;
nodes = (
(0,564,o),
(26,566,o),
(26,574,c),
(39,589,o),
(15,675,o),
(61,673,cs),
(68,673,o),
(87,674,o),
(94,672,cs),
(107,669,o),
(100,677,o),
(139,672,cs),
(146,671,o),
(152,678,o),
(160,674,c),
(177,684,o),
(174,691,o),
(160,698,c),
(144,708,o),
(133,711,o),
(115,704,cs),
(110,702,o),
(83,703,o),
(76,703,cs),
(45,704,o),
(49,704,o),
(44,704,cs),
(7,702,o),
(3,677,o),
(0,644,cs),
(-1,631,o),
(6,615,o),
(0,606,cs),
(-3,601,o),
(1,584,o),
(0,580,c)
);
}
);
width = 606;
}
);
unicode = 42922;
},
{
glyphname = Hturned;
lastChange = "2023-12-16 07:34:42 +0000";
layers = (
{
layerId = m01;
shapes = (
{
closed = 1;
nodes = (
(42,358,l),
(41,327,o),
(76,337,o),
(99,337,cs),
(389,337,ls),
(426,337,o),
(428,335,o),
(428,303,c),
(428,137,o),
(428,128,o),
(429,119,cs),
(430,110,o),
(416,101,o),
(428,92,cs),
(429,91,o),
(427,87,o),
(426,85,cs),
(414,63,o),
(421,43,o),
(422,18,cs),
(422,-1,o),
(455,-7,o),
(455,19,cs),
(455,29,o),
(455,38,o),
(454,139,c),
(462,162,l),
(462,224,o),
(464,417,o),
(464,478,cs),
(464,488,o),
(465,564,o),
(471,571,c),
(465,579,o),
(464,666,o),
(464,678,cs),
(464,682,ls),
(464,692,o),
(452,699,o),
(440,698,cs),
(436,698,o),
(430,696,o),
(430,693,c),
(428,685,o),
(429,675,o),
(429,666,cs),
(429,393,ls),
(429,379,o),
(424,373,o),
(408,370,cs),
(403,368,o),
(397,368,o),
(391,368,cs),
(89,368,ls),
(85,368,o),
(80,369,o),
(77,370,cs),
(72,375,o),
(77,379,o),
(79,384,cs),
(82,390,o),
(83,396,o),
(83,402,cs),
(83,496,o),
(83,579,o),
(84,672,cs),
(84,685,o),
(65,706,o),
(57,699,c),
(41,683,o),
(40,678,o),
(42,676,cs),
(50,668,o),
(48,659,o),
(48,650,c),
(48,512,o),
(47,499,o),
(41,493,c),
(40,469,o),
(40,460,o),
(40,433,c)
);
},
{
closed = 1;
nodes = (
(279,500,o),
(285,509,o),
(287,519,cs),
(287,525,o),
(279,533,o),
(277,541,cs),
(273,560,o),
(248,560,o),
(224,543,cs),
(220,539,o),
(217,532,o),
(216,526,cs),
(213,519,o),
(216,513,o),
(221,508,cs),
(230,497,o),
(263,481,o),
(274,492,c)
);
},
{
closed = 1;
nodes = (
(254,510,o),
(244,514,o),
(242,517,cs),
(241,518,o),
(240,520,o),
(241,522,cs),
(241,524,o),
(242,526,o),
(243,527,cs),
(249,531,o),
(256,531,o),
(257,526,cs),
(258,524,o),
(260,522,o),
(260,520,cs),
(260,517,o),
(258,515,o),
(257,513,c)
);
}
);
width = 511;
}
);
unicode = 42893;
},
{
glyphname = I;
kernLeft = I;
lastChange = "2024-02-09 15:09:54 +0000";
layers = (
{
anchors = (
{
name = bottom;
pos = (242,0);
},
{
name = ogonek;
pos = (394,3);
},
{
name = top;
pos = (242,699);
},
{
name = topleft;
pos = (-28,700);
}
);
layerId = m01;
shapes = (
{
closed = 1;
nodes = (
(72,8,o),
(92,10,o),
(102,7,cs),
(118,2,o),
(149,6,o),
(153,6,cs),
(156,6,o),
(180,4,o),
(183,1,c),
(227,1,o),
(303,1,o),
(344,1,cs),
(350,1,o),
(357,0,o),
(371,-1,c),
(388,-1,o),
(403,7,o),
(420,9,cs),
(435,10,o),
(442,17,o),
(442,32,cs),
(442,86,o),
(442,141,o),
(443,195,c),
(429,212,l),
(421,215,o),
(414,213,o),
(413,206,cs),
(412,201,o),
(412,89,o),
(412,60,cs),
(412,36,o),
(409,37,o),
(394,37,cs),
(379,37,o),
(364,39,o),
(350,29,c),
(322,29,o),
(292,29,o),
(264,30,cs),
(261,30,o),
(257,35,o),
(257,38,cs),
(256,47,o),
(257,545,o),
(257,660,c),
(265,664,o),
(290,657,o),
(364,667,c),
(372,667,o),
(380,664,o),
(387,659,c),
(393,656,o),
(401,659,o),
(405,663,cs),
(408,665,o),
(410,665,o),
(411,661,cs),
(412,654,o),
(412,647,o),
(412,502,cs),
(412,478,o),
(442,491,o),
(442,511,cs),
(442,678,ls),
(442,680,o),
(443,681,o),
(442,682,cs),
(434,694,o),
(422,700,o),
(407,700,c),
(348,699,o),
(341,701,o),
(338,698,cs),
(328,690,o),
(263,685,o),
(242,699,c),
(219,696,o),
(179,707,o),
(152,692,cs),
(130,681,o),
(121,700,o),
(96,700,cs),
(76,700,o),
(41,698,o),
(41,670,cs),
(40,627,o),
(41,542,o),
(41,499,cs),
(41,485,o),
(71,483,o),
(71,505,cs),
(71,649,o),
(71,655,o),
(72,660,cs),
(72,662,o),
(75,665,o),
(77,665,cs),
(84,666,o),
(97,670,o),
(101,667,cs),
(109,661,o),
(117,660,o),
(126,660,cs),
(140,660,o),
(217,659,o),
(226,662,c),
(228,647,o),
(224,630,o),
(232,616,c),
(225,581,l),
(225,492,o),
(226,126,o),
(226,37,cs),
(226,31,o),
(221,28,o),
(214,29,cs),
(211,29,o),
(209,29,o),
(206,30,cs),
(165,43,o),
(132,17,o),
(72,36,c),
(72,50,o),
(68,72,o),
(75,84,cs),
(80,90,o),
(79,95,o),
(75,102,cs),
(72,108,o),
(71,115,o),
(71,122,cs),
(71,184,ls),
(71,189,o),
(72,194,o),
(70,196,cs),
(66,202,o),
(60,206,o),
(54,209,cs),
(51,211,o),
(43,201,o),
(42,197,cs),
(41,194,o),
(40,192,o),
(40,189,cs),
(40,30,ls),
(40,18,o),
(49,9,o),
(61,9,cs)
);
}
);
width = 483;
}
);
unicode = 73;
},
{
glyphname = "Iota-latin";
lastChange = "2024-01-29 13:44:37 +0000";
layers = (
{
anchors = (
{
name = bottom;
pos = (140,0);
},
{
name = top;
pos = (133,700);
}
);
layerId = m01;
shapes = (
{
closed = 1;
nodes = (
(140,-1,o),
(164,16,o),
(220,62,cs),
(233,72,o),
(253,69,o),
(253,92,cs),
(253,104,o),
(264,102,o),
(258,112,cs),
(251,124,o),
(232,116,o),
(193,85,c),
(150,52,l),
(146,53,o),
(143,56,o),
(143,61,cs),
(143,643,ls),
(143,654,o),
(153,697,o),
(139,701,c),
(115,705,o),
(111,689,o),
(111,665,cs),
(111,196,o),
(112,189,o),
(112,183,cs),
(112,176,o),
(111,169,o),
(104,162,c),
(111,152,o),
(112,142,o),
(112,131,cs),
(112,116,o),
(111,35,o),
(111,19,cs),
(112,10,o),
(120,1,o),
(130,0,cs)
);
},
{
closed = 1;
nodes = (
(6,576,o),
(26,567,o),
(50,585,cs),
(72,603,o),
(85,618,o),
(95,630,cs),
(101,636,o),
(108,642,o),
(116,645,cs),
(135,651,o),
(139,669,o),
(145,685,cs),
(147,689,o),
(136,699,o),
(132,697,cs),
(129,696,o),
(127,701,o),
(124,699,cs),
(115,697,o),
(109,690,o),
(104,683,cs),
(95,672,o),
(86,664,o),
(75,655,cs),
(65,642,o),
(58,635,o),
(42,621,cs),
(27,608,o),
(14,594,o),
(0,581,c)
);
}
);
width = 280;
}
);
unicode = 406;
},
{
glyphname = J;
lastChange = "2024-02-10 08:41:10 +0000";
layers = (
{
anchors = (
{
name = bottom;
pos = (211,0);
},
{
name = top;
pos = (211,700);
}
);
layerId = m01;
shapes = (
{
closed = 1;
nodes = (
(71,0,o),
(144,1,o),
(211,0,cs),
(292,-1,o),
(372,-2,o),
(373,11,cs),
(373,83,o),
(373,38,o),
(373,110,c),
(365,152,o),
(375,270,o),
(381,315,c),
(374,324,o),
(372,334,o),
(372,344,cs),
(372,397,o),
(372,424,o),
(372,462,cs),
(372,473,o),
(374,483,o),
(381,493,cs),
(382,495,o),
(381,500,o),
(380,501,cs),
(357,524,o),
(373,643,o),
(373,674,c),
(374,707,o),
(347,698,o),
(320,697,cs),
(309,697,o),
(299,697,o),
(293,700,cs),
(287,703,o),
(280,706,o),
(273,700,c),
(233,697,o),
(223,698,o),
(213,701,cs),
(210,702,o),
(205,704,o),
(203,703,cs),
(186,693,o),
(172,698,o),
(158,699,c),
(151,707,o),
(94,698,o),
(85,698,cs),
(68,698,o),
(62,689,o),
(55,684,cs),
(53,682,o),
(57,670,o),
(59,669,c),
(66,668,o),
(310,669,o),
(322,668,cs),
(328,668,o),
(340,671,o),
(344,665,cs),
(350,657,o),
(336,642,o),
(343,635,c),
(344,633,o),
(339,558,o),
(339,555,c),
(351,539,o),
(349,521,o),
(339,504,cs),
(335,498,o),
(347,484,o),
(346,478,c),
(344,426,l),
(349,421,o),
(349,412,o),
(345,407,cs),
(339,399,o),
(339,392,o),
(339,383,cs),
(339,348,ls),
(339,344,o),
(337,339,o),
(339,336,cs),
(346,328,o),
(348,319,o),
(348,310,c),
(343,187,l),
(343,180,o),
(347,165,o),
(344,160,cs),
(339,154,o),
(338,146,o),
(338,139,cs),
(338,123,o),
(340,51,o),
(340,34,c),
(333,37,o),
(322,56,o),
(309,72,cs),
(294,88,o),
(274,100,o),
(264,121,cs),
(260,129,o),
(252,139,o),
(244,142,cs),
(230,147,o),
(222,158,o),
(212,168,cs),
(182,201,o),
(126,261,o),
(64,323,c),
(60,326,o),
(47,328,o),
(45,325,cs),
(42,322,o),
(40,318,o),
(40,314,c),
(40,255,o),
(36,175,o),
(41,170,cs),
(41,170,o),
(49,156,o),
(41,127,cs),
(37,111,o),
(45,99,o),
(41,70,cs),
(38,46,o),
(41,23,o),
(41,10,cs),
(41,1,o),
(45,0,o),
(49,0,cs)
);
},
{
closed = 1;
nodes = (
(200,27,o),
(154,28,o),
(82,28,cs),
(72,28,o),
(70,31,o),
(70,41,cs),
(70,136,o),
(66,174,o),
(67,268,cs),
(67,275,o),
(69,278,o),
(76,271,cs),
(107,240,o),
(143,186,o),
(168,164,cs),
(188,146,o),
(209,131,o),
(225,112,cs),
(242,93,o),
(311,28,o),
(299,27,c),
(272,27,o),
(257,33,o),
(251,27,c)
);
},
{
closed = 1;
nodes = (
(205,404,o),
(216,410,o),
(227,417,c),
(238,428,o),
(238,447,o),
(221,463,cs),
(205,475,o),
(205,478,o),
(185,464,cs),
(165,451,o),
(158,435,o),
(168,417,cs),
(174,407,o),
(185,397,o),
(194,400,cs)
);
},
{
closed = 1;
nodes = (
(197,426,o),
(194,429,o),
(193,431,cs),
(190,436,o),
(192,440,o),
(196,444,cs),
(202,447,o),
(202,447,o),
(206,443,cs),
(210,439,o),
(210,434,o),
(207,431,c),
(205,429,o),
(202,428,o),
(199,427,cs)
);
}
);
width = 421;
}
);
unicode = 74;
},
{
glyphname = Jcrossedtail;
lastChange = "2024-01-17 15:25:21 +0000";
layers = (
{
layerId = m01;
shapes = (
{
ref = J;
},
{
closed = 1;
nodes = (
(428,-51,o),
(415,-37,o),
(400,-24,cs),
(384,-10,o),
(377,-3,o),
(367,10,cs),
(356,19,o),
(347,27,o),
(338,38,cs),
(333,45,o),
(327,52,o),
(318,54,cs),
(315,56,o),
(311,51,o),
(308,52,cs),
(304,54,o),
(293,44,o),
(295,40,cs),
(301,24,o),
(305,6,o),
(326,0,cs),
(334,-3,o),
(341,-9,o),
(347,-15,cs),
(357,-27,o),
(370,-42,o),
(392,-60,cs),
(416,-78,o),
(436,-69,o),
(442,-64,c)
);
}
);
width = 422;
}
);
unicode = 42930;
},
{
glyphname = Jstroke;
lastChange = "2024-01-17 15:24:52 +0000";
layers = (
{
anchors = (
{
name = bottom;
pos = (230,0);
},
{
name = top;
pos = (230,700);
}
);
layerId = m01;
shapes = (
{
closed = 1;
nodes = (
(395,414,o),
(429,422,o),
(458,426,cs),
(468,428,o),
(468,439,o),
(458,440,cs),
(449,441,o),
(449,446,o),
(441,447,cs),
(430,448,o),
(421,449,o),
(409,449,cs),
(388,449,o),
(377,447,o),
(319,448,cs),
(301,448,o),
(265,448,o),
(233,448,c),
(233,439,o),
(244,424,o),
(269,418,c),
(272,418,o),
(318,417,o),
(327,417,cs)
);
},
{
closed = 1;
nodes = (
(53,-2,o),
(372,-14,o),
(373,11,cs),
(373,83,o),
(373,38,o),
(373,110,c),
(365,152,o),
(375,270,o),
(381,315,c),
(374,324,o),
(372,334,o),
(372,344,cs),
(372,397,o),
(372,424,o),
(372,462,cs),
(372,473,o),
(374,483,o),
(381,493,cs),
(382,495,o),
(381,500,o),
(380,501,cs),
(357,524,o),
(373,643,o),
(373,674,c),
(374,707,o),
(347,698,o),
(320,697,cs),
(309,697,o),
(299,698,o),
(293,702,cs),
(287,707,o),
(280,710,o),
(273,702,c),
(233,699,o),
(223,700,o),
(213,704,cs),
(210,705,o),
(205,708,o),
(203,707,cs),
(186,693,o),
(172,700,o),
(158,701,c),
(151,712,o),
(94,708,o),
(85,708,cs),
(68,708,o),
(62,696,o),
(55,684,cs),
(54,682,o),
(57,670,o),
(59,669,c),
(66,668,o),
(310,669,o),
(322,668,cs),
(328,668,o),
(332,666,o),
(333,659,cs),
(333,651,o),
(330,642,o),
(337,635,c),
(338,633,o),
(333,558,o),
(333,555,c),
(345,539,o),
(343,521,o),
(333,504,cs),
(329,498,o),
(341,484,o),
(340,478,c),
(338,426,l),
(343,421,o),
(343,412,o),
(339,407,cs),
(333,399,o),
(333,392,o),
(333,383,cs),
(333,348,ls),
(333,344,o),
(331,339,o),
(333,336,cs),
(340,328,o),
(342,319,o),
(342,310,c),
(337,187,l),
(337,180,o),
(341,165,o),
(338,160,cs),
(333,154,o),
(332,146,o),
(332,139,cs),
(332,123,o),
(334,61,o),
(334,44,c),
(327,47,o),
(322,56,o),
(309,72,cs),
(294,88,o),
(274,100,o),
(264,121,cs),
(260,129,o),
(252,139,o),
(244,142,cs),
(230,147,o),
(222,158,o),
(212,168,cs),
(182,201,o),
(126,261,o),
(64,323,c),
(60,326,o),
(47,328,o),
(45,325,cs),
(42,322,o),
(40,318,o),
(40,314,c),
(40,-42,o),
(47,14,o),
(50,5,cs)
);
},
{
closed = 1;
nodes = (
(200,27,o),
(159,32,o),
(87,32,cs),
(77,32,o),
(75,35,o),
(75,45,cs),
(75,140,o),
(70,165,o),
(71,259,cs),
(71,266,o),
(73,269,o),
(80,262,cs),
(111,231,o),
(143,186,o),
(168,164,cs),
(188,146,o),
(209,131,o),
(225,112,cs),
(242,93,o),
(305,35,o),
(293,34,c),
(266,34,o),
(257,33,o),
(251,27,c)
);
}
);
width = 465;
}
);
unicode = 584;
},
{
glyphname = K;
lastChange = "2024-02-10 08:41:00 +0000";
layers = (
{
anchors = (
{
name = bottom;
pos = (247,0);
},
{
name = top;
pos = (247,700);
}
);
layerId = m01;
shapes = (
{
closed = 1;
nodes = (
(431,664,o),
(442,679,o),
(447,689,c),
(443,692,o),
(439,696,o),
(436,699,cs),
(432,703,o),
(408,697,o),
(401,691,cs),
(378,667,o),
(350,646,o),
(330,619,cs),
(324,609,o),
(228,524,o),
(216,519,cs),
(201,515,o),
(205,498,o),
(192,494,cs),
(186,492,o),
(179,489,o),
(175,484,c),
(169,480,o),
(167,473,o),
(161,468,cs),
(80,395,ls),
(74,389,o),
(87,522,o),
(79,533,cs),
(71,543,o),
(86,547,o),
(83,557,cs),
(76,574,o),
(88,585,o),
(75,600,c),
(74,611,o),
(71,619,o),
(80,628,cs),
(82,630,o),
(82,636,o),
(80,638,cs),
(74,645,o),
(83,662,o),
(83,669,cs),
(83,679,o),
(76,689,o),
(66,698,cs),
(60,704,o),
(51,692,o),
(49,686,cs),
(48,680,o),
(48,674,o),
(48,536,cs),
(48,488,o),
(48,426,o),
(48,343,cs),
(48,338,o),
(47,316,o),
(41,310,cs),
(40,310,o),
(42,303,o),
(44,302,cs),
(49,295,o),
(49,290,o),
(44,285,cs),
(40,281,o),
(38,277,o),
(43,272,cs),
(47,268,o),
(48,263,o),
(48,258,cs),
(48,156,o),
(47,147,o),
(47,139,c),
(36,134,o),
(50,126,o),
(44,120,cs),
(37,112,o),
(52,109,o),
(48,103,cs),
(41,96,o),
(40,88,o),
(40,79,cs),
(40,65,o),
(42,20,o),
(45,6,cs),
(47,-1,o),
(60,-2,o),
(64,4,cs),
(69,13,o),
(79,21,o),
(79,31,cs),
(79,37,o),
(80,42,o),
(75,47,c),
(65,87,o),
(82,138,o),
(82,146,cs),
(81,162,o),
(81,151,o),
(79,167,c),
(83,188,o),
(87,198,o),
(76,218,cs),
(72,225,o),
(73,233,o),
(79,239,cs),
(84,244,o),
(83,248,o),
(79,252,cs),
(75,256,o),
(72,260,o),
(76,266,cs),
(80,270,o),
(81,273,o),
(77,277,cs),
(74,282,o),
(85,287,o),
(77,293,cs),
(74,295,o),
(74,300,o),
(74,303,cs),
(74,313,o),
(74,322,o),
(79,318,c),
(136,268,o),
(156,251,o),
(167,236,cs),
(178,221,o),
(224,184,o),
(234,173,c),
(251,169,o),
(286,129,o),
(289,123,cs),
(298,102,o),
(318,96,o),
(332,81,c),
(354,74,o),
(367,52,o),
(419,5,cs),
(431,-5,o),
(451,-5,o),
(451,9,cs),
(451,26,o),
(439,42,o),
(417,55,c),
(407,55,o),
(358,109,o),
(332,132,cs),
(302,158,o),
(302,138,o),
(286,174,cs),
(283,184,o),
(267,180,o),
(264,192,cs),
(264,200,o),
(243,204,o),
(105,336,cs),
(100,341,o),
(94,346,o),
(89,352,cs),
(87,354,o),
(87,361,o),
(89,363,cs),
(100,370,o),
(107,382,o),
(123,386,cs),
(131,389,o),
(140,397,o),
(143,407,cs),
(145,411,o),
(329,579,o),
(410,651,c)
);
},
{
closed = 1;
nodes = (
(328,317,o),
(336,340,o),
(336,349,cs),
(336,365,o),
(321,378,o),
(296,378,cs),
(283,380,o),
(275,374,o),
(267,364,cs),
(262,357,o),
(262,348,o),
(267,341,cs),
(277,331,o),
(290,317,o),
(304,317,cs)
);
},
{
closed = 1;
nodes = (
(297,339,o),
(293,342,o),
(291,346,cs),
(290,347,o),
(290,349,o),
(291,352,cs),
(293,354,o),
(295,356,o),
(298,355,cs),
(305,355,o),
(308,352,o),
(308,348,cs),
(308,346,o),
(307,339,o),
(301,339,cs)
);
}
);
width = 493;
}
);
unicode = 75;
},
{
glyphname = Khook;
lastChange = "2024-01-17 15:45:03 +0000";
layers = (
{
anchors = (
{
name = bottom;
pos = (244,0);
},
{
name = top;
pos = (244,700);
}
);
layerId = m01;
shapes = (
{
closed = 1;
nodes = (
(434,656,o),
(461,674,o),
(454,689,cs),
(452,693,o),
(446,696,o),
(443,699,cs),
(439,703,o),
(415,691,o),
(408,685,cs),
(385,662,o),
(357,640,o),
(337,613,cs),
(331,603,o),
(235,518,o),
(223,513,cs),
(208,509,o),
(212,493,o),
(199,489,cs),
(193,487,o),
(186,484,o),
(182,479,c),
(176,475,o),
(174,467,o),
(168,462,cs),
(93,395,ls),
(89,391,o),
(87,395,o),
(85,399,c),
(85,516,o),
(86,527,o),
(82,533,cs),
(74,543,o),
(89,547,o),
(86,557,cs),
(79,575,o),
(91,586,o),
(78,600,c),
(77,611,o),
(74,619,o),
(83,628,cs),
(85,630,o),
(85,636,o),
(83,638,cs),
(77,645,o),
(86,663,o),
(86,669,cs),
(86,679,o),
(79,689,o),
(73,698,cs),
(69,705,o),
(51,692,o),
(49,686,cs),
(47,678,o),
(48,669,o),
(48,344,cs),
(48,339,o),
(47,317,o),
(41,311,cs),
(40,311,o),
(42,304,o),
(44,303,cs),
(49,296,o),
(49,291,o),
(44,286,cs),
(40,281,o),
(38,277,o),
(43,272,cs),
(47,269,o),
(48,264,o),
(48,259,cs),
(48,156,o),
(47,147,o),
(47,139,c),
(36,134,o),
(50,126,o),
(44,120,cs),
(37,113,o),
(52,110,o),
(48,104,cs),
(41,97,o),
(40,88,o),
(40,79,cs),
(40,65,o),
(49,21,o),
(52,7,cs),
(54,0,o),
(67,-2,o),
(71,5,cs),
(76,14,o),
(86,22,o),
(86,32,cs),
(86,37,o),
(83,42,o),
(78,47,c),
(68,87,o),
(85,138,o),
(85,146,cs),
(84,162,o),
(84,151,o),
(82,167,c),
(86,189,o),
(90,209,o),
(79,229,cs),
(75,236,o),
(76,244,o),
(82,250,cs),
(87,255,o),
(86,259,o),
(82,263,cs),
(78,267,o),
(75,271,o),
(79,276,cs),
(83,280,o),
(84,284,o),
(80,288,cs),
(77,293,o),
(88,298,o),
(80,304,cs),
(77,306,o),
(77,311,o),
(77,314,cs),
(77,324,o),
(81,323,o),
(86,319,c),
(143,269,o),
(161,257,o),
(172,242,cs),
(183,227,o),
(231,186,o),
(241,175,c),
(258,171,o),
(293,137,o),
(296,131,cs),
(305,111,o),
(326,102,o),
(340,86,c),
(362,79,o),
(375,56,o),
(427,10,cs),
(439,0,o),
(458,-4,o),
(458,11,c),
(437,42,o),
(385,89,o),
(339,139,cs),
(312,169,o),
(309,145,o),
(293,181,cs),
(290,191,o),
(274,187,o),
(271,199,cs),
(271,207,o),
(250,216,o),
(112,338,cs),
(107,343,o),
(101,348,o),
(96,353,cs),
(94,355,o),
(94,361,o),
(96,363,cs),
(107,370,o),
(114,383,o),
(130,387,cs),
(138,390,o),
(147,398,o),
(150,408,cs),
(152,412,o),
(330,568,o),
(411,639,c)
);
},
{
closed = 1;
nodes = (
(325,317,o),
(333,340,o),
(333,349,cs),
(333,365,o),
(318,378,o),
(293,378,cs),
(280,380,o),
(272,374,o),
(264,364,cs),
(259,357,o),
(259,348,o),
(264,341,cs),
(274,331,o),
(287,317,o),
(301,317,cs)
);
},
{
closed = 1;
nodes = (
(294,339,o),
(290,342,o),
(288,346,cs),
(287,347,o),
(287,349,o),
(288,352,cs),
(290,354,o),
(292,356,o),
(295,355,cs),
(302,355,o),
(305,352,o),
(305,348,cs),
(305,346,o),
(304,339,o),
(298,339,cs)
);
},
{
closed = 1;
nodes = (
(544,801,o),
(527,805,o),
(522,802,cs),
(513,796,o),
(497,803,o),
(484,802,cs),
(451,800,o),
(426,796,o),
(424,759,cs),
(424,754,o),
(424,758,o),
(424,727,cs),
(424,720,o),
(423,687,o),
(421,682,cs),
(414,664,o),
(456,675,o),
(455,682,cs),
(450,721,o),
(455,735,o),
(455,742,cs),
(453,788,o),
(539,763,o),
(554,776,c),
(562,776,o),
(564,802,o),
(548,802,c)
);
}
);
width = 491;
}
);
unicode = 408;
},
{
glyphname = L;
lastChange = "2024-02-09 15:39:01 +0000";
layers = (
{
anchors = (
{
name = bottom;
pos = (269,0);
},
{
name = center;
pos = (67,350);
},
{
name = top;
pos = (67,691);
},
{
name = topright;
pos = (431,700);
}
);
layerId = m01;
shapes = (
{
closed = 1;
nodes = (
(77,0,o),
(87,10,o),
(96,2,cs),
(98,0,o),
(111,6,o),
(122,4,cs),
(148,-1,o),
(151,1,o),
(177,1,cs),
(448,1,ls),
(465,1,o),
(464,1,o),
(472,19,cs),
(477,30,o),
(480,42,o),
(473,52,cs),
(466,63,o),
(466,76,o),
(472,88,cs),
(477,95,o),
(475,112,o),
(476,118,c),
(478,122,o),
(478,127,o),
(476,131,cs),
(465,151,o),
(468,175,o),
(468,190,cs),
(469,201,o),
(458,227,o),
(451,220,cs),
(439,208,o),
(444,212,o),
(431,208,cs),
(416,202,o),
(402,197,o),
(395,183,cs),
(387,167,o),
(373,155,o),
(356,151,cs),
(346,148,o),
(348,139,o),
(343,136,cs),
(329,128,o),
(316,130,o),
(308,116,cs),
(294,89,o),
(269,73,o),
(245,54,cs),
(238,49,o),
(233,43,o),
(231,36,c),
(170,36,ls),
(158,36,o),
(139,33,o),
(127,37,cs),
(115,41,o),
(97,38,o),
(84,38,c),
(80,39,o),
(77,42,o),
(77,48,cs),
(77,680,l),
(59,708,o),
(48,703,o),
(48,682,c),
(48,213,l),
(48,207,o),
(49,202,o),
(49,196,cs),
(49,187,o),
(47,179,o),
(40,172,c),
(47,161,o),
(49,150,o),
(49,139,cs),
(49,127,o),
(48,33,o),
(48,21,cs),
(48,11,o),
(57,2,o),
(67,1,cs)
);
},
{
closed = 1;
nodes = (
(304,59,o),
(411,161,o),
(437,170,c),
(440,167,o),
(447,54,o),
(437,34,c),
(418,34,o),
(393,33,o),
(273,33,c)
);
}
);
width = 507;
}
);
unicode = 76;
},
{
glyphname = Lbelt;
lastChange = "2023-11-19 05:06:00 +0000";
layers = (
{
layerId = m01;
shapes = (
{
pos = (57,0);
ref = L;
},
{
closed = 1;
nodes = (
(51,348,o),
(48,348,o),
(45,349,cs),
(36,352,o),
(36,352,o),
(36,361,cs),
(36,428,ls),
(36,453,o),
(90,375,o),
(114,352,c),
(112,349,o),
(110,349,o),
(109,349,cs),
(87,348,o),
(82,348,o),
(80,346,c),
(70,341,o),
(61,341,o),
(53,346,c)
);
},
{
closed = 1;
nodes = (
(-2,329,o),
(2,323,o),
(8,323,cs),
(45,322,o),
(113,321,o),
(145,322,cs),
(163,321,o),
(175,316,o),
(187,318,cs),
(195,320,o),
(204,322,o),
(213,325,cs),
(218,326,o),
(234,327,o),
(239,327,cs),
(247,327,o),
(255,326,o),
(263,326,cs),
(305,330,o),
(293,354,o),
(255,350,c),
(245,350,o),
(234,352,o),
(214,356,c),
(208,356,o),
(202,355,o),
(195,350,c),
(194,348,o),
(190,350,o),
(188,350,c),
(177,354,o),
(166,350,o),
(157,348,c),
(155,350,ls),
(151,354,o),
(144,356,o),
(139,360,c),
(134,366,o),
(132,374,o),
(126,379,cs),
(98,405,o),
(77,438,o),
(49,466,cs),
(42,473,ls),
(38,477,o),
(34,480,o),
(33,486,c),
(29,490,o),
(26,500,o),
(16,500,c),
(10,491,o),
(9,465,o),
(7,454,c),
(8,445,o),
(8,415,o),
(8,410,cs),
(8,400,o),
(7,392,o),
(7,383,cs),
(7,367,ls),
(7,356,o),
(7,345,o),
(1,335,cs)
);
}
);
width = 544;
}
);
unicode = 42925;
},
{
glyphname = Ldoublebar;
lastChange = "2023-11-11 14:55:26 +0000";
layers = (
{
layerId = m01;
shapes = (
{
pos = (25,0);
ref = L;
},
{
closed = 1;
nodes = (
(4,442,l),
(10,451,o),
(18,448,o),
(27,449,cs),
(85,451,o),
(42,451,o),
(49,450,cs),
(56,450,o),
(63,449,o),
(68,443,c),
(69,441,o),
(77,444,o),
(79,446,cs),
(86,454,o),
(115,456,o),
(123,452,cs),
(134,447,o),
(142,445,o),
(152,452,c),
(159,447,o),
(166,445,o),
(175,446,c),
(213,455,o),
(268,478,o),
(212,486,c),
(204,485,o),
(158,479,o),
(150,479,cs),
(120,480,o),
(79,475,o),
(71,482,cs),
(66,485,o),
(55,485,o),
(52,481,cs),
(40,474,o),
(-2,477,o),
(-15,476,c),
(-45,472,o),
(-20,448,o),
(-19,448,cs)
);
},
{
closed = 1;
nodes = (
(76,342,o),
(75,344,o),
(115,349,cs),
(129,351,o),
(171,348,o),
(178,348,cs),
(197,348,o),
(215,354,o),
(234,358,cs),
(240,359,o),
(240,371,o),
(234,372,cs),
(228,372,o),
(228,378,o),
(223,379,cs),
(217,380,o),
(211,381,o),
(204,381,cs),
(191,381,o),
(175,380,o),
(162,380,cs),
(149,380,o),
(135,379,o),
(121,379,cs),
(86,377,o),
(70,374,o),
(35,376,cs),
(24,377,o),
(-4,376,o),
(-24,376,c),
(-24,367,o),
(-17,352,o),
(-2,346,c),
(1,345,o),
(28,344,o),
(34,344,cs)
);
}
);
width = 513;
}
);
unicode = 11360;
},
{
glyphname = Lslash;
lastChange = "2023-12-16 08:09:16 +0000";
layers = (
{
layerId = m01;
shapes = (
{
closed = 1;
nodes = (
(9,348,o),
(28,355,o),
(34,358,cs),
(77,374,o),
(94,382,o),
(133,402,cs),
(147,409,o),
(160,414,o),
(176,416,cs),
(184,417,o),
(193,420,o),
(200,423,cs),
(219,432,o),
(235,446,o),
(251,459,cs),
(256,464,o),
(250,478,o),
(243,476,cs),
(237,474,o),
(234,481,o),
(229,480,cs),
(222,478,o),
(216,476,o),
(208,473,cs),
(195,467,o),
(180,459,o),
(167,453,cs),
(154,447,o),
(140,441,o),
(126,434,cs),
(92,416,o),
(87,415,o),
(51,401,cs),
(40,396,o),
(-20,368,o),
(-40,359,c),
(-35,348,o),
(-28,340,o),
(6,347,c)
);
},
{
pos = (13,0);
ref = L;
}
);
width = 500;
}
);
unicode = 321;
},
{
glyphname = M;
lastChange = "2024-02-09 15:39:54 +0000";
layers = (
{
anchors = (
{
name = bottom;
pos = (340,0);
},
{
name = top;
pos = (340,700);
}
);
layerId = m01;
shapes = (
{
closed = 1;
nodes = (
(59,-3,o),
(64,7,o),
(74,7,c),
(92,-4,o),
(112,2,o),
(130,2,cs),
(133,2,o),
(136,2,o),
(138,2,cs),
(144,2,o),
(151,9,o),
(156,7,cs),
(164,4,o),
(217,2,o),
(226,2,cs),
(230,2,o),
(235,8,o),
(239,12,cs),
(248,21,o),
(234,25,o),
(225,27,cs),
(217,28,o),
(180,28,o),
(171,29,c),
(165,42,o),
(153,22,o),
(147,34,c),
(130,36,o),
(104,40,o),
(86,29,cs),
(81,25,o),
(74,30,o),
(74,35,cs),
(74,234,ls),
(74,242,o),
(73,250,o),
(79,258,cs),
(85,266,o),
(76,294,o),
(77,296,c),
(85,304,o),
(82,314,o),
(82,324,cs),
(82,507,ls),
(82,517,o),
(82,525,o),
(77,535,cs),
(70,547,o),
(74,576,o),
(79,591,cs),
(80,594,o),
(82,596,o),
(79,598,c),
(73,604,o),
(74,611,o),
(74,626,cs),
(74,633,o),
(81,630,o),
(82,628,cs),
(113,588,o),
(89,610,o),
(118,569,cs),
(124,560,o),
(136,553,o),
(140,544,cs),
(146,529,o),
(157,519,o),
(164,506,cs),
(170,493,o),
(183,482,o),
(190,469,cs),
(197,454,o),
(268,358,o),
(279,339,cs),
(291,321,o),
(303,303,o),
(313,283,cs),
(316,277,o),
(320,271,o),
(317,268,cs),
(300,255,o),
(295,234,o),
(284,216,cs),
(271,194,o),
(247,179,o),
(241,152,c),
(241,149,o),
(219,137,o),
(218,131,cs),
(215,119,o),
(229,121,o),
(235,117,cs),
(244,110,o),
(256,110,o),
(266,116,cs),
(277,123,o),
(291,122,o),
(301,117,cs),
(305,115,o),
(309,113,o),
(313,113,cs),
(426,113,ls),
(437,113,o),
(448,126,o),
(442,136,cs),
(427,162,o),
(411,188,o),
(392,210,cs),
(379,225,o),
(370,246,o),
(359,262,c),
(355,270,o),
(356,278,o),
(363,285,cs),
(370,292,o),
(430,384,o),
(487,466,cs),
(531,531,o),
(575,589,o),
(578,595,cs),
(582,604,o),
(596,623,o),
(603,631,c),
(608,638,o),
(612,640,o),
(612,628,cs),
(604,315,l),
(603,303,l),
(596,294,o),
(598,285,o),
(598,275,cs),
(598,160,ls),
(598,150,o),
(595,141,o),
(603,132,cs),
(605,130,o),
(604,44,o),
(604,36,cs),
(604,33,o),
(600,28,o),
(597,28,cs),
(590,27,o),
(583,27,o),
(576,27,cs),
(471,27,ls),
(455,27,o),
(443,18,o),
(428,23,cs),
(425,24,o),
(421,16,o),
(421,14,cs),
(421,7,o),
(434,2,o),
(441,2,cs),
(489,1,o),
(536,1,o),
(584,1,cs),
(598,2,o),
(612,3,o),
(626,3,c),
(630,10,o),
(631,17,o),
(631,24,cs),
(631,30,o),
(630,37,o),
(629,300,c),
(629,313,o),
(641,324,o),
(636,329,cs),
(626,339,o),
(626,489,o),
(635,500,cs),
(637,503,o),
(638,508,o),
(638,512,cs),
(638,568,o),
(638,627,o),
(639,683,cs),
(639,696,o),
(627,693,o),
(622,698,cs),
(616,704,o),
(612,699,o),
(609,695,cs),
(591,670,o),
(528,564,o),
(505,545,c),
(502,528,o),
(485,522,o),
(479,509,cs),
(458,468,o),
(424,437,o),
(405,398,c),
(389,382,o),
(387,357,o),
(369,343,c),
(367,325,o),
(344,315,o),
(342,296,cs),
(342,290,o),
(328,298,o),
(328,304,cs),
(327,319,o),
(313,329,o),
(309,342,cs),
(305,353,o),
(297,363,o),
(290,373,cs),
(263,411,o),
(242,451,o),
(210,485,c),
(209,500,o),
(191,505,o),
(190,520,c),
(179,529,o),
(172,542,o),
(168,555,cs),
(162,569,o),
(149,575,o),
(142,587,c),
(125,630,o),
(93,657,o),
(70,691,cs),
(68,695,o),
(64,697,o),
(61,699,cs),
(59,701,o),
(55,700,o),
(53,699,cs),
(49,696,o),
(42,691,o),
(42,687,cs),
(40,670,o),
(38,650,o),
(44,634,cs),
(46,629,o),
(49,624,o),
(49,618,cs),
(48,610,o),
(50,599,o),
(46,594,cs),
(37,584,o),
(52,579,o),
(48,572,cs),
(44,565,o),
(41,559,o),
(48,551,cs),
(51,548,o),
(49,540,o),
(49,535,cs),
(49,476,o),
(49,301,o),
(49,271,cs),
(49,261,o),
(40,244,o),
(40,234,cs),
(40,225,o),
(49,217,o),
(49,207,cs),
(49,207,o),
(49,206,o),
(49,205,cs),
(48,198,o),
(47,192,o),
(43,185,cs),
(38,178,o),
(39,169,o),
(45,162,cs),
(48,159,o),
(48,158,o),
(45,155,cs),
(42,152,o),
(42,149,o),
(45,145,cs),
(51,139,o),
(40,137,o),
(40,132,cs),
(40,101,ls),
(40,96,o),
(50,94,o),
(45,87,cs),
(41,82,o),
(40,24,o),
(41,17,cs),
(41,12,o),
(47,8,o),
(51,4,cs)
);
},
{
closed = 1;
nodes = (
(360,139,o),
(302,139,o),
(271,140,cs),
(270,140,o),
(268,144,o),
(268,145,c),
(283,178,o),
(307,223,o),
(332,247,cs),
(338,253,o),
(340,250,o),
(342,242,cs),
(345,228,o),
(379,199,o),
(402,150,c),
(410,141,o),
(404,139,o),
(391,139,cs)
);
},
{
closed = 1;
nodes = (
(364,510,o),
(372,533,o),
(372,542,cs),
(372,558,o),
(357,571,o),
(332,571,cs),
(319,573,o),
(311,567,o),
(303,557,cs),
(298,550,o),
(298,541,o),
(303,534,cs),
(313,524,o),
(326,510,o),
(340,510,cs)
);
},
{
closed = 1;
nodes = (
(333,532,o),
(329,535,o),
(327,539,cs),
(326,540,o),
(326,542,o),
(327,545,cs),
(329,547,o),
(331,549,o),
(334,548,cs),
(341,548,o),
(344,545,o),
(344,541,cs),
(344,539,o),
(343,532,o),
(337,532,cs)
);
}
);
width = 679;
}
);
unicode = 77;
},
{
glyphname = N;
lastChange = "2024-02-03 09:43:35 +0000";
layers = (
{
anchors = (
{
name = bottom;
pos = (232,0);
},
{
name = top;
pos = (232,700);
}
);
layerId = m01;
shapes = (
{
closed = 1;
nodes = (
(73,0,o),
(74,2,o),
(75,14,cs),
(75,22,o),
(66,31,o),
(69,36,cs),
(73,44,o),
(75,53,o),
(75,61,cs),
(73,101,o),
(73,54,o),
(74,113,c),
(76,121,o),
(69,127,o),
(67,133,cs),
(66,140,o),
(72,147,o),
(74,154,c),
(77,157,o),
(68,165,o),
(68,170,cs),
(68,175,o),
(73,179,o),
(74,184,c),
(74,191,o),
(76,198,o),
(69,205,cs),
(64,211,o),
(65,219,o),
(70,226,cs),
(77,235,o),
(77,247,o),
(70,256,cs),
(65,263,o),
(64,271,o),
(69,278,cs),
(74,283,o),
(76,289,o),
(70,294,cs),
(63,299,o),
(65,317,o),
(67,319,cs),
(76,328,o),
(74,343,o),
(74,350,cs),
(74,670,l),
(75,673,o),
(76,677,o),
(82,673,c),
(87,671,o),
(156,670,o),
(166,677,c),
(221,677,ls),
(231,677,o),
(233,675,o),
(233,666,c),
(233,541,o),
(234,506,o),
(231,501,cs),
(230,499,o),
(230,496,o),
(230,494,cs),
(230,492,o),
(236,459,o),
(228,450,cs),
(227,448,o),
(228,445,o),
(229,444,cs),
(235,433,o),
(236,424,o),
(228,412,cs),
(224,407,o),
(232,405,o),
(233,400,cs),
(234,393,o),
(222,390,o),
(230,381,cs),
(235,376,o),
(232,367,o),
(233,359,cs),
(233,357,o),
(234,353,o),
(233,351,c),
(226,344,o),
(224,335,o),
(224,326,cs),
(224,319,o),
(225,312,o),
(225,305,cs),
(225,40,o),
(224,33,o),
(225,28,cs),
(228,20,o),
(231,12,o),
(236,4,cs),
(240,-2,o),
(249,-1,o),
(306,1,cs),
(314,1,o),
(325,3,o),
(330,-1,cs),
(339,-9,o),
(344,5,o),
(351,4,cs),
(355,4,o),
(360,5,o),
(363,3,cs),
(371,-3,o),
(379,0,o),
(416,1,c),
(424,1,o),
(440,14,o),
(442,22,c),
(442,24,o),
(441,28,o),
(440,29,cs),
(435,34,o),
(434,40,o),
(434,46,cs),
(434,90,o),
(433,189,o),
(436,192,cs),
(442,198,o),
(443,205,o),
(443,211,c),
(443,375,ls),
(443,385,o),
(443,393,o),
(449,403,cs),
(454,411,o),
(454,422,o),
(446,431,cs),
(444,433,o),
(445,437,o),
(445,441,cs),
(445,442,o),
(446,468,o),
(445,468,c),
(441,474,o),
(441,480,o),
(445,486,cs),
(448,490,o),
(449,493,o),
(446,498,cs),
(443,505,o),
(443,513,o),
(443,520,cs),
(443,668,ls),
(443,677,o),
(443,686,o),
(442,694,cs),
(441,700,o),
(435,701,o),
(429,701,cs),
(424,701,o),
(418,699,o),
(418,693,cs),
(417,685,o),
(417,676,o),
(417,667,cs),
(417,661,o),
(417,651,o),
(418,644,c),
(418,633,o),
(410,621,o),
(408,610,c),
(408,601,o),
(419,589,o),
(417,580,cs),
(415,564,o),
(418,562,o),
(418,546,cs),
(418,538,o),
(416,529,o),
(410,522,cs),
(408,520,o),
(409,516,o),
(411,515,cs),
(415,510,o),
(418,505,o),
(417,498,c),
(417,411,l),
(407,404,o),
(420,388,o),
(415,378,c),
(405,373,o),
(420,367,o),
(413,360,cs),
(406,354,o),
(409,346,o),
(409,339,c),
(409,197,o),
(408,171,o),
(403,164,cs),
(402,163,o),
(412,139,o),
(406,130,cs),
(400,121,o),
(408,88,o),
(408,66,cs),
(408,52,o),
(414,46,o),
(400,34,cs),
(396,29,o),
(393,34,o),
(390,36,cs),
(384,39,o),
(380,37,o),
(375,34,cs),
(368,29,o),
(359,25,o),
(352,30,cs),
(346,33,o),
(340,31,o),
(332,31,cs),
(270,31,ls),
(260,31,o),
(258,34,o),
(258,43,cs),
(258,347,ls),
(258,353,o),
(261,359,o),
(264,364,cs),
(266,367,o),
(257,373,o),
(264,379,cs),
(267,382,o),
(268,390,o),
(266,393,cs),
(259,404,o),
(258,415,o),
(259,463,c),
(265,468,o),
(266,475,o),
(266,483,cs),
(266,544,o),
(266,606,o),
(267,667,cs),
(267,676,o),
(262,683,o),
(258,691,cs),
(256,697,o),
(253,699,o),
(247,699,cs),
(235,701,o),
(215,699,o),
(207,699,cs),
(196,699,o),
(185,700,o),
(174,706,cs),
(170,708,o),
(163,706,o),
(158,704,cs),
(141,698,o),
(123,697,o),
(106,704,cs),
(99,706,o),
(93,706,o),
(86,706,cs),
(73,706,o),
(61,702,o),
(49,696,cs),
(45,693,o),
(41,688,o),
(41,683,c),
(40,678,o),
(40,513,o),
(40,349,cs),
(40,216,o),
(41,83,o),
(41,38,cs),
(41,30,o),
(42,21,o),
(42,13,cs),
(42,7,o),
(44,0,o),
(50,0,c)
);
}
);
width = 492;
}
);
unicode = 78;
},
{
glyphname = Nhookleft;
lastChange = "2023-11-11 14:45:44 +0000";
layers = (
{
layerId = m01;
shapes = (
{
pos = (69,0);
ref = N;
},
{
closed = 1;
nodes = (
(142,24,o),
(116,22,o),
(116,14,c),
(103,-1,o),
(127,-87,o),
(81,-85,cs),
(74,-85,o),
(55,-86,o),
(48,-84,cs),
(35,-81,o),
(42,-89,o),
(3,-84,cs),
(-4,-83,o),
(-10,-90,o),
(-18,-86,c),
(-35,-96,o),
(-32,-103,o),
(-18,-110,c),
(-2,-120,o),
(9,-123,o),
(27,-116,cs),
(32,-114,o),
(59,-115,o),
(66,-115,cs),
(97,-116,o),
(93,-116,o),
(98,-116,cs),
(135,-114,o),
(139,-89,o),
(142,-56,cs),
(143,-43,o),
(136,-27,o),
(142,-18,cs),
(145,-13,o),
(141,4,o),
(142,8,c)
);
}
);
width = 561;
}
);
unicode = 413;
},
{
glyphname = Nlongrightleg;
lastChange = "2024-02-03 03:53:00 +0000";
layers = (
{
layerId = m01;
shapes = (
{
closed = 1;
nodes = (
(62,4,o),
(73,11,o),
(74,18,c),
(71,55,o),
(74,505,o),
(74,578,cs),
(74,592,o),
(76,586,o),
(99,592,cs),
(389,669,ls),
(426,679,o),
(428,667,o),
(428,635,c),
(428,556,o),
(428,336,o),
(428,206,cs),
(428,193,o),
(423,180,o),
(428,168,cs),
(437,145,o),
(416,124,o),
(428,101,cs),
(428,101,o),
(422,55,o),
(428,26,cs),
(440,-30,o),
(428,-69,o),
(429,-72,cs),
(430,-81,o),
(416,-90,o),
(428,-99,cs),
(429,-100,o),
(427,-104,o),
(426,-106,cs),
(414,-138,o),
(421,-158,o),
(422,-183,cs),
(422,-202,o),
(455,-208,o),
(455,-182,cs),
(455,-172,o),
(463,-139,o),
(462,-69,c),
(462,-29,l),
(462,33,o),
(464,626,o),
(464,687,c),
(462,696,o),
(452,707,o),
(408,702,cs),
(403,701,o),
(397,702,o),
(391,700,cs),
(93,623,ls),
(89,622,o),
(84,624,o),
(81,625,cs),
(76,630,o),
(77,634,o),
(79,639,cs),
(82,645,o),
(84,658,o),
(84,671,cs),
(84,684,o),
(65,705,o),
(57,698,c),
(41,682,o),
(40,677,o),
(42,675,cs),
(50,667,o),
(48,658,o),
(48,649,c),
(45,641,o),
(43,595,o),
(42,484,cs),
(42,481,o),
(38,432,o),
(42,429,cs),
(47,426,o),
(41,414,o),
(41,409,cs),
(41,393,o),
(48,383,o),
(41,365,cs),
(35,350,o),
(41,335,o),
(41,320,cs),
(41,308,o),
(46,295,o),
(41,283,cs),
(35,269,o),
(41,255,o),
(41,241,cs),
(40,140,o),
(40,51,o),
(40,11,cs),
(40,6,o),
(45,3,o),
(52,3,cs)
);
},
{
closed = 1;
nodes = (
(269,292,o),
(277,298,o),
(285,308,cs),
(290,315,o),
(290,324,o),
(285,331,cs),
(275,341,o),
(262,355,o),
(248,355,cs),
(224,355,o),
(216,332,o),
(216,323,cs),
(216,307,o),
(231,294,o),
(256,294,cs)
);
},
{
closed = 1;
nodes = (
(247,317,o),
(244,320,o),
(244,324,cs),
(244,326,o),
(245,333,o),
(251,333,cs),
(255,333,o),
(259,330,o),
(261,326,cs),
(262,325,o),
(262,323,o),
(261,320,cs),
(259,318,o),
(257,316,o),
(254,317,cs)
);
}
);
width = 504;
}
);
unicode = 544;
},
{
glyphname = Eng;
lastChange = "2023-12-16 08:10:40 +0000";
layers = (
{
layerId = m01;
shapes = (
{
closed = 1;
nodes = (
(388,-111,o),
(413,-113,o),
(414,-112,cs),
(428,-109,o),
(436,-101,o),
(436,-94,c),
(434,-62,o),
(442,-36,o),
(441,-29,cs),
(438,-10,o),
(441,23,o),
(436,25,cs),
(420,31,o),
(413,32,o),
(412,31,cs),
(412,18,o),
(410,16,o),
(412,6,cs),
(419,-19,o),
(408,-24,o),
(409,-47,cs),
(410,-56,o),
(408,-70,o),
(404,-80,cs),
(402,-88,o),
(373,-88,o),
(361,-87,cs),
(330,-84,o),
(315,-86,o),
(307,-88,cs),
(286,-92,o),
(301,-107,o),
(308,-110,cs),
(315,-113,o),
(358,-115,o),
(377,-113,cs)
);
},
{
ref = N;
}
);
width = 492;
}
);
unicode = 330;
},
{
glyphname = O;
lastChange = "2024-02-03 09:43:43 +0000";
layers = (
{
anchors = (
{
name = bottom;
pos = (238,9);
},
{
name = center;
pos = (238,350);
},
{
name = ogonek;
pos = (382,1);
},
{
name = top;
pos = (248,700);
},
{
name = topleft;
pos = (38,701);
},
{
name = topright;
pos = (361,1071);
}
);
layerId = m01;
shapes = (
{
closed = 1;
nodes = (
(160,0,o),
(171,1,o),
(179,-3,cs),
(190,-10,o),
(195,0,o),
(205,0,cs),
(310,0,o),
(320,-2,o),
(327,1,cs),
(337,4,o),
(343,-13,o),
(353,3,c),
(362,-3,o),
(372,-3,o),
(382,-3,cs),
(414,-3,ls),
(422,-3,o),
(432,1,o),
(439,7,cs),
(442,9,o),
(442,17,o),
(442,22,cs),
(442,163,o),
(443,220,o),
(443,379,cs),
(443,389,o),
(444,400,o),
(450,409,c),
(452,411,o),
(443,420,o),
(445,423,c),
(447,429,o),
(451,434,o),
(451,442,cs),
(451,581,ls),
(451,587,o),
(450,592,o),
(446,597,cs),
(440,604,o),
(451,606,o),
(451,611,cs),
(451,646,ls),
(451,660,o),
(450,672,o),
(450,684,cs),
(450,690,o),
(442,697,o),
(436,700,cs),
(432,702,o),
(425,700,o),
(420,700,cs),
(78,700,ls),
(72,700,o),
(66,701,o),
(61,700,cs),
(55,700,o),
(45,688,o),
(45,681,cs),
(45,629,ls),
(45,619,o),
(46,609,o),
(45,600,c),
(34,592,o),
(45,586,o),
(45,578,cs),
(45,477,ls),
(45,472,o),
(38,465,o),
(40,463,cs),
(45,457,o),
(45,450,o),
(45,444,c),
(45,22,ls),
(45,9,o),
(54,0,o),
(66,0,c)
);
},
{
closed = 1;
nodes = (
(266,317,o),
(274,340,o),
(274,349,cs),
(274,365,o),
(259,378,o),
(234,378,cs),
(221,380,o),
(213,374,o),
(205,364,cs),
(200,357,o),
(200,348,o),
(205,341,cs),
(215,331,o),
(228,317,o),
(242,317,cs)
);
},
{
closed = 1;
nodes = (
(235,339,o),
(231,342,o),
(229,346,cs),
(228,347,o),
(228,349,o),
(229,352,cs),
(231,354,o),
(233,356,o),
(236,355,cs),
(243,355,o),
(246,352,o),
(246,348,cs),
(246,346,o),
(245,339,o),
(239,339,cs)
);
},
{
closed = 1;
nodes = (
(179,33,o),
(170,34,o),
(161,34,cs),
(78,34,ls),
(73,34,o),
(68,42,o),
(72,46,cs),
(78,54,o),
(79,62,o),
(79,73,cs),
(79,120,ls),
(79,128,o),
(78,136,o),
(72,143,c),
(71,145,o),
(72,151,o),
(74,154,cs),
(83,167,o),
(83,180,o),
(76,194,cs),
(72,205,o),
(71,212,o),
(78,220,c),
(80,221,o),
(79,226,o),
(78,228,c),
(72,234,o),
(71,240,o),
(71,247,cs),
(71,269,o),
(70,279,o),
(78,287,c),
(79,289,o),
(78,296,o),
(76,298,cs),
(70,304,o),
(72,311,o),
(70,318,cs),
(68,328,o),
(84,337,o),
(71,347,c),
(71,647,l),
(72,654,o),
(82,665,o),
(89,665,cs),
(401,665,ls),
(417,665,o),
(417,665,o),
(417,646,cs),
(417,490,ls),
(417,481,o),
(417,474,o),
(412,466,cs),
(406,458,o),
(407,447,o),
(412,438,cs),
(415,432,o),
(416,429,o),
(412,424,cs),
(410,422,o),
(407,415,o),
(409,413,cs),
(415,405,o),
(419,399,o),
(412,390,cs),
(409,387,o),
(406,378,o),
(409,375,c),
(415,366,o),
(417,355,o),
(417,241,cs),
(417,233,o),
(415,225,o),
(409,219,cs),
(407,217,o),
(410,213,o),
(409,211,cs),
(406,202,o),
(421,194,o),
(409,186,c),
(409,49,l),
(409,42,o),
(408,35,o),
(404,28,c),
(389,28,o),
(374,27,o),
(358,27,cs),
(257,26,ls),
(248,26,o),
(238,24,o),
(229,31,cs),
(226,33,o),
(216,25,o),
(211,27,cs),
(205,29,o),
(200,35,o),
(194,27,c),
(192,26,o),
(187,25,o),
(186,26,cs)
);
}
);
width = 491;
}
);
unicode = 79;
},
{
glyphname = OU;
lastChange = "2024-02-10 08:43:04 +0000";
layers = (
{
layerId = m01;
shapes = (
{
closed = 1;
nodes = (
(122,421,o),
(138,423,o),
(154,423,cs),
(185,423,o),
(476,419,o),
(511,422,cs),
(521,422,o),
(537,432,o),
(537,439,cs),
(539,446,o),
(548,519,o),
(537,541,cs),
(526,563,o),
(537,550,o),
(537,578,cs),
(537,591,o),
(522,605,o),
(540,621,c),
(520,657,o),
(540,642,o),
(540,679,cs),
(540,702,o),
(524,708,o),
(511,696,cs),
(503,689,o),
(506,672,o),
(506,665,cs),
(504,589,o),
(507,538,o),
(507,490,cs),
(507,483,o),
(509,458,o),
(502,454,cs),
(467,440,o),
(129,450,o),
(111,451,c),
(105,460,o),
(102,468,o),
(102,475,cs),
(102,513,o),
(104,532,o),
(104,539,c),
(104,560,l),
(105,548,o),
(102,558,o),
(101,567,cs),
(96,597,o),
(104,594,o),
(104,618,cs),
(104,681,ls),
(104,707,o),
(71,706,o),
(71,680,cs),
(71,442,ls),
(71,427,o),
(91,423,o),
(102,414,c)
);
},
{
closed = 1;
nodes = (
(280,-10,o),
(317,-17,o),
(334,-3,cs),
(347,8,o),
(375,29,o),
(390,38,cs),
(396,40,o),
(393,45,o),
(398,48,cs),
(404,53,o),
(420,55,o),
(418,69,c),
(450,93,o),
(469,99,o),
(469,109,c),
(493,119,o),
(501,133,o),
(523,144,cs),
(556,161,o),
(565,180,o),
(593,197,cs),
(598,200,o),
(598,204,o),
(592,208,cs),
(567,223,o),
(559,239,o),
(527,257,cs),
(520,261,o),
(513,265,o),
(513,269,cs),
(511,278,o),
(500,283,o),
(493,288,cs),
(483,297,o),
(437,328,o),
(428,337,cs),
(420,345,o),
(406,353,o),
(400,362,cs),
(393,372,o),
(377,380,o),
(364,389,cs),
(345,408,o),
(335,414,o),
(311,422,cs),
(305,424,o),
(297,424,o),
(290,421,cs),
(275,417,o),
(271,410,o),
(265,404,cs),
(262,401,o),
(264,398,o),
(257,396,cs),
(240,389,o),
(235,381,o),
(225,374,cs),
(212,366,o),
(202,358,o),
(188,351,cs),
(175,345,o),
(184,337,o),
(167,333,c),
(164,323,o),
(58,258,o),
(26,231,cs),
(19,225,o),
(13,219,o),
(10,212,cs),
(10,204,o),
(59,162,o),
(78,149,cs),
(91,139,o),
(109,131,o),
(109,121,c),
(155,88,l),
(187,73,o),
(211,51,o),
(232,35,cs),
(241,28,o),
(252,22,o),
(255,15,c),
(264,5,l)
);
},
{
closed = 1;
nodes = (
(323,178,o),
(341,202,o),
(338,209,c),
(332,221,o),
(326,232,o),
(312,239,c),
(300,243,o),
(297,235,o),
(289,234,c),
(279,233,o),
(263,217,o),
(266,210,c),
(270,200,o),
(273,189,o),
(280,181,c),
(283,178,o),
(294,178,o),
(316,178,cs)
);
},
{
closed = 1;
nodes = (
(300,200,o),
(297,200,o),
(296,202,c),
(294,204,o),
(292,208,o),
(291,211,c),
(290,213,o),
(295,217,o),
(298,218,c),
(301,218,o),
(301,221,o),
(305,219,c),
(309,217,o),
(310,214,o),
(313,210,c),
(314,209,o),
(308,200,o),
(306,200,cs)
);
},
{
closed = 1;
nodes = (
(265,40,o),
(243,74,o),
(206,90,cs),
(194,95,o),
(188,105,o),
(172,109,cs),
(158,114,o),
(167,120,o),
(159,125,cs),
(138,138,o),
(125,153,o),
(107,170,cs),
(98,178,o),
(80,178,o),
(80,184,cs),
(80,189,o),
(52,203,o),
(51,208,cs),
(48,215,o),
(69,225,o),
(72,230,cs),
(97,254,o),
(140,269,o),
(166,295,c),
(186,301,o),
(190,308,o),
(199,316,cs),
(207,327,o),
(261,367,o),
(284,373,c),
(295,382,o),
(298,387,o),
(310,390,c),
(326,379,o),
(360,348,o),
(380,339,cs),
(403,326,o),
(476,268,o),
(481,260,cs),
(486,253,o),
(499,249,o),
(501,243,cs),
(501,240,o),
(508,238,o),
(512,235,c),
(553,203,l),
(546,196,o),
(537,193,o),
(520,176,cs),
(509,161,o),
(493,154,o),
(473,145,cs),
(462,137,o),
(463,129,o),
(446,124,c),
(443,116,o),
(421,111,o),
(416,105,cs),
(410,99,o),
(381,75,o),
(372,66,cs),
(359,53,o),
(359,43,o),
(339,38,cs),
(325,34,o),
(332,26,o),
(318,20,cs),
(305,15,o),
(302,13,o),
(293,19,cs)
);
}
);
width = 607;
}
);
unicode = 546;
},
{
glyphname = Ocenteredtilde;
lastChange = "2023-11-11 16:38:49 +0000";
layers = (
{
layerId = m01;
shapes = (
{
ref = O;
},
{
closed = 1;
nodes = (
(327,330,o),
(332,331,o),
(335,332,cs),
(342,337,o),
(348,337,o),
(355,337,cs),
(376,334,o),
(384,334,o),
(404,337,cs),
(407,336,o),
(417,337,o),
(418,337,c),
(436,337,o),
(436,362,o),
(428,363,c),
(419,363,o),
(395,363,o),
(390,363,cs),
(372,362,o),
(370,361,o),
(352,364,cs),
(345,364,o),
(338,364,o),
(332,364,cs),
(325,364,o),
(318,366,o),
(311,366,cs),
(308,366,o),
(304,365,o),
(301,364,cs),
(299,362,o),
(299,357,o),
(296,356,cs),
(293,355,o),
(293,333,o),
(296,332,cs),
(305,328,o),
(315,331,o),
(323,330,cs)
);
},
{
closed = 1;
nodes = (
(83,327,o),
(88,328,o),
(91,330,cs),
(98,334,o),
(104,334,o),
(111,333,cs),
(132,331,o),
(140,331,o),
(160,333,cs),
(163,333,o),
(173,334,o),
(174,334,c),
(192,334,o),
(192,359,o),
(184,360,c),
(175,360,o),
(151,360,o),
(146,360,cs),
(128,359,o),
(74,360,o),
(67,360,cs),
(64,360,o),
(60,359,o),
(57,357,cs),
(55,356,o),
(55,351,o),
(52,350,cs),
(49,349,o),
(49,330,o),
(52,329,cs),
(61,325,o),
(71,328,o),
(79,327,cs)
);
}
);
width = 491;
}
);
unicode = 415;
},
{
glyphname = Oslash;
lastChange = "2023-11-03 10:39:56 +0000";
layers = (
{
anchors = (
{
name = bottom;
pos = (276,0);
},
{
name = top;
pos = (276,700);
}
);
layerId = m01;
shapes = (
{
closed = 1;
nodes = (
(444,3,ls),
(452,3,o),
(462,10,o),
(469,16,cs),
(472,18,o),
(472,26,o),
(472,31,cs),
(472,172,o),
(473,220,o),
(473,379,cs),
(473,389,o),
(474,400,o),
(480,409,c),
(482,411,o),
(473,420,o),
(475,423,c),
(477,429,o),
(481,434,o),
(481,442,cs),
(481,581,ls),
(481,587,o),
(480,592,o),
(476,597,cs),
(470,604,o),
(481,606,o),
(481,611,cs),
(481,646,ls),
(481,658,o),
(480,670,o),
(480,682,cs),
(480,688,o),
(472,695,o),
(466,698,cs),
(462,700,o),
(455,698,o),
(450,698,cs),
(108,698,ls),
(102,698,o),
(96,699,o),
(91,698,cs),
(85,698,o),
(75,686,o),
(75,679,cs),
(75,629,ls),
(75,619,o),
(76,609,o),
(75,600,c),
(64,592,o),
(75,586,o),
(75,578,cs),
(75,477,ls),
(75,472,o),
(68,465,o),
(70,463,cs),
(75,457,o),
(75,450,o),
(75,444,c),
(75,34,ls),
(75,21,o),
(84,12,o),
(96,12,c),
(190,12,o),
(201,13,o),
(209,9,cs),
(220,2,o),
(225,12,o),
(235,12,cs),
(340,12,o),
(350,9,o),
(357,12,cs),
(367,15,o),
(373,-2,o),
(383,12,c),
(392,6,o),
(402,3,o),
(412,3,cs)
);
},
{
closed = 1;
nodes = (
(209,45,o),
(200,46,o),
(191,46,cs),
(108,46,ls),
(103,46,o),
(98,54,o),
(102,58,cs),
(108,66,o),
(109,73,o),
(109,82,cs),
(109,120,ls),
(109,128,o),
(108,136,o),
(102,143,c),
(101,145,o),
(102,151,o),
(104,154,cs),
(113,167,o),
(113,180,o),
(106,194,cs),
(102,205,o),
(101,212,o),
(108,220,c),
(110,221,o),
(109,226,o),
(108,228,c),
(102,234,o),
(101,240,o),
(101,247,cs),
(101,269,o),
(100,279,o),
(108,287,c),
(109,289,o),
(108,296,o),
(106,298,cs),
(100,304,o),
(102,311,o),
(100,318,cs),
(98,328,o),
(114,337,o),
(101,347,c),
(101,647,l),
(102,654,o),
(112,663,o),
(119,663,cs),
(431,663,ls),
(447,663,o),
(447,663,o),
(447,646,cs),
(447,490,ls),
(447,481,o),
(447,474,o),
(442,466,cs),
(436,458,o),
(437,447,o),
(442,438,cs),
(445,432,o),
(446,429,o),
(442,424,cs),
(440,422,o),
(437,415,o),
(439,413,cs),
(445,405,o),
(449,399,o),
(442,390,cs),
(439,387,o),
(436,378,o),
(439,375,c),
(445,366,o),
(447,355,o),
(447,241,cs),
(447,233,o),
(445,225,o),
(439,219,cs),
(437,217,o),
(440,213,o),
(439,211,cs),
(436,202,o),
(451,194,o),
(439,186,c),
(439,60,l),
(439,53,o),
(438,46,o),
(434,39,c),
(419,39,o),
(404,38,o),
(388,38,cs),
(287,38,ls),
(278,38,o),
(268,36,o),
(259,43,cs),
(256,45,o),
(246,37,o),
(241,39,cs),
(235,41,o),
(230,47,o),
(224,39,c),
(222,38,o),
(217,37,o),
(216,38,cs)
);
},
{
angle = -12.21966;
pos = (88,111);
ref = slash;
}
);
width = 551;
}
);
unicode = 216;
},
{
glyphname = OE;
lastChange = "2024-01-17 15:21:18 +0000";
layers = (
{
anchors = (
{
name = bottom;
pos = (320,0);
},
{
name = top;
pos = (320,700);
}
);
layerId = m01;
shapes = (
{
closed = 1;
nodes = (
(587,649,o),
(607,668,o),
(631,664,c),
(635,670,o),
(639,674,o),
(631,681,cs),
(625,686,o),
(617,689,o),
(593,696,c),
(574,697,o),
(537,692,o),
(517,689,cs),
(509,689,o),
(498,688,o),
(493,691,cs),
(481,695,o),
(473,696,o),
(462,693,c),
(449,702,o),
(410,699,o),
(397,700,cs),
(385,702,o),
(376,696,o),
(364,695,c),
(356,667,l),
(401,668,o),
(445,666,o),
(491,666,c),
(502,659,o),
(514,656,o),
(527,664,c),
(539,659,o),
(552,654,o),
(564,663,c)
);
},
{
closed = 1;
nodes = (
(291,0,o),
(372,1,o),
(379,7,cs),
(382,9,o),
(382,17,o),
(382,22,cs),
(382,163,o),
(383,220,o),
(383,379,cs),
(383,389,o),
(384,400,o),
(390,409,c),
(392,411,o),
(383,420,o),
(385,423,c),
(387,429,o),
(391,434,o),
(391,442,cs),
(391,581,ls),
(391,587,o),
(390,592,o),
(386,597,cs),
(380,604,o),
(391,606,o),
(391,611,cs),
(391,646,ls),
(391,658,o),
(390,670,o),
(390,682,cs),
(390,688,o),
(382,695,o),
(376,698,cs),
(372,700,o),
(365,698,o),
(360,698,cs),
(78,698,ls),
(72,698,o),
(66,699,o),
(61,698,cs),
(55,698,o),
(45,686,o),
(45,679,cs),
(45,629,ls),
(45,619,o),
(46,609,o),
(45,600,c),
(34,592,o),
(45,586,o),
(45,578,cs),
(45,477,ls),
(45,472,o),
(38,465,o),
(40,463,cs),
(45,457,o),
(45,450,o),
(45,444,c),
(45,25,ls),
(45,12,o),
(54,3,o),
(66,3,c),
(160,3,o),
(171,4,o),
(179,0,cs),
(190,-7,o),
(195,3,o),
(205,3,c),
(239,3,l)
);
},
{
closed = 1;
nodes = (
(246,317,o),
(254,340,o),
(254,349,cs),
(254,365,o),
(239,378,o),
(214,378,cs),
(201,380,o),
(193,374,o),
(185,364,cs),
(180,357,o),
(180,348,o),
(185,341,cs),
(195,331,o),
(208,317,o),
(222,317,cs)
);
},
{
closed = 1;
nodes = (
(215,339,o),
(211,342,o),
(209,346,cs),
(208,347,o),
(208,349,o),
(209,352,cs),
(211,354,o),
(213,356,o),
(216,355,cs),
(223,355,o),
(226,352,o),
(226,348,cs),
(226,346,o),
(225,339,o),
(219,339,cs)
);
},
{
closed = 1;
nodes = (
(179,36,o),
(170,37,o),
(161,37,cs),
(78,37,ls),
(73,37,o),
(68,45,o),
(72,49,cs),
(78,57,o),
(79,64,o),
(79,73,cs),
(79,120,ls),
(79,128,o),
(78,136,o),
(72,143,c),
(71,145,o),
(72,151,o),
(74,154,cs),
(83,167,o),
(83,180,o),
(76,194,cs),
(72,205,o),
(71,212,o),
(78,220,c),
(80,221,o),
(79,226,o),
(78,228,c),
(72,234,o),
(71,240,o),
(71,247,cs),
(71,269,o),
(70,279,o),
(78,287,c),
(79,289,o),
(78,296,o),
(76,298,cs),
(70,304,o),
(72,311,o),
(70,318,cs),
(68,328,o),
(84,337,o),
(71,347,c),
(71,647,l),
(72,654,o),
(82,663,o),
(89,663,cs),
(341,663,ls),
(357,663,o),
(357,663,o),
(357,646,cs),
(357,490,ls),
(357,481,o),
(357,474,o),
(352,466,cs),
(346,458,o),
(347,447,o),
(352,438,cs),
(355,432,o),
(356,429,o),
(352,424,cs),
(350,422,o),
(347,415,o),
(349,413,cs),
(355,405,o),
(359,399,o),
(352,390,cs),
(349,387,o),
(346,378,o),
(349,375,c),
(355,366,o),
(357,355,o),
(357,241,cs),
(357,233,o),
(355,225,o),
(349,219,cs),
(347,217,o),
(350,213,o),
(349,211,cs),
(346,202,o),
(361,194,o),
(349,186,c),
(349,51,l),
(349,44,o),
(348,37,o),
(344,30,c),
(329,30,o),
(314,29,o),
(298,29,cs),
(257,29,ls),
(248,29,o),
(238,27,o),
(229,34,cs),
(226,36,o),
(216,28,o),
(211,30,cs),
(205,32,o),
(200,38,o),
(194,30,c),
(192,29,o),
(187,28,o),
(186,29,cs)
);
},
{
closed = 1;
nodes = (
(423,4,o),
(531,7,o),
(603,7,cs),
(612,7,o),
(622,11,o),
(626,16,cs),
(633,20,o),
(633,24,o),
(635,31,c),
(632,32,o),
(625,43,o),
(600,41,cs),
(594,40,o),
(571,39,o),
(565,39,cs),
(513,39,o),
(426,38,o),
(374,38,cs),
(359,38,o),
(339,36,o),
(350,3,c)
);
},
{
closed = 1;
nodes = (
(413,330,o),
(419,331,o),
(422,332,cs),
(431,337,o),
(438,337,o),
(446,337,cs),
(470,334,o),
(480,334,o),
(504,337,cs),
(508,336,o),
(519,337,o),
(520,337,c),
(541,337,o),
(542,362,o),
(532,363,c),
(521,363,o),
(493,363,o),
(487,363,cs),
(466,362,o),
(463,361,o),
(443,364,cs),
(434,364,o),
(426,364,o),
(419,364,cs),
(411,364,o),
(402,366,o),
(395,366,cs),
(390,366,o),
(386,365,o),
(383,364,cs),
(380,362,o),
(380,357,o),
(377,356,cs),
(373,355,o),
(373,333,o),
(377,332,cs),
(387,328,o),
(398,331,o),
(409,330,cs)
);
},
{
closed = 1;
nodes = (
(601,305,o),
(624,322,o),
(633,334,cs),
(637,339,o),
(639,344,o),
(639,350,cs),
(639,361,o),
(630,376,o),
(621,378,cs),
(607,380,o),
(579,382,o),
(579,362,cs),
(579,347,o),
(562,344,o),
(573,333,cs),
(587,319,ls)
);
},
{
closed = 1;
nodes = (
(596,343,ls),
(593,346,o),
(598,346,o),
(598,351,cs),
(598,356,o),
(605,356,o),
(609,355,cs),
(612,354,o),
(614,350,o),
(614,347,cs),
(614,346,o),
(614,344,o),
(612,343,cs),
(610,340,o),
(604,335,o),
(600,339,cs)
);
}
);
width = 639;
}
);
metricLeft = O;
metricRight = E;
unicode = 338;
},
{
glyphname = P;
lastChange = "2024-02-03 09:38:12 +0000";
layers = (
{
anchors = (
{
name = bottom;
pos = (247,0);
},
{
name = top;
pos = (247,700);
}
);
layerId = m01;
shapes = (
{
closed = 1;
nodes = (
(68,14,o),
(78,22,o),
(78,32,cs),
(78,37,o),
(74,47,o),
(76,61,c),
(74,103,o),
(82,138,o),
(82,146,cs),
(81,162,o),
(87,191,o),
(76,211,cs),
(72,218,o),
(73,226,o),
(79,232,cs),
(84,237,o),
(83,241,o),
(79,245,cs),
(75,249,o),
(72,253,o),
(76,258,cs),
(80,262,o),
(81,266,o),
(77,270,c),
(74,275,o),
(85,280,o),
(77,286,cs),
(72,289,o),
(74,301,o),
(75,306,c),
(89,308,o),
(106,313,o),
(116,308,c),
(144,306,o),
(350,306,o),
(424,313,c),
(434,313,o),
(445,321,o),
(443,329,cs),
(439,348,o),
(459,357,o),
(446,370,c),
(455,378,o),
(450,385,o),
(445,393,c),
(455,400,o),
(452,426,o),
(444,433,c),
(444,461,o),
(444,489,o),
(445,515,c),
(446,521,o),
(453,545,o),
(453,552,cs),
(452,592,o),
(452,641,o),
(452,682,cs),
(452,691,o),
(443,699,o),
(434,699,cs),
(425,700,o),
(417,700,o),
(173,700,cs),
(164,700,o),
(153,696,o),
(148,700,c),
(139,706,o),
(119,705,o),
(99,704,cs),
(74,702,o),
(48,695,o),
(49,684,cs),
(49,676,o),
(48,644,o),
(48,326,cs),
(48,321,o),
(47,299,o),
(41,293,c),
(40,293,o),
(49,273,o),
(44,268,cs),
(40,263,o),
(38,259,o),
(43,254,cs),
(47,251,o),
(48,246,o),
(48,241,cs),
(50,162,o),
(47,147,o),
(47,139,c),
(36,134,o),
(50,126,o),
(44,120,cs),
(37,113,o),
(52,110,o),
(48,104,c),
(41,97,o),
(40,88,o),
(40,79,cs),
(40,76,o),
(44,21,o),
(47,7,cs),
(49,0,o),
(59,-2,o),
(63,5,cs)
);
},
{
closed = 1;
nodes = (
(247,464,o),
(270,481,o),
(279,493,cs),
(283,498,o),
(285,503,o),
(285,509,cs),
(285,520,o),
(276,535,o),
(267,537,cs),
(253,539,o),
(225,541,o),
(225,521,cs),
(225,506,o),
(208,503,o),
(219,492,cs),
(233,478,ls)
);
},
{
closed = 1;
nodes = (
(80,347,o),
(81,361,o),
(82,381,cs),
(82,498,o),
(83,527,o),
(79,533,cs),
(71,543,o),
(86,547,o),
(83,557,cs),
(76,575,o),
(88,586,o),
(75,600,c),
(74,611,o),
(71,619,o),
(80,628,cs),
(82,630,o),
(82,636,o),
(80,638,cs),
(74,645,o),
(83,676,o),
(90,671,cs),
(98,664,o),
(102,678,o),
(108,674,cs),
(117,668,o),
(126,669,o),
(135,669,cs),
(142,669,o),
(149,670,o),
(156,670,cs),
(232,669,o),
(298,669,o),
(409,669,cs),
(416,669,o),
(418,665,o),
(418,659,cs),
(418,560,o),
(416,544,o),
(419,537,cs),
(424,526,o),
(405,519,o),
(416,509,c),
(414,503,o),
(408,497,o),
(410,489,cs),
(412,479,o),
(405,457,o),
(416,449,c),
(406,431,o),
(423,443,o),
(418,416,c),
(407,359,o),
(410,391,o),
(410,351,cs),
(410,347,o),
(407,344,o),
(402,343,c),
(373,343,o),
(108,336,o),
(79,336,c)
);
},
{
closed = 1;
nodes = (
(242,502,ls),
(239,505,o),
(244,505,o),
(244,510,cs),
(244,515,o),
(251,515,o),
(255,514,cs),
(258,513,o),
(260,509,o),
(260,506,cs),
(260,505,o),
(260,503,o),
(258,502,c),
(256,499,o),
(250,494,o),
(246,498,cs)
);
}
);
width = 493;
}
);
unicode = 80;
},
{
glyphname = Phook;
lastChange = "2023-12-16 08:12:23 +0000";
layers = (
{
layerId = m01;
shapes = (
{
pos = (70,0);
ref = P;
},
{
closed = 1;
nodes = (
(1,562,o),
(27,564,o),
(27,572,c),
(40,587,o),
(16,673,o),
(62,671,cs),
(69,671,o),
(88,672,o),
(95,670,cs),
(108,667,o),
(101,675,o),
(140,670,cs),
(147,669,o),
(153,676,o),
(161,672,c),
(178,682,o),
(175,689,o),
(161,696,c),
(145,706,o),
(134,709,o),
(116,702,cs),
(111,700,o),
(84,701,o),
(77,701,cs),
(46,702,o),
(50,702,o),
(45,702,cs),
(8,700,o),
(4,675,o),
(1,642,cs),
(0,629,o),
(7,613,o),
(1,604,cs),
(-2,599,o),
(2,582,o),
(1,578,c)
);
}
);
width = 563;
}
);
unicode = 420;
},
{
glyphname = Thorn;
lastChange = "2024-01-29 14:04:10 +0000";
layers = (
{
layerId = m01;
shapes = (
{
closed = 1;
nodes = (
(76,16,o),
(71,42,o),
(77,77,c),
(77,119,o),
(76,153,o),
(74,190,c),
(93,189,o),
(144,190,o),
(151,189,cs),
(161,189,o),
(172,190,o),
(179,187,cs),
(190,180,o),
(195,191,o),
(205,190,cs),
(220,189,o),
(297,189,o),
(305,192,cs),
(314,195,o),
(322,181,o),
(331,193,c),
(350,181,o),
(367,187,o),
(390,187,cs),
(399,187,o),
(408,192,o),
(417,197,cs),
(420,199,o),
(420,207,o),
(420,211,cs),
(420,557,ls),
(420,563,o),
(412,565,o),
(406,565,cs),
(323,566,o),
(176,569,o),
(72,566,c),
(71,602,o),
(73,580,o),
(73,653,cs),
(73,686,o),
(64,694,o),
(62,699,c),
(55,697,o),
(51,694,o),
(47,688,cs),
(43,680,o),
(40,668,o),
(40,657,cs),
(41,600,o),
(42,595,o),
(42,458,cs),
(42,424,o),
(47,387,o),
(47,375,cs),
(47,358,o),
(47,377,o),
(47,359,cs),
(47,236,ls),
(47,227,o),
(47,217,o),
(47,209,cs),
(47,208,ls),
(47,194,o),
(43,179,o),
(50,165,c),
(46,148,o),
(41,111,o),
(50,95,c),
(37,70,o),
(56,42,o),
(53,8,c),
(59,2,o),
(64,-5,o),
(71,7,cs)
);
},
{
closed = 1;
nodes = (
(247,213,o),
(237,211,o),
(228,217,cs),
(225,219,o),
(216,213,o),
(211,214,cs),
(205,216,o),
(200,221,o),
(194,215,cs),
(192,213,o),
(187,213,o),
(186,214,cs),
(179,219,o),
(106,217,o),
(83,217,cs),
(81,217,o),
(79,218,o),
(77,220,c),
(78,224,o),
(79,243,o),
(79,249,cs),
(79,256,o),
(79,271,o),
(78,288,cs),
(79,312,o),
(77,340,o),
(78,353,cs),
(79,358,o),
(78,366,o),
(78,390,cs),
(78,397,o),
(76,402,o),
(74,408,cs),
(69,417,o),
(68,423,o),
(76,430,c),
(82,442,o),
(81,503,o),
(73,514,c),
(73,522,ls),
(73,526,o),
(75,530,o),
(77,535,c),
(91,536,o),
(124,538,o),
(139,538,cs),
(149,538,o),
(159,541,o),
(168,532,c),
(182,529,o),
(189,543,o),
(197,532,c),
(207,532,o),
(336,538,o),
(345,537,cs),
(359,535,o),
(386,534,o),
(390,534,c),
(390,471,o),
(392,434,o),
(391,289,cs),
(391,281,o),
(391,225,o),
(387,218,c),
(336,217,o),
(272,213,o),
(256,213,cs)
);
}
);
width = 460;
}
);
unicode = 222;
},
{
glyphname = Pstroke;
lastChange = "2023-11-11 16:55:35 +0000";
layers = (
{
layerId = m01;
shapes = (
{
pos = (-3,0);
ref = P;
},
{
closed = 1;
nodes = (
(-43,524,o),
(-50,493,o),
(-17,493,cs),
(-3,493,o),
(30,494,o),
(42,492,cs),
(66,489,o),
(52,497,o),
(122,492,cs),
(135,491,o),
(147,498,o),
(159,494,c),
(190,504,o),
(185,511,o),
(159,518,c),
(131,528,o),
(111,531,o),
(79,524,cs),
(71,522,o),
(49,517,o),
(27,523,cs),
(15,526,o),
(-14,524,o),
(-22,524,cs)
);
}
);
width = 490;
}
);
unicode = 11363;
},
{
glyphname = Q;
lastChange = "2024-02-03 09:44:28 +0000";
layers = (
{
anchors = (
{
name = bottom;
pos = (249,0);
},
{
name = top;
pos = (249,700);
}
);
layerId = m01;
shapes = (
{
closed = 1;
nodes = (
(134,0,o),
(171,1,o),
(179,-3,cs),
(190,-10,o),
(196,0,o),
(205,0,cs),
(302,0,ls),
(310,0,o),
(320,2,o),
(327,5,cs),
(337,8,o),
(343,-9,o),
(352,5,c),
(361,-1,o),
(370,-1,o),
(380,-1,c),
(394,-21,o),
(416,-58,o),
(428,-77,cs),
(439,-94,o),
(450,-108,o),
(464,-121,c),
(466,-123,o),
(482,-131,o),
(477,-109,cs),
(476,-104,o),
(474,-99,o),
(472,-95,cs),
(466,-84,o),
(445,-56,o),
(445,-53,cs),
(442,-30,o),
(430,-22,o),
(416,-1,c),
(431,3,o),
(442,10,o),
(442,22,cs),
(442,420,ls),
(442,430,o),
(443,441,o),
(449,450,c),
(451,452,o),
(442,461,o),
(444,464,c),
(446,470,o),
(450,475,o),
(450,483,cs),
(450,582,ls),
(450,587,o),
(449,593,o),
(445,597,cs),
(440,604,o),
(450,606,o),
(450,611,cs),
(450,659,o),
(449,671,o),
(449,682,cs),
(449,687,o),
(441,694,o),
(436,697,cs),
(431,699,o),
(425,697,o),
(419,697,cs),
(78,697,ls),
(73,697,o),
(67,698,o),
(61,697,cs),
(56,697,o),
(46,686,o),
(46,679,cs),
(44,608,o),
(46,586,o),
(46,518,cs),
(46,513,o),
(39,506,o),
(40,504,cs),
(45,497,o),
(46,491,o),
(46,484,cs),
(46,22,ls),
(46,9,o),
(55,0,o),
(67,0,cs)
);
},
{
closed = 1;
nodes = (
(357,80,o),
(256,232,o),
(253,236,c),
(294,236,ls),
(301,236,o),
(308,233,o),
(313,236,cs),
(321,241,o),
(326,222,o),
(333,233,c),
(338,232,o),
(342,226,o),
(347,227,cs),
(357,229,o),
(370,223,o),
(376,233,c),
(386,223,o),
(380,241,o),
(400,236,cs),
(403,235,o),
(405,232,o),
(408,230,c),
(411,44,l),
(411,38,o),
(413,28,o),
(404,29,c),
(392,31,l)
);
},
{
closed = 1;
nodes = (
(179,33,o),
(170,34,o),
(161,34,cs),
(79,34,ls),
(73,34,o),
(69,42,o),
(73,46,c),
(78,54,o),
(80,61,o),
(80,70,cs),
(80,91,o),
(80,182,o),
(80,203,cs),
(80,212,o),
(79,220,o),
(73,227,cs),
(71,229,o),
(72,233,o),
(74,236,cs),
(83,249,o),
(82,263,o),
(77,278,cs),
(72,288,o),
(71,295,o),
(79,303,c),
(78,311,l),
(71,352,o),
(70,362,o),
(78,370,cs),
(80,372,o),
(78,378,o),
(76,381,cs),
(71,387,o),
(72,394,o),
(71,401,cs),
(69,411,o),
(84,420,o),
(72,430,c),
(72,405,o),
(70,632,o),
(72,648,cs),
(72,654,o),
(82,664,o),
(89,664,cs),
(96,665,o),
(103,664,o),
(110,664,cs),
(400,664,ls),
(416,664,o),
(416,663,o),
(416,646,cs),
(416,531,ls),
(416,522,o),
(416,515,o),
(411,507,cs),
(405,499,o),
(406,488,o),
(411,479,cs),
(414,474,o),
(415,471,o),
(411,465,cs),
(399,453,o),
(423,446,o),
(411,432,cs),
(408,428,o),
(405,420,o),
(408,417,c),
(416,391,o),
(413,293,o),
(408,268,cs),
(408,267,o),
(405,264,o),
(404,263,c),
(398,272,o),
(393,269,o),
(387,262,c),
(368,262,o),
(348,263,o),
(328,263,cs),
(324,263,o),
(321,274,o),
(316,267,cs),
(310,256,o),
(307,270,o),
(303,270,cs),
(282,270,o),
(262,269,o),
(242,269,c),
(238,264,o),
(234,260,o),
(229,261,cs),
(215,263,o),
(212,254,o),
(218,236,c),
(220,233,o),
(319,83,o),
(356,26,c),
(257,26,ls),
(247,26,o),
(238,24,o),
(229,31,cs),
(226,33,o),
(216,25,o),
(211,27,cs),
(205,29,o),
(200,35,o),
(194,27,c),
(192,26,o),
(187,25,o),
(186,26,cs)
);
},
{
closed = 1;
nodes = (
(283,395,o),
(275,432,o),
(244,442,c),
(240,442,o),
(235,433,o),
(231,433,cs),
(213,433,o),
(216,413,o),
(208,403,cs),
(206,402,o),
(211,394,o),
(213,390,cs),
(219,375,o),
(246,379,o),
(249,380,cs)
);
},
{
closed = 1;
nodes = (
(245,401,o),
(238,400,o),
(237,404,cs),
(236,405,o),
(235,407,o),
(235,407,cs),
(237,410,o),
(237,415,o),
(241,415,cs),
(242,415,o),
(243,417,o),
(244,417,c),
(252,414,o),
(254,405,o),
(246,401,cs)
);
}
);
width = 498;
}
);
unicode = 81;
},
{
glyphname = Qhooktail;
lastChange = "2024-01-17 16:16:06 +0000";
layers = (
{
anchors = (
{
name = bottom;
pos = (274,0);
},
{
name = top;
pos = (274,700);
}
);
layerId = m01;
shapes = (
{
closed = 1;
nodes = (
(478,-128,o),
(500,-111,o),
(526,-91,cs),
(528,-89,o),
(530,-85,o),
(532,-83,cs),
(534,-81,o),
(537,-82,o),
(539,-80,cs),
(540,-78,o),
(542,-77,o),
(544,-75,cs),
(545,-75,o),
(548,-74,o),
(549,-73,cs),
(552,-70,o),
(554,-66,o),
(557,-64,cs),
(577,-49,o),
(622,1,o),
(623,6,cs),
(623,8,o),
(636,32,o),
(613,27,cs),
(610,26,o),
(607,22,o),
(604,22,cs),
(603,22,o),
(595,16,o),
(584,6,cs),
(581,4,o),
(542,-33,o),
(539,-35,cs),
(537,-37,o),
(539,-41,o),
(535,-42,cs),
(535,-42,o),
(531,-44,o),
(529,-45,cs),
(512,-59,o),
(493,-75,o),
(490,-74,cs),
(484,-71,o),
(487,-59,o),
(487,-56,cs),
(491,248,o),
(498,656,o),
(496,697,cs),
(496,701,o),
(494,712,o),
(473,712,c),
(433,708,l),
(425,708,o),
(416,707,o),
(408,701,cs),
(403,697,o),
(393,700,o),
(386,700,cs),
(79,700,ls),
(72,700,o),
(64,700,o),
(57,699,cs),
(49,699,o),
(40,690,o),
(40,681,cs),
(40,249,ls),
(40,242,o),
(52,237,o),
(42,228,cs),
(36,222,o),
(46,216,o),
(46,210,cs),
(47,180,o),
(47,149,o),
(47,118,c),
(40,110,o),
(38,102,o),
(46,93,c),
(41,85,o),
(37,77,o),
(46,68,c),
(35,57,o),
(48,42,o),
(48,23,c),
(46,14,o),
(55,6,o),
(63,5,c),
(66,2,o),
(68,4,o),
(72,7,cs),
(94,21,o),
(340,230,o),
(406,300,cs),
(421,315,o),
(451,329,o),
(460,354,c),
(457,162,ls),
(457,152,o),
(460,141,o),
(454,131,c),
(456,108,o),
(458,-24,o),
(458,-67,cs),
(458,-69,o),
(460,-89,o),
(461,-95,cs),
(463,-111,o),
(459,-128,o),
(474,-128,cs)
);
},
{
closed = 1;
nodes = (
(78,57,o),
(72,91,o),
(70,99,cs),
(69,104,o),
(68,112,o),
(70,115,cs),
(75,123,o),
(76,129,o),
(72,136,c),
(81,145,o),
(76,171,o),
(77,180,cs),
(79,189,o),
(73,195,o),
(72,203,c),
(82,214,o),
(65,221,o),
(69,233,cs),
(72,241,o),
(70,267,o),
(70,655,cs),
(70,661,o),
(72,666,o),
(78,666,cs),
(400,666,ls),
(406,666,o),
(411,666,o),
(417,666,cs),
(426,666,o),
(453,667,o),
(461,673,cs),
(467,678,o),
(465,422,o),
(459,398,cs),
(456,387,o),
(394,341,o),
(389,325,cs),
(387,317,o),
(375,309,o),
(368,302,cs),
(296,227,o),
(142,104,o),
(78,51,c)
);
},
{
closed = 1;
nodes = (
(251,403,o),
(274,420,o),
(283,432,cs),
(287,437,o),
(289,442,o),
(289,448,cs),
(289,459,o),
(280,474,o),
(271,476,cs),
(257,478,o),
(229,480,o),
(229,460,cs),
(229,445,o),
(212,442,o),
(223,431,cs),
(237,417,ls)
);
},
{
closed = 1;
nodes = (
(246,441,ls),
(243,444,o),
(248,444,o),
(248,449,cs),
(248,454,o),
(255,454,o),
(259,453,cs),
(262,452,o),
(264,448,o),
(264,445,cs),
(264,444,o),
(264,442,o),
(262,441,cs),
(260,438,o),
(254,433,o),
(250,437,cs)
);
}
);
width = 547;
}
);
unicode = 586;
},
{
glyphname = R;
lastChange = "2024-02-09 15:38:34 +0000";
layers = (
{
anchors = (
{
name = bottom;
pos = (235,0);
},
{
name = top;
pos = (239,700);
}
);
layerId = m01;
shapes = (
{
closed = 1;
nodes = (
(64,-3,o),
(74,16,o),
(74,30,cs),
(74,86,ls),
(74,108,o),
(93,137,o),
(77,162,cs),
(75,165,o),
(75,170,o),
(77,173,cs),
(80,179,o),
(86,185,o),
(79,191,cs),
(71,198,o),
(87,206,o),
(77,212,cs),
(75,213,o),
(74,218,o),
(75,219,cs),
(79,224,o),
(81,228,o),
(81,233,cs),
(81,239,o),
(78,246,o),
(75,252,cs),
(72,258,o),
(73,275,o),
(76,278,cs),
(83,284,o),
(92,288,o),
(101,291,cs),
(106,293,o),
(112,291,o),
(118,291,cs),
(202,287,ls),
(209,287,o),
(217,286,o),
(222,290,cs),
(237,300,o),
(264,295,o),
(282,285,cs),
(287,280,o),
(299,295,o),
(308,295,cs),
(311,295,o),
(330,292,o),
(332,291,cs),
(340,285,o),
(348,291,o),
(356,291,cs),
(411,291,ls),
(414,291,o),
(418,286,o),
(419,283,c),
(431,178,o),
(416,98,o),
(422,65,cs),
(425,46,o),
(422,40,o),
(428,9,cs),
(430,-1,o),
(453,-7,o),
(453,14,cs),
(453,279,o),
(454,296,o),
(442,316,cs),
(438,323,o),
(429,319,o),
(423,319,cs),
(170,319,l),
(132,319,ls),
(128,319,o),
(126,324,o),
(129,327,cs),
(156,349,o),
(173,380,o),
(198,405,cs),
(216,423,ls),
(221,428,o),
(225,432,o),
(227,440,cs),
(229,448,o),
(243,444,o),
(243,456,c),
(261,468,o),
(366,589,o),
(404,628,cs),
(420,643,o),
(431,662,o),
(442,681,c),
(448,696,o),
(423,708,o),
(409,708,cs),
(399,708,o),
(389,707,o),
(350,707,cs),
(344,707,o),
(337,709,o),
(333,706,cs),
(325,700,o),
(317,699,o),
(308,699,cs),
(91,699,ls),
(84,699,o),
(77,698,o),
(72,692,cs),
(69,688,o),
(65,684,o),
(60,680,cs),
(52,673,o),
(50,665,o),
(50,654,cs),
(49,337,ls),
(49,329,o),
(47,321,o),
(41,315,cs),
(39,313,o),
(40,308,o),
(41,307,cs),
(49,299,o),
(49,290,o),
(49,280,cs),
(49,130,ls),
(49,124,o),
(52,117,o),
(49,113,cs),
(43,104,o),
(41,92,o),
(41,20,cs),
(41,11,o),
(50,7,o),
(56,2,cs)
);
},
{
closed = 1;
nodes = (
(279,113,o),
(287,136,o),
(287,145,cs),
(287,161,o),
(272,174,o),
(247,174,cs),
(234,176,o),
(226,170,o),
(218,160,cs),
(213,153,o),
(213,144,o),
(218,137,cs),
(228,127,o),
(241,113,o),
(255,113,cs)
);
},
{
closed = 1;
nodes = (
(248,135,o),
(244,138,o),
(242,142,cs),
(241,143,o),
(241,145,o),
(242,148,cs),
(244,150,o),
(246,152,o),
(249,151,cs),
(256,151,o),
(259,148,o),
(259,144,cs),
(259,142,o),
(258,135,o),
(252,135,cs)
);
},
{
closed = 1;
nodes = (
(75,316,o),
(71,337,o),
(76,340,cs),
(85,347,o),
(73,355,o),
(78,360,cs),
(85,368,o),
(82,376,o),
(82,384,cs),
(84,650,ls),
(84,665,o),
(84,665,o),
(101,665,cs),
(214,665,ls),
(230,665,o),
(229,673,o),
(245,673,cs),
(293,673,o),
(341,674,o),
(388,674,cs),
(393,674,o),
(397,664,o),
(394,661,cs),
(376,643,o),
(320,583,o),
(317,569,c),
(317,564,o),
(311,559,o),
(306,557,cs),
(284,546,o),
(269,530,o),
(257,508,c),
(255,502,o),
(248,498,o),
(243,493,cs),
(227,477,o),
(212,461,o),
(196,445,cs),
(187,436,o),
(175,429,o),
(170,418,cs),
(166,406,o),
(149,405,o),
(149,391,c),
(126,368,o),
(104,345,o),
(81,322,cs)
);
}
);
width = 493;
}
);
unicode = 82;
},
{
glyphname = Rstroke;
lastChange = "2023-11-11 15:14:54 +0000";
layers = (
{
layerId = m01;
shapes = (
{
pos = (2,0);
ref = R;
},
{
closed = 1;
nodes = (
(63,316,o),
(67,316,o),
(36,315,cs),
(29,315,o),
(2,314,o),
(-3,316,cs),
(-21,323,o),
(-32,320,o),
(-48,310,c),
(-62,303,o),
(-65,296,o),
(-48,286,c),
(-40,290,o),
(-34,283,o),
(-27,284,cs),
(12,289,o),
(5,281,o),
(18,284,cs),
(25,286,o),
(44,285,o),
(51,285,cs),
(97,287,o),
(105,314,o),
(68,316,cs)
);
}
);
width = 495;
}
);
unicode = 588;
},
{
glyphname = Rtail;
lastChange = "2023-11-11 14:32:43 +0000";
layers = (
{
layerId = m01;
shapes = (
{
ref = R;
},
{
closed = 1;
nodes = (
(41,18,o),
(41,5,o),
(44,0,cs),
(50,-9,o),
(43,-25,o),
(44,-38,cs),
(47,-71,o),
(51,-96,o),
(88,-98,cs),
(93,-98,o),
(89,-98,o),
(120,-97,cs),
(127,-97,o),
(154,-96,o),
(159,-98,c),
(190,-64,o),
(151,-63,o),
(138,-66,cs),
(131,-68,o),
(112,-67,o),
(105,-67,cs),
(59,-69,o),
(83,17,o),
(70,32,c),
(70,40,o),
(41,42,o),
(41,26,c)
);
}
);
width = 493;
}
);
unicode = 11364;
},
{
glyphname = S;
lastChange = "2024-02-09 15:41:31 +0000";
layers = (
{
anchors = (
{
name = bottom;
pos = (239,0);
},
{
name = top;
pos = (239,700);
}
);
layerId = m01;
shapes = (
{
closed = 1;
nodes = (
(421,658,o),
(421,633,cs),
(421,625,o),
(424,635,o),
(422,559,c),
(396,568,o),
(317,641,o),
(286,667,c),
(356,667,o),
(394,664,o),
(411,664,c),
(426,663,o)
);
},
{
closed = 1;
nodes = (
(121,0,o),
(126,0,o),
(130,2,cs),
(150,10,o),
(221,1,o),
(232,1,cs),
(288,0,o),
(354,1,o),
(410,1,cs),
(421,1,o),
(433,-1,o),
(440,8,c),
(443,16,o),
(455,24,o),
(442,34,c),
(439,52,o),
(438,78,o),
(443,97,c),
(451,104,o),
(448,113,o),
(448,122,cs),
(449,185,o),
(449,271,o),
(448,334,cs),
(448,351,o),
(433,364,o),
(414,364,cs),
(345,364,o),
(311,376,o),
(271,361,cs),
(264,358,o),
(262,361,o),
(258,364,cs),
(254,368,o),
(225,364,o),
(214,364,cs),
(83,364,ls),
(73,364,o),
(61,375,o),
(64,380,cs),
(71,392,o),
(72,404,o),
(72,416,cs),
(72,428,o),
(71,441,o),
(71,453,cs),
(71,467,o),
(65,460,o),
(65,474,cs),
(65,478,o),
(72,481,o),
(67,487,c),
(64,488,o),
(63,495,o),
(64,496,cs),
(78,509,o),
(66,574,o),
(78,587,cs),
(81,591,o),
(81,598,o),
(79,602,c),
(72,610,o),
(70,616,o),
(78,625,cs),
(81,628,o),
(82,637,o),
(79,639,c),
(72,646,o),
(78,652,o),
(77,657,cs),
(76,662,o),
(71,667,o),
(80,667,cs),
(194,667,ls),
(202,667,o),
(228,664,o),
(241,668,c),
(245,665,o),
(249,663,o),
(252,663,c),
(255,657,o),
(262,651,o),
(269,646,cs),
(291,628,o),
(311,599,o),
(321,596,cs),
(337,591,o),
(367,571,o),
(375,554,cs),
(382,541,o),
(396,535,o),
(409,528,cs),
(438,513,o),
(451,504,o),
(448,538,cs),
(448,545,o),
(449,586,o),
(456,598,cs),
(461,605,o),
(452,617,o),
(450,625,cs),
(449,629,o),
(457,631,o),
(453,638,cs),
(446,651,o),
(458,669,o),
(453,679,cs),
(445,696,o),
(445,696,o),
(430,696,cs),
(426,696,l),
(423,697,o),
(419,697,o),
(414,697,cs),
(113,697,o),
(105,698,o),
(98,692,cs),
(94,689,o),
(87,700,o),
(81,692,c),
(69,697,o),
(65,698,o),
(60,695,cs),
(48,686,o),
(35,679,o),
(42,663,cs),
(50,645,o),
(48,628,o),
(43,603,cs),
(41,595,o),
(38,586,o),
(44,578,cs),
(51,568,o),
(52,557,o),
(45,546,cs),
(40,537,o),
(39,530,o),
(46,522,c),
(49,520,o),
(49,519,o),
(46,516,c),
(40,512,o),
(41,504,o),
(41,498,cs),
(41,385,ls),
(41,367,o),
(42,359,o),
(51,346,cs),
(57,335,o),
(82,346,o),
(94,337,cs),
(96,335,o),
(103,334,o),
(105,336,cs),
(114,343,o),
(168,347,o),
(181,335,c),
(191,346,o),
(200,344,o),
(210,340,cs),
(215,338,o),
(222,339,o),
(225,336,cs),
(228,333,o),
(228,327,o),
(228,322,cs),
(228,218,ls),
(228,203,o),
(232,195,o),
(230,185,cs),
(229,179,o),
(208,183,o),
(202,183,cs),
(200,183,o),
(156,184,o),
(146,188,c),
(142,185,o),
(135,180,o),
(131,184,cs),
(119,194,o),
(109,190,o),
(93,190,cs),
(78,190,o),
(56,191,o),
(47,182,cs),
(38,173,o),
(41,154,o),
(41,141,cs),
(41,131,o),
(40,38,o),
(42,31,cs),
(43,23,o),
(56,17,o),
(54,7,c),
(54,4,o),
(58,1,o),
(63,1,cs)
);
},
{
closed = 1;
nodes = (
(69,141,ls),
(69,154,o),
(69,160,o),
(84,160,cs),
(198,160,ls),
(214,160,o),
(221,158,o),
(245,158,cs),
(249,158,o),
(257,166,o),
(257,172,cs),
(258,186,o),
(252,185,o),
(256,220,cs),
(256,223,o),
(254,227,o),
(254,231,cs),
(254,330,ls),
(254,337,o),
(257,340,o),
(267,340,cs),
(351,339,ls),
(370,339,o),
(400,342,o),
(419,329,c),
(420,299,o),
(420,230,o),
(422,225,cs),
(428,207,o),
(432,184,o),
(421,171,cs),
(418,167,o),
(419,159,o),
(419,154,cs),
(414,32,ls),
(414,26,o),
(410,23,o),
(404,23,cs),
(373,23,o),
(266,20,o),
(249,29,cs),
(246,31,o),
(241,30,o),
(237,30,cs),
(230,31,o),
(225,21,o),
(215,29,cs),
(207,35,o),
(98,30,o),
(88,29,c),
(75,25,o),
(69,33,o),
(69,43,cs)
);
},
{
closed = 1;
nodes = (
(251,450,o),
(264,464,o),
(274,474,cs),
(279,481,o),
(279,490,o),
(274,497,cs),
(266,507,o),
(258,513,o),
(245,511,cs),
(220,511,o),
(205,498,o),
(205,482,cs),
(205,473,o),
(213,450,o),
(237,450,cs)
);
},
{
closed = 1;
nodes = (
(234,473,o),
(233,480,o),
(233,482,cs),
(233,486,o),
(236,489,o),
(243,489,cs),
(246,490,o),
(248,488,o),
(250,486,cs),
(251,483,o),
(251,481,o),
(250,480,cs),
(248,476,o),
(244,473,o),
(240,473,cs)
);
}
);
width = 489;
}
);
unicode = 83;
},
{
glyphname = Germandbls;
lastChange = "2023-12-16 07:50:44 +0000";
layers = (
{
layerId = m01;
shapes = (
{
closed = 1;
nodes = (
(86,0,o),
(95,95,o),
(85,95,c),
(84,102,o),
(86,126,o),
(86,140,cs),
(86,146,o),
(91,167,o),
(86,174,cs),
(82,179,o),
(86,199,o),
(86,203,cs),
(86,230,o),
(95,233,o),
(87,245,cs),
(79,256,o),
(86,276,o),
(86,296,cs),
(86,302,o),
(91,310,o),
(86,314,cs),
(80,319,o),
(83,325,o),
(85,331,cs),
(91,350,o),
(92,360,o),
(91,385,cs),
(91,392,o),
(81,417,o),
(86,422,cs),
(92,429,o),
(85,435,o),
(85,442,cs),
(85,446,o),
(92,466,o),
(88,472,cs),
(77,489,o),
(85,512,o),
(85,512,cs),
(75,526,o),
(81,588,o),
(81,611,cs),
(81,628,o),
(84,652,o),
(80,664,c),
(307,664,ls),
(314,664,o),
(320,665,o),
(326,671,c),
(335,672,o),
(345,673,o),
(355,673,cs),
(363,673,o),
(370,672,o),
(377,669,cs),
(382,666,o),
(388,665,o),
(392,664,c),
(388,656,o),
(388,656,o),
(379,647,c),
(365,639,o),
(357,632,o),
(357,619,cs),
(357,604,o),
(352,595,o),
(338,588,cs),
(334,586,o),
(338,576,o),
(334,573,cs),
(329,570,o),
(324,566,o),
(322,561,c),
(258,449,o),
(236,443,o),
(205,396,cs),
(202,391,o),
(201,387,o),
(201,383,cs),
(201,373,o),
(208,367,o),
(208,366,c),
(229,342,o),
(266,295,o),
(306,245,cs),
(311,239,o),
(303,237,o),
(320,227,cs),
(323,225,o),
(323,219,o),
(327,218,cs),
(334,217,o),
(335,199,o),
(343,197,cs),
(378,186,o),
(384,149,o),
(395,136,cs),
(414,113,o),
(431,110,o),
(440,79,cs),
(445,61,o),
(456,68,o),
(480,32,c),
(373,32,ls),
(364,32,o),
(264,30,o),
(239,30,cs),
(221,30,o),
(222,38,o),
(204,38,cs),
(188,38,o),
(162,30,o),
(158,28,c),
(146,17,o),
(169,-1,o),
(180,-1,cs),
(428,-1,ls),
(462,-1,o),
(495,2,o),
(514,2,cs),
(526,2,o),
(531,17,o),
(531,24,cs),
(531,30,o),
(526,38,o),
(519,46,cs),
(505,58,o),
(474,94,o),
(438,139,cs),
(426,153,o),
(363,237,o),
(349,243,cs),
(337,248,o),
(335,275,o),
(321,278,cs),
(309,281,o),
(310,291,o),
(305,297,cs),
(281,327,o),
(272,343,o),
(250,367,c),
(242,378,o),
(239,383,o),
(241,385,cs),
(282,426,o),
(382,588,o),
(412,641,cs),
(424,667,o),
(432,666,o),
(432,683,cs),
(432,693,o),
(427,700,o),
(414,700,cs),
(66,700,l),
(57,698,o),
(58,695,o),
(54,692,cs),
(44,687,o),
(40,669,o),
(40,649,cs),
(40,630,o),
(43,609,o),
(47,594,cs),
(52,576,o),
(54,560,o),
(54,542,cs),
(54,497,l),
(54,487,l),
(54,462,l),
(54,415,ls),
(54,404,o),
(56,389,o),
(56,377,cs),
(56,370,o),
(55,365,o),
(54,361,cs),
(47,335,o),
(45,308,o),
(45,281,cs),
(45,253,o),
(47,226,o),
(47,199,c),
(54,139,o),
(46,56,o),
(56,0,c)
);
}
);
width = 531;
}
);
unicode = 7838;
},
{
glyphname = Sobliquestroke;
lastChange = "2024-02-03 09:37:08 +0000";
layers = (
{
anchors = (
{
name = bottom;
pos = (239,0);
},
{
name = top;
pos = (239,700);
}
);
layerId = m01;
shapes = (
{
closed = 1;
nodes = (
(408,664,o),
(442,674,o),
(438,683,cs),
(430,700,o),
(430,700,o),
(415,700,cs),
(411,700,l),
(408,701,o),
(404,701,o),
(399,701,cs),
(98,705,o),
(105,702,o),
(98,696,cs),
(94,693,o),
(87,704,o),
(81,696,c),
(69,701,o),
(65,702,o),
(60,699,cs),
(48,690,o),
(35,683,o),
(42,667,cs),
(50,649,o),
(48,628,o),
(43,603,cs),
(41,595,o),
(38,586,o),
(44,578,cs),
(51,568,o),
(52,557,o),
(45,546,cs),
(40,537,o),
(39,530,o),
(46,522,c),
(49,520,o),
(49,519,o),
(46,516,c),
(40,512,o),
(41,504,o),
(41,498,cs),
(41,385,ls),
(41,367,o),
(42,351,o),
(51,338,cs),
(57,327,o),
(82,338,o),
(94,329,cs),
(96,327,o),
(103,326,o),
(105,328,cs),
(114,335,o),
(168,339,o),
(181,327,c),
(191,338,o),
(200,330,o),
(210,326,cs),
(215,324,o),
(228,323,o),
(267,326,cs),
(348,333,ls),
(367,335,o),
(391,336,o),
(410,329,c),
(411,299,o),
(411,230,o),
(413,225,cs),
(419,207,o),
(424,184,o),
(413,171,cs),
(410,167,o),
(411,159,o),
(411,154,cs),
(411,39,ls),
(411,33,o),
(407,30,o),
(401,30,cs),
(370,30,o),
(266,27,o),
(249,36,cs),
(246,38,o),
(241,37,o),
(237,37,cs),
(230,38,o),
(225,28,o),
(215,36,cs),
(207,42,o),
(96,37,o),
(86,36,c),
(65,33,o),
(41,37,o),
(46,7,c),
(46,4,o),
(50,1,o),
(55,1,cs),
(113,0,o),
(118,0,o),
(122,2,cs),
(142,10,o),
(221,1,o),
(232,1,cs),
(288,0,o),
(354,1,o),
(410,1,cs),
(421,1,o),
(433,-1,o),
(440,8,c),
(443,16,o),
(455,24,o),
(442,34,c),
(439,52,o),
(438,78,o),
(443,97,c),
(451,104,o),
(448,113,o),
(448,122,cs),
(449,185,o),
(449,271,o),
(448,334,cs),
(448,351,o),
(433,364,o),
(414,364,cs),
(345,364,o),
(311,376,o),
(271,361,cs),
(264,358,o),
(262,361,o),
(258,364,cs),
(254,368,o),
(225,364,o),
(214,364,cs),
(87,364,ls),
(77,364,o),
(65,375,o),
(68,380,cs),
(75,392,o),
(76,404,o),
(76,416,cs),
(76,428,o),
(75,441,o),
(75,453,cs),
(75,467,o),
(69,460,o),
(69,474,cs),
(69,478,o),
(76,481,o),
(71,487,c),
(68,488,o),
(67,495,o),
(68,496,cs),
(82,509,o),
(70,574,o),
(82,587,cs),
(85,591,o),
(85,598,o),
(83,602,c),
(76,610,o),
(74,616,o),
(82,625,cs),
(85,628,o),
(86,637,o),
(83,639,c),
(76,650,o),
(82,656,o),
(81,661,cs),
(80,666,o),
(75,671,o),
(84,671,cs),
(194,667,ls),
(202,667,o),
(228,664,o),
(241,668,c),
(245,665,o),
(379,665,o),
(396,665,c)
);
},
{
closed = 1;
nodes = (
(252,485,o),
(265,499,o),
(275,509,cs),
(280,516,o),
(280,525,o),
(275,532,cs),
(267,542,o),
(259,548,o),
(246,546,cs),
(221,546,o),
(206,533,o),
(206,517,cs),
(206,508,o),
(214,485,o),
(238,485,cs)
);
},
{
closed = 1;
nodes = (
(235,508,o),
(234,515,o),
(234,517,cs),
(234,521,o),
(237,524,o),
(244,524,cs),
(247,525,o),
(249,523,o),
(251,521,cs),
(252,518,o),
(252,516,o),
(251,515,cs),
(249,511,o),
(245,508,o),
(241,508,cs)
);
},
{
closed = 1;
nodes = (
(105,179,o),
(127,181,o),
(143,216,c),
(161,224,o),
(180,253,o),
(189,269,c),
(209,278,o),
(270,347,o),
(277,366,c),
(326,417,o),
(336,428,o),
(407,507,cs),
(418,514,o),
(424,524,o),
(427,534,cs),
(428,542,o),
(428,547,o),
(423,552,c),
(418,555,o),
(405,550,o),
(381,522,cs),
(375,514,o),
(353,489,o),
(347,483,cs),
(296,427,o),
(295,432,o),
(231,360,c),
(216,350,o),
(194,311,o),
(178,294,cs),
(150,264,o),
(109,225,o),
(88,204,c),
(64,178,o),
(55,159,o),
(58,149,cs),
(63,134,o),
(75,146,o),
(83,151,c)
);
}
);
width = 489;
}
);
unicode = 42920;
},
{
glyphname = T;
kernLeft = T;
kernRight = V;
lastChange = "2024-02-09 15:40:25 +0000";
layers = (
{
anchors = (
{
name = bottom;
pos = (240,0);
},
{
name = center;
pos = (244,350);
},
{
name = top;
pos = (231,700);
}
);
layerId = m01;
shapes = (
{
closed = 1;
nodes = (
(118,-1,o),
(129,-1,o),
(140,-1,cs),
(317,2,ls),
(325,2,o),
(338,6,o),
(348,-3,cs),
(351,-5,o),
(359,-4,o),
(364,-2,cs),
(370,0,o),
(376,3,o),
(382,7,cs),
(389,14,o),
(376,30,o),
(363,30,cs),
(284,30,o),
(316,30,o),
(287,30,cs),
(266,30,o),
(259,36,o),
(259,56,c),
(259,645,l),
(259,658,o),
(269,664,o),
(277,671,cs),
(283,677,o),
(285,667,o),
(290,667,cs),
(416,667,ls),
(421,667,o),
(426,672,o),
(431,674,cs),
(438,677,o),
(440,661,o),
(440,655,cs),
(440,529,ls),
(440,524,o),
(438,517,o),
(441,513,cs),
(444,508,o),
(449,502,o),
(455,500,cs),
(462,498,o),
(463,505,o),
(465,510,c),
(471,518,o),
(473,527,o),
(473,537,cs),
(473,679,ls),
(473,683,o),
(475,688,o),
(473,692,cs),
(468,706,o),
(466,705,o),
(454,703,cs),
(447,702,o),
(440,700,o),
(433,700,cs),
(217,700,o),
(100,700,o),
(43,701,cs),
(28,701,o),
(19,692,o),
(19,678,cs),
(19,547,o),
(19,538,o),
(13,529,cs),
(7,519,o),
(12,507,o),
(23,501,c),
(26,500,o),
(32,501,o),
(35,503,cs),
(40,507,o),
(45,511,o),
(45,519,cs),
(44,529,o),
(45,539,o),
(45,653,cs),
(45,686,o),
(74,670,o),
(106,675,cs),
(113,676,o),
(151,676,o),
(156,672,cs),
(163,667,o),
(171,667,o),
(179,667,cs),
(219,667,ls),
(229,667,o),
(231,665,o),
(232,655,cs),
(232,645,o),
(231,580,o),
(231,570,cs),
(231,541,o),
(238,520,o),
(225,494,c),
(229,490,o),
(234,483,o),
(231,479,cs),
(216,464,o),
(228,421,o),
(234,401,c),
(225,394,o),
(238,345,o),
(228,183,cs),
(228,177,o),
(226,170,o),
(229,166,cs),
(236,156,o),
(235,148,o),
(224,137,c),
(222,134,o),
(223,125,o),
(226,121,cs),
(235,109,o),
(229,64,o),
(224,42,cs),
(222,33,o),
(220,33,o),
(211,30,cs),
(200,26,o),
(190,24,o),
(165,24,cs),
(155,24,o),
(145,26,o),
(132,33,c),
(121,26,o),
(108,24,o),
(101,13,cs),
(99,9,o),
(102,0,o),
(107,0,cs)
);
}
);
width = 484;
}
);
unicode = 84;
},
{
glyphname = Tdiagonalstroke;
lastChange = "2024-01-17 15:14:01 +0000";
layers = (
{
layerId = m01;
shapes = (
{
closed = 1;
nodes = (
(118,6,o),
(149,26,o),
(153,68,c),
(169,79,o),
(173,101,o),
(177,120,c),
(194,137,o),
(199,155,o),
(202,175,c),
(233,242,o),
(262,307,o),
(295,372,cs),
(299,384,o),
(313,393,o),
(314,408,cs),
(317,433,o),
(330,438,o),
(338,454,cs),
(383,555,o),
(411,611,o),
(457,713,cs),
(462,724,o),
(464,736,o),
(465,746,cs),
(464,755,o),
(462,761,o),
(455,766,c),
(453,761,o),
(439,757,o),
(424,722,cs),
(421,713,o),
(408,680,o),
(403,673,cs),
(371,601,o),
(355,569,o),
(323,498,cs),
(314,477,o),
(300,454,o),
(295,433,cs),
(286,408,o),
(265,400,o),
(263,372,c),
(254,355,o),
(242,347,o),
(236,327,cs),
(228,308,o),
(196,251,o),
(196,228,c),
(185,213,o),
(181,200,o),
(176,182,cs),
(176,174,o),
(168,158,o),
(161,147,cs),
(145,119,o),
(115,68,o),
(102,40,c),
(93,2,o),
(90,-12,o),
(88,-23,cs),
(90,-38,o),
(97,-33,o),
(106,-30,c)
);
},
{
ref = T;
}
);
width = 544;
}
);
unicode = 574;
},
{
glyphname = Thook;
lastChange = "2023-11-11 14:33:39 +0000";
layers = (
{
anchors = (
{
name = bottom;
pos = (270,0);
},
{
name = center;
pos = (274,350);
},
{
name = top;
pos = (261,700);
}
);
layerId = m01;
shapes = (
{
closed = 1;
nodes = (
(381,-5,o),
(389,-4,o),
(394,-2,cs),
(400,0,o),
(406,3,o),
(412,7,cs),
(419,14,o),
(406,30,o),
(393,30,cs),
(314,30,o),
(346,30,o),
(317,30,cs),
(296,30,o),
(289,36,o),
(289,56,c),
(289,639,l),
(289,652,o),
(299,658,o),
(307,665,cs),
(313,671,o),
(315,661,o),
(320,661,cs),
(446,661,ls),
(451,661,o),
(457,671,o),
(461,668,cs),
(474,659,o),
(504,660,o),
(503,673,c),
(503,677,o),
(505,682,o),
(503,686,cs),
(498,700,o),
(496,699,o),
(484,697,cs),
(477,696,o),
(470,694,o),
(463,694,cs),
(247,694,o),
(130,694,o),
(73,695,cs),
(58,695,o),
(49,686,o),
(49,672,cs),
(49,541,o),
(49,532,o),
(43,523,cs),
(37,513,o),
(42,501,o),
(53,495,c),
(56,494,o),
(62,495,o),
(65,497,cs),
(70,501,o),
(75,505,o),
(75,513,cs),
(74,523,o),
(75,533,o),
(75,647,cs),
(75,680,o),
(104,664,o),
(136,669,cs),
(143,670,o),
(181,670,o),
(186,666,cs),
(193,661,o),
(201,661,o),
(209,661,cs),
(251,661,ls),
(261,661,o),
(263,659,o),
(264,649,cs),
(264,639,o),
(263,574,o),
(263,564,cs),
(263,535,o),
(270,514,o),
(257,488,c),
(261,484,o),
(266,477,o),
(263,473,cs),
(248,458,o),
(255,415,o),
(261,395,c),
(252,388,o),
(265,345,o),
(255,183,cs),
(255,177,o),
(253,170,o),
(256,166,cs),
(263,156,o),
(267,148,o),
(256,137,c),
(254,134,o),
(255,125,o),
(258,121,cs),
(267,109,o),
(261,64,o),
(256,42,cs),
(254,33,o),
(252,33,o),
(243,30,cs),
(232,26,o),
(220,24,o),
(195,24,cs),
(185,24,o),
(175,26,o),
(162,33,c),
(151,26,o),
(138,24,o),
(131,13,cs),
(129,9,o),
(132,0,o),
(137,0,cs),
(148,-1,o),
(159,-1,o),
(170,-1,cs),
(347,2,ls),
(355,2,o),
(368,6,o),
(378,-3,cs)
);
}
);
width = 544;
}
);
unicode = 428;
},
{
glyphname = Tretroflexhook;
lastChange = "2023-11-11 14:35:51 +0000";
layers = (
{
anchors = (
{
name = bottom;
pos = (270,0);
},
{
name = center;
pos = (274,350);
},
{
name = top;
pos = (261,700);
}
);
layerId = m01;
shapes = (
{
closed = 1;
nodes = (
(298,-74,o),
(284,-77,o),
(289,-50,c),
(289,639,l),
(289,652,o),
(299,658,o),
(307,665,cs),
(313,671,o),
(315,661,o),
(320,661,cs),
(446,661,ls),
(451,661,o),
(456,666,o),
(461,668,cs),
(468,671,o),
(470,655,o),
(470,649,cs),
(470,523,ls),
(470,518,o),
(468,511,o),
(471,507,cs),
(474,502,o),
(479,496,o),
(485,494,cs),
(492,492,o),
(493,499,o),
(495,504,c),
(501,512,o),
(503,521,o),
(503,531,cs),
(503,673,ls),
(503,677,o),
(505,682,o),
(503,686,cs),
(498,700,o),
(496,699,o),
(484,697,cs),
(477,696,o),
(470,694,o),
(463,694,cs),
(247,694,o),
(130,694,o),
(73,695,cs),
(58,695,o),
(49,686,o),
(49,672,cs),
(49,541,o),
(49,532,o),
(43,523,cs),
(37,513,o),
(42,501,o),
(53,495,c),
(56,494,o),
(62,495,o),
(65,497,cs),
(70,501,o),
(75,505,o),
(75,513,cs),
(74,523,o),
(75,533,o),
(75,647,cs),
(75,680,o),
(104,664,o),
(136,669,cs),
(143,670,o),
(181,670,o),
(186,666,cs),
(193,661,o),
(201,661,o),
(209,661,cs),
(251,661,ls),
(261,661,o),
(263,659,o),
(264,649,cs),
(264,639,o),
(263,574,o),
(263,564,cs),
(263,535,o),
(270,514,o),
(257,488,c),
(261,484,o),
(266,477,o),
(263,473,cs),
(248,458,o),
(255,415,o),
(261,395,c),
(252,388,o),
(265,345,o),
(255,183,cs),
(255,177,o),
(253,170,o),
(256,166,cs),
(263,156,o),
(267,148,o),
(256,137,c),
(254,134,o),
(255,125,o),
(258,121,cs),
(267,109,o),
(263,-40,o),
(258,-62,c)
);
},
{
closed = 1;
nodes = (
(258,-80,l),
(264,-89,o),
(257,-105,o),
(258,-118,cs),
(261,-151,o),
(265,-176,o),
(302,-178,cs),
(307,-178,o),
(303,-178,o),
(334,-177,cs),
(341,-177,o),
(368,-176,o),
(373,-178,cs),
(391,-185,o),
(402,-182,o),
(418,-172,c),
(432,-165,o),
(435,-158,o),
(418,-148,c),
(410,-152,o),
(404,-145,o),
(397,-146,cs),
(358,-151,o),
(365,-143,o),
(352,-146,cs),
(345,-148,o),
(326,-147,o),
(319,-147,cs),
(273,-149,o),
(297,-63,o),
(284,-48,c),
(284,-40,o),
(258,-38,o),
(258,-54,c)
);
}
);
width = 544;
}
);
unicode = 430;
},
{
glyphname = U;
lastChange = "2024-01-30 05:37:30 +0000";
layers = (
{
anchors = (
{
name = bottom;
pos = (248,0);
},
{
name = ogonek;
pos = (398,0);
},
{
name = top;
pos = (252,700);
},
{
name = topright;
pos = (369,1058);
}
);
layerId = m01;
shapes = (
{
closed = 1;
nodes = (
(429,0,o),
(436,0,o),
(443,1,cs),
(446,1,o),
(450,3,o),
(450,4,cs),
(452,14,o),
(461,22,o),
(461,32,cs),
(461,35,o),
(460,39,o),
(457,43,cs),
(451,49,o),
(452,55,o),
(457,64,cs),
(458,66,o),
(461,73,o),
(459,75,cs),
(451,83,o),
(452,93,o),
(452,103,cs),
(452,198,ls),
(452,209,o),
(453,219,o),
(458,231,cs),
(464,245,o),
(464,259,o),
(455,271,cs),
(453,274,o),
(452,280,o),
(454,282,cs),
(460,290,o),
(461,298,o),
(461,306,cs),
(460,314,o),
(456,332,o),
(461,348,cs),
(466,360,o),
(447,362,o),
(454,376,cs),
(462,388,o),
(460,405,o),
(460,413,cs),
(461,418,o),
(461,425,o),
(458,429,cs),
(451,438,o),
(451,448,o),
(452,457,cs),
(455,506,ls),
(456,519,o),
(453,535,o),
(456,542,cs),
(462,559,o),
(461,585,o),
(461,603,cs),
(461,623,o),
(461,644,o),
(461,654,cs),
(461,669,o),
(454,681,o),
(446,694,c),
(442,705,o),
(431,696,o),
(428,689,c),
(427,684,o),
(426,678,o),
(426,644,c),
(426,626,o),
(430,622,o),
(430,593,c),
(424,574,o),
(425,554,o),
(425,534,cs),
(425,511,o),
(426,413,o),
(426,383,cs),
(426,376,o),
(423,372,o),
(416,372,cs),
(317,372,l),
(308,373,o),
(301,371,o),
(293,366,cs),
(284,359,o),
(279,374,o),
(271,372,cs),
(263,370,o),
(257,362,o),
(249,372,cs),
(248,373,o),
(243,372,o),
(241,371,c),
(233,362,o),
(225,364,o),
(215,371,cs),
(205,379,o),
(196,364,o),
(185,369,cs),
(182,370,o),
(181,370,o),
(178,369,cs),
(167,365,o),
(124,370,o),
(123,369,cs),
(117,364,o),
(95,364,o),
(90,364,cs),
(81,364,o),
(78,367,o),
(78,378,cs),
(78,632,o),
(78,675,o),
(78,679,cs),
(78,683,o),
(77,687,o),
(74,690,cs),
(65,703,o),
(49,703,o),
(49,687,cs),
(47,672,o),
(54,424,o),
(43,413,cs),
(41,411,o),
(40,404,o),
(42,402,cs),
(49,394,o),
(49,386,o),
(49,378,cs),
(49,350,o),
(49,323,o),
(48,296,cs),
(48,291,o),
(48,284,o),
(45,280,cs),
(41,274,o),
(40,267,o),
(40,260,cs),
(40,13,ls),
(40,3,o),
(43,0,o),
(53,0,cs)
);
},
{
closed = 1;
nodes = (
(79,29,o),
(70,37,o),
(70,49,cs),
(69,99,o),
(69,104,o),
(70,154,cs),
(70,166,o),
(80,180,o),
(78,192,cs),
(77,197,o),
(77,203,o),
(78,325,c),
(78,335,o),
(81,338,o),
(91,338,cs),
(413,338,ls),
(423,338,o),
(426,335,o),
(426,326,c),
(426,11,o),
(426,47,o),
(426,42,cs),
(426,30,o),
(424,29,o),
(410,29,cs),
(405,29,o),
(402,29,o),
(92,29,cs)
);
},
{
closed = 1;
nodes = (
(277,168,o),
(280,175,o),
(281,181,cs),
(284,188,o),
(281,194,o),
(276,199,cs),
(267,210,o),
(234,226,o),
(223,215,c),
(218,207,o),
(212,198,o),
(210,188,cs),
(210,182,o),
(218,174,o),
(220,166,cs),
(224,147,o),
(249,147,o),
(273,164,cs)
);
},
{
closed = 1;
nodes = (
(248,176,o),
(241,176,o),
(240,181,cs),
(239,183,o),
(237,185,o),
(237,187,cs),
(237,190,o),
(239,192,o),
(240,194,c),
(243,197,o),
(253,193,o),
(255,190,cs),
(256,189,o),
(257,187,o),
(256,185,cs),
(256,183,o),
(255,181,o),
(254,180,cs)
);
},
{
closed = 1;
nodes = (
(273,498,o),
(281,521,o),
(281,530,cs),
(281,546,o),
(266,559,o),
(241,559,cs),
(228,561,o),
(220,555,o),
(212,545,cs),
(207,538,o),
(207,529,o),
(212,522,cs),
(222,512,o),
(235,498,o),
(249,498,cs)
);
},
{
closed = 1;
nodes = (
(242,520,o),
(238,523,o),
(236,527,cs),
(235,528,o),
(235,530,o),
(236,533,cs),
(238,535,o),
(240,537,o),
(243,536,cs),
(250,536,o),
(253,533,o),
(253,529,cs),
(253,527,o),
(252,520,o),
(246,520,cs)
);
}
);
width = 502;
}
);
unicode = 85;
},
{
glyphname = Ubar;
lastChange = "2023-11-11 14:36:58 +0000";
layers = (
{
layerId = m01;
shapes = (
{
pos = (41,0);
ref = U;
},
{
closed = 1;
nodes = (
(426,367,o),
(434,340,o),
(480,338,cs),
(487,338,o),
(506,339,o),
(513,337,cs),
(526,334,o),
(519,342,o),
(558,337,cs),
(565,336,o),
(571,343,o),
(579,339,c),
(596,349,o),
(593,356,o),
(579,363,c),
(563,373,o),
(552,376,o),
(534,369,cs),
(529,367,o),
(502,368,o),
(495,368,cs),
(464,369,o),
(468,369,o),
(463,369,cs)
);
},
{
closed = 1;
nodes = (
(-14,367,o),
(-6,340,o),
(40,338,cs),
(47,338,o),
(66,339,o),
(73,337,cs),
(86,334,o),
(79,342,o),
(118,337,cs),
(125,336,o),
(131,343,o),
(139,339,c),
(156,349,o),
(153,356,o),
(139,363,c),
(107,357,o),
(112,376,o),
(94,369,cs),
(89,367,o),
(62,368,o),
(55,368,cs),
(24,369,o),
(28,369,o),
(23,369,cs)
);
}
);
width = 591;
}
);
unicode = 580;
},
{
glyphname = "Upsilon-latin";
lastChange = "2024-01-30 05:20:48 +0000";
layers = (
{
anchors = (
{
name = bottom;
pos = (437,51);
},
{
name = top;
pos = (401,697);
}
);
layerId = m01;
shapes = (
{
closed = 1;
nodes = (
(267,347,o),
(270,323,o),
(294,319,cs),
(308,317,o),
(323,328,o),
(335,336,cs),
(341,342,o),
(342,351,o),
(339,359,cs),
(333,370,o),
(326,377,o),
(313,378,cs),
(288,382,o),
(271,372,o),
(268,356,cs)
);
},
{
closed = 1;
nodes = (
(296,355,o),
(300,358,o),
(307,356,cs),
(310,357,o),
(312,354,o),
(313,352,cs),
(314,349,o),
(313,347,o),
(312,346,cs),
(309,343,o),
(305,340,o),
(301,341,cs),
(295,342,o),
(295,349,o),
(296,351,cs)
);
},
{
closed = 1;
nodes = (
(53,672,l),
(68,672,o),
(186,673,o),
(193,672,cs),
(201,672,o),
(206,667,o),
(202,650,cs),
(198,632,o),
(103,458,o),
(58,369,cs),
(50,353,o),
(48,345,o),
(48,338,cs),
(48,335,o),
(47,324,o),
(52,315,cs),
(56,308,o),
(62,300,o),
(68,291,cs),
(97,249,o),
(144,192,o),
(147,189,cs),
(164,175,o),
(288,23,o),
(304,11,cs),
(320,-1,o),
(327,1,o),
(335,9,cs),
(339,13,o),
(366,44,o),
(375,61,cs),
(384,78,o),
(424,138,o),
(436,152,cs),
(465,189,o),
(557,314,o),
(557,331,cs),
(557,376,o),
(419,587,o),
(378,674,c),
(479,674,o),
(512,673,o),
(527,672,c),
(536,671,o),
(552,666,o),
(552,689,cs),
(552,703,o),
(544,701,o),
(539,701,cs),
(535,701,o),
(490,700,o),
(483,700,cs),
(413,700,o),
(417,701,o),
(347,700,cs),
(344,700,o),
(340,696,o),
(340,693,cs),
(339,686,o),
(337,672,o),
(341,671,cs),
(350,669,o),
(356,649,o),
(361,638,cs),
(369,623,o),
(481,447,o),
(526,335,c),
(492,276,o),
(436,200,o),
(414,171,cs),
(381,127,o),
(377,114,o),
(345,72,c),
(341,65,o),
(330,44,o),
(319,35,c),
(314,41,o),
(306,55,o),
(293,65,cs),
(275,79,o),
(220,162,o),
(201,172,cs),
(194,176,o),
(186,183,o),
(184,190,cs),
(182,198,o),
(87,293,o),
(78,339,c),
(142,481,o),
(238,652,o),
(243,665,cs),
(252,687,o),
(240,698,o),
(222,700,cs),
(214,700,o),
(206,698,o),
(198,698,cs),
(186,698,o),
(176,703,o),
(165,703,cs),
(160,703,o),
(136,696,o),
(127,699,cs),
(119,702,o),
(80,700,o),
(37,700,cs),
(30,700,o),
(26,695,o),
(22,689,cs),
(19,685,o),
(19,678,o),
(21,674,c)
);
}
);
width = 577;
}
);
unicode = 433;
},
{
glyphname = V;
kernLeft = A;
lastChange = "2024-02-09 15:29:19 +0000";
layers = (
{
anchors = (
{
name = bottom;
pos = (223,0);
},
{
name = top;
pos = (218,700);
}
);
layerId = m01;
shapes = (
{
closed = 1;
nodes = (
(215,-11,o),
(232,-11,o),
(234,-5,cs),
(240,11,o),
(250,25,o),
(259,38,cs),
(270,53,o),
(277,70,o),
(283,87,cs),
(290,108,o),
(301,128,o),
(309,149,cs),
(329,193,o),
(358,233,o),
(378,277,cs),
(385,292,o),
(391,308,o),
(404,320,cs),
(406,322,o),
(407,325,o),
(407,327,cs),
(407,345,o),
(419,359,o),
(426,373,cs),
(431,383,o),
(434,393,o),
(434,402,cs),
(434,408,o),
(433,413,o),
(431,418,cs),
(423,435,o),
(422,459,o),
(432,478,cs),
(437,486,o),
(433,498,o),
(433,508,c),
(426,515,o),
(424,531,o),
(424,539,c),
(425,566,o),
(425,578,o),
(432,590,cs),
(433,592,o),
(434,594,o),
(434,597,cs),
(434,606,o),
(423,615,o),
(423,626,cs),
(423,627,o),
(424,647,o),
(430,654,cs),
(433,658,o),
(433,665,o),
(433,670,cs),
(433,686,o),
(425,695,o),
(410,695,cs),
(394,695,o),
(394,692,o),
(392,678,cs),
(392,677,o),
(399,662,o),
(399,655,cs),
(399,586,o),
(399,578,o),
(405,571,cs),
(407,569,o),
(407,562,o),
(405,560,cs),
(397,551,o),
(399,533,o),
(399,410,cs),
(399,402,o),
(398,393,o),
(398,385,c),
(387,378,o),
(392,364,o),
(386,354,cs),
(367,322,o),
(353,287,o),
(333,255,cs),
(323,240,o),
(314,225,o),
(307,209,c),
(272,209,o),
(167,209,o),
(149,209,cs),
(143,209,o),
(138,208,o),
(133,205,c),
(129,214,o),
(106,253,o),
(106,266,cs),
(106,280,o),
(91,285,o),
(86,298,cs),
(79,321,o),
(70,343,o),
(49,381,cs),
(47,386,o),
(46,392,o),
(46,398,cs),
(46,431,ls),
(46,436,o),
(45,440,o),
(46,444,cs),
(50,454,o),
(61,463,o),
(47,474,c),
(54,483,o),
(55,493,o),
(55,503,c),
(55,667,l),
(56,671,o),
(56,680,o),
(56,684,cs),
(55,691,o),
(44,698,o),
(34,698,cs),
(26,698,o),
(20,694,o),
(20,685,cs),
(20,391,ls),
(20,383,o),
(23,376,o),
(26,368,cs),
(42,332,o),
(63,300,o),
(75,262,cs),
(82,240,o),
(131,158,o),
(134,134,c),
(160,104,o),
(170,64,o),
(191,31,cs),
(198,19,o),
(204,7,o),
(211,-5,cs)
);
},
{
closed = 1;
nodes = (
(222,34,o),
(222,35,o),
(218,43,cs),
(190,84,o),
(167,136,o),
(145,180,c),
(156,180,o),
(175,174,o),
(188,183,cs),
(193,186,o),
(209,183,o),
(213,183,cs),
(294,183,l),
(289,172,o),
(244,78,o),
(226,42,cs)
);
},
{
closed = 1;
nodes = (
(239,348,o),
(247,354,o),
(255,364,cs),
(260,371,o),
(260,380,o),
(255,387,cs),
(245,397,o),
(232,411,o),
(218,411,cs),
(194,411,o),
(186,388,o),
(186,379,cs),
(186,363,o),
(201,350,o),
(226,350,cs)
);
},
{
closed = 1;
nodes = (
(217,372,o),
(214,375,o),
(214,379,cs),
(214,381,o),
(215,388,o),
(221,388,cs),
(225,388,o),
(229,385,o),
(231,381,cs),
(232,380,o),
(232,378,o),
(231,375,cs),
(229,373,o),
(227,371,o),
(224,372,cs)
);
}
);
width = 455;
}
);
unicode = 86;
},
{
glyphname = "Gamma-latin";
lastChange = "2024-01-20 05:11:01 +0000";
layers = (
{
layerId = m01;
shapes = (
{
closed = 1;
nodes = (
(421,687,o),
(412,681,o),
(410,670,cs),
(401,638,o),
(393,609,o),
(383,578,cs),
(375,558,o),
(375,537,o),
(366,518,cs),
(358,500,o),
(298,328,o),
(292,308,cs),
(286,289,o),
(277,270,o),
(273,251,cs),
(263,206,o),
(251,161,o),
(231,110,c),
(231,110,o),
(224,110,o),
(226,111,c),
(216,151,o),
(207,146,o),
(207,187,c),
(191,204,o),
(195,230,o),
(187,250,cs),
(179,268,o),
(176,290,o),
(162,306,c),
(150,347,o),
(77,566,o),
(67,598,c),
(55,608,o),
(39,671,o),
(33,686,cs),
(33,690,o),
(30,691,o),
(30,694,c),
(19,710,o),
(2,694,o),
(0,675,c),
(27,610,l),
(36,591,o),
(73,484,o),
(81,474,cs),
(84,469,o),
(86,462,o),
(86,456,cs),
(84,445,o),
(91,433,o),
(96,424,cs),
(102,412,o),
(118,365,o),
(117,352,cs),
(116,341,o),
(123,327,o),
(129,315,cs),
(135,299,o),
(201,98,o),
(206,80,cs),
(214,69,o),
(214,60,o),
(206,51,cs),
(198,44,o),
(193,35,o),
(195,23,c),
(180,0,o),
(175,-27,o),
(158,-47,cs),
(149,-61,o),
(150,-78,o),
(137,-91,cs),
(128,-101,o),
(124,-117,o),
(118,-130,cs),
(116,-136,o),
(121,-149,o),
(124,-149,cs),
(134,-151,o),
(144,-151,o),
(154,-151,c),
(198,-142,o),
(222,-151,o),
(278,-151,cs),
(285,-151,o),
(303,-151,o),
(310,-151,cs),
(320,-151,o),
(328,-141,o),
(337,-138,c),
(339,-137,o),
(336,-125,o),
(335,-121,c),
(323,-102,o),
(308,-85,o),
(302,-61,cs),
(300,-47,o),
(291,-33,o),
(284,-22,cs),
(278,-12,o),
(270,-6,o),
(271,7,c),
(272,10,o),
(268,16,o),
(265,18,cs),
(251,28,o),
(256,49,o),
(247,62,cs),
(243,68,o),
(248,77,o),
(253,85,c),
(374,447,o),
(414,579,o),
(417,585,cs),
(424,602,o),
(413,610,o),
(440,669,c),
(449,688,o),
(439,716,o),
(426,694,cs)
);
},
{
closed = 1;
nodes = (
(214,486,o),
(206,480,o),
(198,470,cs),
(193,463,o),
(193,454,o),
(198,447,cs),
(208,437,o),
(221,423,o),
(235,423,cs),
(259,423,o),
(267,446,o),
(267,455,cs),
(267,471,o),
(252,484,o),
(227,484,cs)
);
},
{
closed = 1;
nodes = (
(236,462,o),
(239,459,o),
(239,455,cs),
(239,453,o),
(238,446,o),
(232,446,cs),
(228,446,o),
(224,449,o),
(222,453,cs),
(221,454,o),
(221,456,o),
(222,459,cs),
(224,461,o),
(226,463,o),
(229,462,cs)
);
},
{
closed = 1;
nodes = (
(225,23,o),
(228,26,o),
(234,15,cs),
(252,-23,o),
(270,-62,o),
(288,-101,c),
(287,-108,o),
(301,-121,o),
(299,-121,cs),
(276,-121,o),
(241,-127,o),
(220,-120,cs),
(205,-115,o),
(160,-124,o),
(161,-119,cs),
(169,-78,o),
(204,-17,o),
(222,20,c)
);
}
);
width = 443;
}
);
unicode = 404;
},
{
glyphname = Vhook;
lastChange = "2023-11-12 16:50:20 +0000";
layers = (
{
anchors = (
{
name = bottom;
pos = (255,0);
},
{
name = top;
pos = (258,700);
}
);
layerId = m01;
shapes = (
{
closed = 1;
nodes = (
(240,386,o),
(248,392,o),
(256,402,cs),
(261,409,o),
(261,418,o),
(256,425,c),
(246,435,o),
(233,449,o),
(219,449,cs),
(195,449,o),
(187,426,o),
(187,417,cs),
(187,401,o),
(202,388,o),
(227,388,c)
);
},
{
closed = 1;
nodes = (
(46,24,o),
(49,14,o),
(54,6,cs),
(60,-3,o),
(81,1,o),
(83,4,cs),
(92,18,o),
(107,28,o),
(119,38,cs),
(133,49,o),
(145,69,o),
(155,84,cs),
(168,101,o),
(183,117,o),
(198,135,cs),
(230,171,o),
(269,202,o),
(299,238,cs),
(311,251,o),
(378,330,o),
(394,338,c),
(396,340,o),
(398,342,o),
(399,344,cs),
(404,361,o),
(419,371,o),
(429,383,c),
(445,396,o),
(442,398,o),
(442,410,cs),
(442,416,o),
(441,421,o),
(439,426,cs),
(431,443,o),
(430,467,o),
(440,486,cs),
(445,494,o),
(441,506,o),
(441,516,c),
(434,523,o),
(432,531,o),
(432,539,cs),
(433,566,o),
(433,578,o),
(440,590,cs),
(441,592,o),
(442,594,o),
(442,597,cs),
(442,606,o),
(431,615,o),
(431,626,cs),
(431,627,o),
(432,651,o),
(438,658,cs),
(441,662,o),
(441,669,o),
(441,674,cs),
(441,690,o),
(433,699,o),
(418,699,cs),
(402,699,o),
(262,704,o),
(260,690,cs),
(260,689,o),
(249,674,o),
(269,673,cs),
(270,673,o),
(279,673,o),
(291,673,cs),
(296,673,o),
(323,668,o),
(329,673,cs),
(334,677,o),
(339,670,o),
(344,673,cs),
(349,676,o),
(365,686,o),
(380,673,cs),
(380,673,o),
(407,672,o),
(407,670,cs),
(407,601,o),
(407,578,o),
(413,571,cs),
(415,569,o),
(415,562,o),
(413,560,cs),
(405,551,o),
(407,541,o),
(407,418,cs),
(407,388,o),
(409,399,o),
(386,376,cs),
(359,350,o),
(278,255,o),
(250,230,cs),
(236,218,o),
(234,200,o),
(216,200,cs),
(202,200,o),
(103,204,o),
(72,197,c),
(73,251,o),
(72,305,o),
(74,359,cs),
(74,370,o),
(83,380,o),
(77,391,cs),
(67,410,o),
(79,418,o),
(79,431,cs),
(77,663,l),
(79,673,o),
(75,684,o),
(70,691,cs),
(66,697,o),
(62,699,o),
(55,700,c),
(54,696,o),
(43,689,o),
(45,659,cs),
(45,651,o),
(47,625,o),
(47,617,cs),
(47,557,o),
(48,519,o),
(48,457,cs),
(47,439,o),
(45,419,o),
(48,403,cs),
(52,381,o),
(36,369,o),
(45,348,c),
(45,333,o),
(38,323,o),
(40,307,cs),
(41,290,o),
(37,240,o),
(46,224,c),
(42,210,o),
(43,200,o),
(47,185,c),
(50,179,o),
(49,165,o),
(48,155,cs),
(45,131,o),
(39,79,o),
(40,55,c)
);
},
{
closed = 1;
nodes = (
(78,151,o),
(79,160,o),
(78,169,c),
(192,172,ls),
(203,172,o),
(116,80,o),
(88,52,cs),
(74,38,l),
(78,55,o),
(82,77,o),
(74,96,c),
(83,111,o),
(78,127,o),
(73,142,c)
);
},
{
closed = 1;
nodes = (
(215,419,o),
(216,426,o),
(222,426,cs),
(226,426,o),
(230,423,o),
(232,419,c),
(233,418,o),
(233,416,o),
(232,413,c),
(230,411,o),
(228,409,o),
(225,410,c),
(218,410,o),
(215,413,o),
(215,417,cs)
);
}
);
width = 483;
}
);
unicode = 434;
},
{
glyphname = W;
lastChange = "2024-02-09 15:29:29 +0000";
layers = (
{
anchors = (
{
name = bottom;
pos = (329,0);
},
{
name = top;
pos = (329,700);
}
);
layerId = m01;
shapes = (
{
closed = 1;
nodes = (
(57,-12,o),
(68,-9,o),
(72,2,cs),
(79,15,o),
(103,64,o),
(116,72,c),
(130,97,o),
(237,290,o),
(254,323,c),
(270,334,o),
(275,353,o),
(285,367,cs),
(296,382,o),
(295,404,o),
(313,416,c),
(318,451,o),
(327,446,o),
(342,477,c),
(342,479,o),
(349,479,o),
(352,478,c),
(377,438,o),
(394,402,o),
(410,367,cs),
(417,351,o),
(427,335,o),
(435,320,cs),
(444,305,o),
(526,151,o),
(537,137,cs),
(548,122,o),
(551,105,o),
(560,89,cs),
(575,64,o),
(586,42,o),
(598,16,cs),
(602,6,o),
(612,3,o),
(618,-3,cs),
(632,-20,o),
(639,8,o),
(645,24,c),
(637,43,l),
(637,117,ls),
(637,140,o),
(645,153,o),
(645,177,cs),
(645,199,l),
(632,208,o),
(647,215,o),
(645,222,cs),
(642,231,o),
(634,243,o),
(641,249,cs),
(647,256,o),
(648,264,o),
(643,271,cs),
(634,282,o),
(638,295,o),
(638,307,c),
(644,313,o),
(646,319,o),
(646,325,cs),
(646,356,o),
(645,520,o),
(645,573,cs),
(645,579,o),
(645,585,o),
(646,592,cs),
(646,599,o),
(640,605,o),
(639,609,cs),
(639,615,o),
(645,619,o),
(639,625,cs),
(635,629,o),
(645,640,o),
(645,645,cs),
(646,653,o),
(646,684,o),
(645,691,c),
(642,699,o),
(611,709,o),
(611,683,cs),
(611,454,ls),
(611,445,o),
(613,437,o),
(618,430,c),
(611,422,o),
(610,414,o),
(610,406,cs),
(610,396,o),
(612,387,o),
(612,377,cs),
(611,282,o),
(611,185,o),
(611,89,cs),
(611,70,o),
(604,73,o),
(595,86,cs),
(591,91,o),
(536,197,o),
(370,501,c),
(366,506,o),
(361,514,o),
(365,519,cs),
(374,530,o),
(369,547,o),
(383,555,cs),
(386,557,o),
(390,562,o),
(389,564,c),
(388,575,o),
(396,580,o),
(402,588,cs),
(409,598,o),
(418,616,o),
(420,627,cs),
(426,647,o),
(441,661,o),
(453,678,c),
(454,681,o),
(457,691,o),
(455,692,c),
(446,694,o),
(438,702,o),
(428,702,cs),
(421,702,o),
(403,702,o),
(396,702,cs),
(355,702,o),
(370,691,o),
(338,694,cs),
(336,694,o),
(282,695,o),
(272,702,c),
(262,702,o),
(252,702,o),
(242,701,cs),
(239,701,o),
(234,690,o),
(236,685,cs),
(242,674,o),
(246,660,o),
(255,652,cs),
(268,641,o),
(267,627,o),
(276,616,cs),
(293,599,o),
(298,570,o),
(313,551,c),
(311,541,o),
(316,534,o),
(324,528,cs),
(332,521,o),
(332,513,o),
(326,504,cs),
(318,490,o),
(228,331,o),
(220,319,cs),
(212,310,o),
(204,299,o),
(203,290,cs),
(203,279,o),
(181,241,o),
(173,232,cs),
(167,226,o),
(159,217,o),
(159,207,cs),
(159,202,o),
(156,197,o),
(152,193,cs),
(143,185,o),
(86,80,o),
(75,66,cs),
(72,61,o),
(66,63,o),
(66,69,cs),
(66,208,ls),
(66,213,o),
(64,219,o),
(68,223,c),
(67,284,l),
(67,285,o),
(75,288,o),
(74,298,c),
(68,304,o),
(66,310,o),
(74,316,c),
(74,323,o),
(73,354,o),
(67,361,c),
(66,363,o),
(67,368,o),
(69,371,cs),
(78,381,o),
(78,394,o),
(72,406,cs),
(67,416,o),
(66,426,o),
(66,437,cs),
(66,521,ls),
(66,526,o),
(64,531,o),
(66,536,cs),
(69,543,o),
(79,547,o),
(71,555,cs),
(63,563,o),
(75,581,o),
(74,588,c),
(74,682,l),
(74,684,o),
(75,687,o),
(73,689,cs),
(46,713,o),
(40,691,o),
(40,683,c),
(40,16,ls),
(40,6,o),
(43,-3,o),
(49,-7,cs)
);
},
{
closed = 1;
nodes = (
(364,164,o),
(379,177,o),
(379,193,cs),
(379,202,o),
(371,225,o),
(347,225,cs),
(333,225,o),
(320,211,o),
(310,201,cs),
(305,194,o),
(305,185,o),
(310,178,cs),
(318,168,o),
(326,162,o),
(339,164,cs)
);
},
{
closed = 1;
nodes = (
(338,185,o),
(336,187,o),
(334,189,cs),
(333,192,o),
(333,194,o),
(334,195,cs),
(336,199,o),
(340,202,o),
(344,202,cs),
(350,202,o),
(351,195,o),
(351,193,cs),
(351,189,o),
(348,186,o),
(341,186,cs)
);
},
{
closed = 1;
nodes = (
(322,584,o),
(305,622,o),
(288,652,cs),
(283,668,o),
(304,657,o),
(315,668,cs),
(316,669,o),
(338,662,o),
(341,664,cs),
(360,677,o),
(379,669,o),
(402,669,cs),
(404,669,o),
(405,666,o),
(406,660,c),
(388,628,o),
(370,590,o),
(352,558,cs),
(346,549,o),
(343,551,o),
(340,554,c)
);
}
);
width = 686;
}
);
unicode = 87;
},
{
glyphname = X;
lastChange = "2024-01-17 15:05:21 +0000";
layers = (
{
anchors = (
{
name = bottom;
pos = (237,0);
},
{
name = top;
pos = (228,700);
}
);
layerId = m01;
shapes = (
{
closed = 1;
nodes = (
(52,1,o),
(58,5,o),
(58,18,cs),
(58,27,o),
(57,70,o),
(50,81,cs),
(47,85,o),
(50,96,o),
(53,102,cs),
(57,111,o),
(58,131,o),
(58,139,cs),
(58,159,o),
(60,172,o),
(74,184,cs),
(85,193,o),
(121,233,o),
(137,240,cs),
(149,246,o),
(158,257,o),
(168,267,cs),
(174,272,o),
(182,277,o),
(185,283,cs),
(193,301,o),
(211,311,o),
(224,324,cs),
(228,328,o),
(234,330,o),
(239,324,cs),
(252,312,o),
(270,302,o),
(278,285,cs),
(286,270,o),
(298,271,o),
(311,257,cs),
(330,239,o),
(350,220,o),
(370,201,cs),
(377,195,o),
(384,190,o),
(394,186,cs),
(402,184,o),
(406,177,o),
(406,168,cs),
(406,147,ls),
(406,138,o),
(409,129,o),
(415,120,cs),
(417,117,o),
(406,99,o),
(406,95,cs),
(406,92,o),
(414,89,o),
(415,86,cs),
(416,82,o),
(404,79,o),
(410,74,cs),
(415,69,o),
(415,65,o),
(412,60,cs),
(401,42,o),
(406,21,o),
(418,4,cs),
(425,-8,o),
(441,15,o),
(441,21,cs),
(441,151,ls),
(441,167,o),
(436,182,o),
(424,193,cs),
(415,200,o),
(404,207,o),
(400,216,cs),
(396,226,o),
(370,245,o),
(365,251,c),
(351,248,o),
(357,267,o),
(345,267,cs),
(342,267,o),
(339,269,o),
(338,270,cs),
(327,290,o),
(310,304,o),
(288,315,cs),
(282,317,o),
(280,324,o),
(275,330,cs),
(273,332,o),
(269,334,o),
(266,336,cs),
(258,341,o),
(257,346,o),
(262,351,cs),
(272,360,o),
(343,425,o),
(355,433,cs),
(366,440,o),
(368,456,o),
(380,462,cs),
(395,468,o),
(397,479,o),
(406,488,cs),
(418,498,o),
(430,509,o),
(441,518,c),
(441,561,ls),
(441,570,o),
(441,579,o),
(434,587,cs),
(427,595,o),
(440,600,o),
(440,611,cs),
(440,634,o),
(441,659,o),
(441,683,c),
(439,688,o),
(430,700,o),
(423,694,c),
(421,690,o),
(416,689,o),
(415,686,cs),
(413,676,o),
(414,665,o),
(409,656,cs),
(406,650,o),
(406,644,o),
(406,637,cs),
(406,557,ls),
(406,526,o),
(399,522,o),
(389,504,cs),
(386,498,o),
(378,499,o),
(376,495,cs),
(366,478,o),
(346,468,o),
(335,452,cs),
(323,435,o),
(303,428,o),
(290,414,cs),
(276,399,o),
(259,386,o),
(244,373,cs),
(240,369,o),
(236,367,o),
(230,371,cs),
(204,394,o),
(182,419,o),
(151,435,cs),
(142,440,o),
(139,455,o),
(130,457,cs),
(120,461,o),
(121,471,o),
(114,473,cs),
(103,476,o),
(95,480,o),
(93,490,cs),
(90,500,o),
(79,497,o),
(73,502,cs),
(65,510,o),
(58,518,o),
(58,530,cs),
(58,573,o),
(59,615,o),
(59,656,cs),
(59,671,o),
(48,681,o),
(46,695,cs),
(46,696,o),
(41,698,o),
(39,697,cs),
(31,695,o),
(24,689,o),
(24,681,cs),
(24,674,l),
(24,644,ls),
(24,634,o),
(25,623,o),
(32,613,c),
(32,568,ls),
(32,555,o),
(24,540,o),
(24,526,cs),
(24,519,o),
(26,512,o),
(32,507,cs),
(56,487,o),
(84,469,o),
(99,442,cs),
(100,440,o),
(103,437,o),
(106,437,cs),
(118,435,o),
(188,372,o),
(215,348,c),
(192,320,o),
(159,300,o),
(133,274,cs),
(119,262,o),
(26,192,o),
(24,178,cs),
(21,162,o),
(20,141,o),
(20,121,cs),
(21,65,o),
(24,74,o),
(24,19,cs),
(24,9,o),
(35,1,o),
(44,1,cs)
);
},
{
closed = 1;
nodes = (
(260,138,o),
(263,145,o),
(264,151,cs),
(267,158,o),
(264,164,o),
(259,169,cs),
(250,180,o),
(217,196,o),
(206,185,c),
(201,177,o),
(195,168,o),
(193,158,cs),
(193,152,o),
(201,144,o),
(203,136,cs),
(207,117,o),
(232,117,o),
(256,134,cs)
);
},
{
closed = 1;
nodes = (
(231,146,o),
(224,146,o),
(223,151,cs),
(222,153,o),
(220,155,o),
(220,157,cs),
(220,160,o),
(222,162,o),
(223,164,c),
(226,167,o),
(236,163,o),
(238,160,cs),
(239,159,o),
(240,157,o),
(239,155,cs),
(239,153,o),
(238,151,o),
(237,150,cs)
);
},
{
closed = 1;
nodes = (
(257,528,o),
(265,551,o),
(265,560,cs),
(265,576,o),
(250,589,o),
(225,589,cs),
(212,591,o),
(204,585,o),
(196,575,cs),
(191,568,o),
(191,559,o),
(196,552,cs),
(206,542,o),
(219,528,o),
(233,528,cs)
);
},
{
closed = 1;
nodes = (
(226,550,o),
(222,553,o),
(220,557,cs),
(219,558,o),
(219,560,o),
(220,563,cs),
(222,565,o),
(224,567,o),
(227,566,cs),
(234,566,o),
(237,563,o),
(237,559,cs),
(237,557,o),
(236,550,o),
(230,550,cs)
);
}
);
width = 461;
}
);
unicode = 88;
},
{
glyphname = Y;
lastChange = "2024-02-09 15:42:38 +0000";
layers = (
{
anchors = (
{
name = bottom;
pos = (255,0);
},
{
name = top;
pos = (243,700);
},
{
name = topleft;
pos = (0,700);
}
);
layerId = m01;
shapes = (
{
closed = 1;
nodes = (
(164,1,ls),
(204,1,o),
(305,1,o),
(338,1,cs),
(418,1,ls),
(436,1,o),
(451,19,o),
(451,34,cs),
(451,35,o),
(452,70,o),
(444,102,c),
(444,109,o),
(445,116,o),
(447,123,cs),
(455,147,o),
(452,177,o),
(448,202,c),
(448,221,o),
(423,208,o),
(417,199,cs),
(415,197,o),
(417,191,o),
(417,187,cs),
(417,152,o),
(415,45,o),
(414,31,c),
(408,28,o),
(402,27,o),
(396,27,cs),
(388,27,o),
(328,28,o),
(318,27,c),
(305,27,o),
(293,29,o),
(280,29,cs),
(278,29,o),
(276,28,o),
(274,28,cs),
(268,27,o),
(255,46,o),
(259,52,cs),
(263,57,o),
(264,79,o),
(264,85,cs),
(264,90,o),
(263,95,o),
(263,100,cs),
(264,112,o),
(264,201,o),
(264,289,cs),
(264,304,o),
(265,315,o),
(281,323,cs),
(293,328,o),
(306,339,o),
(312,351,cs),
(319,366,o),
(386,433,o),
(410,455,cs),
(425,468,o),
(433,487,o),
(446,501,cs),
(449,504,o),
(450,511,o),
(450,516,cs),
(450,535,o),
(450,652,o),
(450,689,cs),
(450,707,o),
(417,700,o),
(417,680,cs),
(415,638,o),
(417,600,o),
(417,558,cs),
(417,551,o),
(418,544,o),
(424,538,cs),
(425,537,o),
(425,533,o),
(424,531,cs),
(416,509,o),
(408,505,o),
(391,488,cs),
(384,479,o),
(380,469,o),
(372,461,cs),
(337,424,o),
(300,388,o),
(264,352,cs),
(258,346,o),
(253,346,o),
(246,352,cs),
(189,406,o),
(139,467,o),
(75,515,cs),
(69,519,o),
(68,526,o),
(68,533,cs),
(68,659,ls),
(68,666,o),
(68,673,o),
(73,679,cs),
(74,680,o),
(74,684,o),
(72,685,c),
(67,691,o),
(55,702,o),
(50,697,cs),
(45,693,o),
(42,687,o),
(42,679,cs),
(42,665,o),
(42,548,o),
(40,537,cs),
(40,536,o),
(40,535,o),
(40,534,cs),
(40,525,o),
(43,504,o),
(47,500,cs),
(61,489,o),
(70,472,o),
(88,465,cs),
(94,463,o),
(99,456,o),
(102,450,cs),
(111,432,o),
(126,418,o),
(142,408,cs),
(157,399,o),
(168,387,o),
(178,374,cs),
(181,371,o),
(182,366,o),
(185,365,cs),
(204,357,o),
(214,338,o),
(229,326,cs),
(240,318,o),
(241,305,o),
(237,296,c),
(229,245,l),
(229,238,o),
(231,231,o),
(237,225,c),
(238,223,o),
(238,218,o),
(237,217,cs),
(231,211,o),
(229,204,o),
(229,196,cs),
(229,174,o),
(230,52,o),
(229,38,cs),
(229,32,o),
(228,27,o),
(220,27,cs),
(88,27,ls),
(79,27,o),
(76,30,o),
(76,40,cs),
(76,102,o),
(76,147,o),
(77,183,cs),
(77,211,o),
(51,213,o),
(51,200,c),
(51,75,o),
(50,71,o),
(43,63,cs),
(41,61,o),
(41,53,o),
(43,51,cs),
(50,41,o),
(51,31,o),
(51,19,cs),
(52,9,o),
(61,1,o),
(71,1,cs)
);
},
{
closed = 1;
nodes = (
(282,526,o),
(285,533,o),
(286,539,cs),
(289,546,o),
(286,552,o),
(281,557,cs),
(272,568,o),
(239,584,o),
(228,573,c),
(223,565,o),
(217,556,o),
(215,546,cs),
(215,540,o),
(223,532,o),
(225,524,cs),
(229,505,o),
(254,505,o),
(278,522,cs)
);
},
{
closed = 1;
nodes = (
(253,534,o),
(246,534,o),
(245,539,cs),
(244,541,o),
(242,543,o),
(242,545,cs),
(242,548,o),
(244,550,o),
(245,552,c),
(248,555,o),
(258,551,o),
(260,548,cs),
(261,547,o),
(262,545,o),
(261,543,cs),
(261,541,o),
(260,539,o),
(259,538,cs)
);
}
);
width = 492;
}
);
unicode = 89;
},
{
glyphname = Ystroke;
lastChange = "2023-11-11 14:41:05 +0000";
layers = (
{
anchors = (
{
name = bottom;
pos = (332,0);
},
{
name = top;
pos = (332,700);
},
{
name = topleft;
pos = (77,700);
}
);
layerId = m01;
shapes = (
{
closed = 1;
nodes = (
(241,1,ls),
(281,1,o),
(382,1,o),
(415,1,cs),
(495,1,ls),
(513,1,o),
(528,19,o),
(528,34,cs),
(528,35,o),
(529,70,o),
(521,102,c),
(521,109,o),
(522,116,o),
(524,123,cs),
(532,147,o),
(529,177,o),
(525,202,c),
(525,221,o),
(500,208,o),
(494,199,cs),
(492,197,o),
(494,191,o),
(494,187,cs),
(494,152,o),
(492,53,o),
(491,39,c),
(485,36,o),
(479,35,o),
(473,35,cs),
(465,35,o),
(405,36,o),
(395,35,c),
(382,35,o),
(370,45,o),
(357,45,cs),
(355,45,o),
(353,44,o),
(351,44,cs),
(345,43,o),
(332,62,o),
(336,68,cs),
(340,73,o),
(341,79,o),
(341,85,cs),
(341,90,o),
(340,95,o),
(340,100,cs),
(341,112,o),
(341,201,o),
(341,289,cs),
(341,304,o),
(342,315,o),
(358,323,cs),
(370,328,o),
(383,339,o),
(389,351,cs),
(396,366,o),
(463,433,o),
(487,455,cs),
(502,468,o),
(510,487,o),
(523,501,cs),
(526,504,o),
(527,511,o),
(527,516,cs),
(527,535,o),
(527,652,o),
(527,689,cs),
(527,707,o),
(494,700,o),
(494,680,cs),
(492,638,o),
(494,600,o),
(494,558,cs),
(494,551,o),
(495,544,o),
(501,538,cs),
(502,537,o),
(502,533,o),
(501,531,cs),
(493,509,o),
(485,505,o),
(468,488,cs),
(461,479,o),
(377,388,o),
(341,352,cs),
(335,346,o),
(330,346,o),
(323,352,cs),
(266,406,o),
(216,467,o),
(152,515,cs),
(146,519,o),
(145,526,o),
(145,533,cs),
(145,659,ls),
(145,666,o),
(145,673,o),
(150,679,cs),
(151,680,o),
(151,684,o),
(149,685,c),
(144,691,o),
(132,702,o),
(127,697,cs),
(122,693,o),
(119,687,o),
(119,679,cs),
(119,665,o),
(119,548,o),
(117,537,cs),
(117,536,o),
(117,535,o),
(117,534,cs),
(117,525,o),
(120,504,o),
(124,500,cs),
(138,489,o),
(147,472,o),
(165,465,cs),
(171,463,o),
(176,456,o),
(179,450,cs),
(188,432,o),
(203,418,o),
(219,408,cs),
(234,399,o),
(245,387,o),
(255,374,cs),
(258,371,o),
(259,366,o),
(262,365,cs),
(281,357,o),
(291,338,o),
(306,326,cs),
(317,318,o),
(318,305,o),
(314,296,c),
(306,245,l),
(306,238,o),
(308,231,o),
(314,225,c),
(315,223,o),
(315,218,o),
(314,217,cs),
(308,211,o),
(306,204,o),
(306,196,cs),
(306,174,o),
(307,60,o),
(306,46,cs),
(306,40,o),
(305,35,o),
(297,35,cs),
(165,35,ls),
(156,35,o),
(153,38,o),
(153,48,cs),
(153,110,o),
(153,147,o),
(154,183,cs),
(154,211,o),
(128,213,o),
(128,200,c),
(128,75,o),
(127,71,o),
(120,63,cs),
(118,61,o),
(118,53,o),
(120,51,cs),
(127,41,o),
(128,31,o),
(128,19,cs),
(129,9,o),
(138,1,o),
(148,1,cs)
);
},
{
closed = 1;
nodes = (
(400,557,o),
(422,558,o),
(444,557,cs),
(490,557,o),
(599,553,o),
(637,568,c),
(634,574,l),
(615,587,o),
(584,590,o),
(541,589,c),
(529,585,o),
(516,588,o),
(502,588,cs),
(494,588,o),
(485,588,o),
(477,588,cs),
(440,588,o),
(227,588,o),
(188,589,cs),
(172,589,o),
(157,589,o),
(141,590,cs),
(123,590,o),
(106,590,o),
(91,590,cs),
(83,590,o),
(76,590,o),
(68,590,c),
(41,590,o),
(27,584,o),
(7,583,cs),
(-1,582,o),
(-2,570,o),
(6,569,cs),
(26,564,o),
(48,558,o),
(71,558,cs),
(80,558,o),
(90,559,o),
(99,561,cs),
(129,567,o),
(190,564,o),
(219,564,cs),
(241,563,o),
(271,564,o),
(294,564,cs),
(302,564,o),
(310,564,o),
(315,563,cs),
(335,558,o),
(357,557,o),
(378,557,cs)
);
}
);
width = 637;
}
);
unicode = 590;
},
{
glyphname = Z;
lastChange = "2024-02-09 15:42:46 +0000";
layers = (
{
anchors = (
{
name = bottom;
pos = (227,0);
},
{
name = center;
pos = (230,351);
},
{
name = top;
pos = (225,698);
}
);
layerId = m01;
shapes = (
{
closed = 1;
nodes = (
(410,0,l),
(422,0,o),
(431,8,o),
(431,19,cs),
(431,22,l),
(431,337,ls),
(431,340,o),
(431,342,o),
(430,345,cs),
(429,347,o),
(426,348,o),
(423,349,cs),
(413,351,o),
(402,347,o),
(399,338,cs),
(391,318,o),
(374,302,o),
(371,281,cs),
(371,278,o),
(368,274,o),
(365,271,cs),
(355,264,o),
(352,253,o),
(346,243,cs),
(327,209,o),
(233,53,o),
(220,42,c),
(215,31,o),
(212,30,o),
(203,30,cs),
(90,29,ls),
(72,29,o),
(71,33,o),
(80,46,cs),
(90,61,o),
(115,91,o),
(118,110,cs),
(121,125,o),
(149,167,o),
(159,176,cs),
(165,183,o),
(168,192,o),
(171,200,cs),
(172,204,o),
(172,209,o),
(177,213,cs),
(187,220,o),
(202,263,o),
(205,275,cs),
(208,287,o),
(310,471,o),
(321,480,cs),
(334,491,o),
(330,506,o),
(340,516,cs),
(350,528,o),
(366,575,o),
(378,585,cs),
(387,593,o),
(385,606,o),
(391,616,cs),
(401,631,o),
(409,649,o),
(419,665,cs),
(423,672,o),
(435,680,o),
(430,686,cs),
(425,692,o),
(414,695,o),
(405,698,cs),
(398,700,o),
(392,698,o),
(385,698,cs),
(57,698,ls),
(39,698,o),
(31,692,o),
(31,676,cs),
(31,573,ls),
(31,564,o),
(28,532,o),
(34,519,c),
(28,508,o),
(31,466,o),
(31,458,cs),
(31,363,ls),
(31,358,o),
(29,352,o),
(31,347,cs),
(32,344,o),
(40,341,o),
(42,342,cs),
(52,349,o),
(61,357,o),
(66,368,cs),
(77,390,o),
(95,411,o),
(101,436,cs),
(105,452,o),
(132,477,o),
(134,492,cs),
(135,499,o),
(138,506,o),
(143,512,cs),
(162,532,o),
(209,622,o),
(223,646,cs),
(226,651,o),
(233,654,o),
(238,659,c),
(251,659,o),
(261,667,o),
(272,667,cs),
(276,667,o),
(309,667,o),
(318,667,cs),
(327,667,o),
(325,666,o),
(354,659,c),
(356,660,o),
(358,666,o),
(361,667,cs),
(369,670,o),
(386,664,o),
(381,654,cs),
(354,607,o),
(262,440,o),
(256,427,cs),
(247,408,o),
(238,388,o),
(222,373,cs),
(218,369,o),
(214,362,o),
(214,358,cs),
(214,346,o),
(186,289,o),
(167,271,c),
(163,237,o),
(59,69,o),
(39,47,cs),
(30,38,o),
(26,26,o),
(21,14,cs),
(18,8,o),
(23,0,o),
(30,0,cs)
);
},
{
closed = 1;
nodes = (
(254,28,o),
(253,32,o),
(258,43,cs),
(273,72,o),
(403,290,o),
(406,290,c),
(406,66,o),
(403,37,o),
(399,30,c),
(340,25,o),
(322,31,o),
(268,29,cs)
);
},
{
closed = 1;
nodes = (
(55,400,o),
(57,426,o),
(57,440,cs),
(58,448,o),
(54,457,o),
(62,466,c),
(54,492,o),
(57,498,o),
(63,520,c),
(57,552,o),
(58,556,o),
(56,560,cs),
(54,566,o),
(66,569,o),
(63,576,c),
(54,596,o),
(59,625,o),
(59,647,cs),
(59,651,o),
(60,658,o),
(63,660,cs),
(68,665,o),
(74,668,o),
(83,669,cs),
(87,670,o),
(91,658,o),
(99,666,cs),
(105,672,o),
(134,656,o),
(138,660,cs),
(156,672,o),
(190,672,o),
(199,665,c),
(195,657,o),
(191,651,o),
(186,646,cs),
(175,630,o),
(164,614,o),
(159,593,cs),
(158,589,o),
(155,586,o),
(151,580,cs),
(127,551,o),
(118,517,o),
(95,488,cs),
(88,482,o),
(91,474,o),
(87,467,cs),
(80,452,o),
(67,424,o),
(59,409,cs)
);
}
);
width = 451;
}
);
unicode = 90;
},
{
glyphname = Saltillo;
lastChange = "2023-11-03 10:39:56 +0000";
layers = (
{
layerId = m01;
shapes = (
{
closed = 1;
nodes = (
(66,431,o),
(72,455,o),
(72,500,cs),
(72,614,ls),
(72,626,o),
(72,668,o),
(71,680,c),
(69,687,o),
(60,687,o),
(60,695,cs),
(60,705,o),
(44,707,o),
(42,696,cs),
(37,670,o),
(30,640,o),
(30,610,cs),
(30,539,o),
(39,577,o),
(39,500,cs),
(39,466,o),
(38,462,o),
(39,457,cs),
(45,425,o),
(51,431,o),
(56,431,cs)
);
}
);
width = 102;
}
);
unicode = 42891;
},
{
glyphname = a;
kernLeft = a;
lastChange = "2024-02-03 09:45:34 +0000";
layers = (
{
anchors = (
{
name = bottom;
pos = (246,5);
},
{
name = ogonek;
pos = (395,-2);
},
{
name = top;
pos = (276,450);
}
);
layerId = m01;
shapes = (
{
closed = 1;
nodes = (
(50,-1,o),
(54,-1,o),
(59,-1,cs),
(78,1,o),
(126,7,o),
(143,-2,c),
(181,16,o),
(266,-4,o),
(305,-4,cs),
(318,-4,o),
(332,-2,o),
(345,-2,cs),
(395,-2,o),
(372,6,o),
(423,4,cs),
(444,3,o),
(448,21,o),
(454,44,c),
(449,56,o),
(448,67,o),
(448,80,cs),
(448,89,o),
(448,98,o),
(449,108,cs),
(458,248,o),
(449,221,o),
(449,404,cs),
(449,420,o),
(447,439,o),
(440,444,c),
(435,454,o),
(407,458,o),
(370,452,cs),
(357,449,o),
(120,452,o),
(101,452,cs),
(88,452,o),
(85,443,o),
(73,440,cs),
(69,439,o),
(68,427,o),
(73,426,c),
(85,423,o),
(97,415,o),
(110,415,cs),
(115,415,o),
(121,416,o),
(126,420,cs),
(136,424,o),
(154,425,o),
(164,425,cs),
(189,424,o),
(208,422,o),
(232,425,cs),
(242,425,o),
(254,427,o),
(261,424,cs),
(273,417,o),
(286,416,o),
(298,416,cs),
(309,416,o),
(382,421,o),
(390,421,cs),
(415,421,o),
(422,387,o),
(422,370,cs),
(422,342,o),
(391,349,o),
(373,329,c),
(346,320,o),
(330,310,o),
(318,299,cs),
(294,278,o),
(271,258,o),
(247,238,cs),
(222,216,o),
(186,202,o),
(162,173,cs),
(143,149,o),
(98,136,o),
(72,104,c),
(56,90,o),
(43,77,o),
(29,67,cs),
(11,54,o),
(0,37,o),
(0,24,cs),
(0,10,o),
(13,-1,o),
(46,-1,cs)
);
},
{
closed = 1;
nodes = (
(126,36,o),
(75,31,o),
(62,31,cs),
(38,31,o),
(81,77,o),
(88,83,cs),
(106,99,o),
(178,141,o),
(206,169,cs),
(215,178,o),
(226,190,o),
(236,194,cs),
(272,207,o),
(296,242,o),
(327,266,c),
(342,298,o),
(404,297,o),
(422,327,c),
(417,271,o),
(414,128,o),
(417,72,cs),
(418,32,o),
(381,33,o),
(365,33,cs),
(341,32,o),
(316,32,o),
(292,32,cs),
(268,32,o),
(167,40,o),
(142,26,c)
);
},
{
closed = 1;
nodes = (
(300,99,o),
(313,113,o),
(323,123,cs),
(328,130,o),
(328,139,o),
(323,146,cs),
(315,156,o),
(307,162,o),
(294,160,cs),
(269,160,o),
(254,147,o),
(254,131,cs),
(254,122,o),
(262,99,o),
(286,99,cs)
);
},
{
closed = 1;
nodes = (
(283,122,o),
(282,129,o),
(282,131,cs),
(282,135,o),
(285,138,o),
(292,138,cs),
(295,139,o),
(297,137,o),
(299,135,cs),
(300,132,o),
(300,130,o),
(299,129,cs),
(297,125,o),
(293,122,o),
(289,122,cs)
);
}
);
width = 494;
}
);
unicode = 97;
},
{
glyphname = "alpha-latin";
lastChange = "2023-12-16 07:08:16 +0000";
layers = (
{
anchors = (
{
name = bottom;
pos = (230,0);
},
{
name = center;
pos = (233,232);
},
{
name = ogonek;
pos = (457,41);
},
{
name = top;
pos = (230,450);
},
{
name = topright;
pos = (329,742);
}
);
layerId = m01;
shapes = (
{
closed = 1;
nodes = (
(183,17,o),
(188,29,o),
(198,28,cs),
(213,27,o),
(290,27,o),
(298,30,cs),
(307,33,o),
(315,18,o),
(324,31,c),
(343,18,o),
(360,25,o),
(383,25,cs),
(392,25,o),
(401,30,o),
(410,36,cs),
(413,38,o),
(413,46,o),
(413,51,cs),
(413,279,o),
(413,282,o),
(413,418,c),
(413,424,o),
(414,476,o),
(408,476,c),
(392,488,o),
(375,463,o),
(379,455,cs),
(387,439,o),
(379,427,o),
(377,427,cs),
(282,428,o),
(132,431,o),
(40,427,c),
(40,344,o),
(40,250,o),
(40,164,cs),
(40,121,o),
(40,120,o),
(40,78,cs),
(40,68,o),
(40,58,o),
(40,49,cs),
(41,37,o),
(49,28,o),
(61,28,cs),
(70,27,o),
(136,28,o),
(144,27,cs),
(154,27,o),
(165,28,o),
(172,24,cs)
);
},
{
closed = 1;
nodes = (
(240,53,o),
(230,51,o),
(221,58,cs),
(218,60,o),
(209,53,o),
(204,54,cs),
(198,56,o),
(193,62,o),
(187,55,cs),
(185,53,o),
(180,53,o),
(179,54,cs),
(172,60,o),
(99,57,o),
(76,58,cs),
(70,58,o),
(66,65,o),
(69,70,cs),
(75,77,o),
(76,84,o),
(76,93,cs),
(76,114,o),
(73,161,o),
(73,183,cs),
(73,192,o),
(72,199,o),
(67,206,cs),
(65,208,o),
(66,214,o),
(68,217,cs),
(73,224,o),
(75,231,o),
(75,238,cs),
(75,245,o),
(73,251,o),
(71,257,cs),
(66,267,o),
(65,274,o),
(73,282,cs),
(74,284,o),
(73,288,o),
(72,290,c),
(72,352,l),
(74,353,o),
(72,360,o),
(70,362,cs),
(62,371,o),
(65,380,o),
(70,393,c),
(84,395,o),
(117,397,o),
(132,397,cs),
(142,397,o),
(152,400,o),
(161,390,c),
(175,387,o),
(182,402,o),
(190,390,c),
(200,390,o),
(329,397,o),
(338,396,cs),
(352,394,o),
(377,392,o),
(381,392,c),
(381,293,o),
(388,320,o),
(379,214,cs),
(379,205,o),
(379,195,o),
(379,185,cs),
(379,137,ls),
(379,128,o),
(379,66,o),
(375,59,c),
(324,58,o),
(265,53,o),
(249,53,cs)
);
},
{
closed = 1;
nodes = (
(256,219,ls),
(267,230,o),
(250,233,o),
(250,248,cs),
(250,268,o),
(222,266,o),
(208,264,cs),
(199,262,o),
(190,247,o),
(190,236,cs),
(190,230,o),
(192,225,o),
(196,220,cs),
(205,208,o),
(228,191,o),
(242,205,cs)
);
},
{
closed = 1;
nodes = (
(225,221,o),
(219,226,o),
(217,229,cs),
(215,230,o),
(215,232,o),
(215,233,cs),
(215,236,o),
(217,240,o),
(220,241,cs),
(224,242,o),
(231,242,o),
(231,237,cs),
(231,232,o),
(236,232,o),
(233,229,cs),
(229,225,ls)
);
},
{
closed = 1;
nodes = (
(372,31,o),
(389,28,o),
(391,-6,c),
(398,-10,o),
(403,-16,o),
(408,-3,cs),
(411,6,o),
(412,19,o),
(412,53,c),
(379,66,l)
);
}
);
width = 453;
}
);
unicode = 593;
},
{
glyphname = astroke;
lastChange = "2024-01-20 05:08:13 +0000";
layers = (
{
anchors = (
{
name = bottom;
pos = (246,5);
},
{
name = ogonek;
pos = (494,47);
},
{
name = top;
pos = (276,450);
}
);
layerId = m01;
shapes = (
{
closed = 1;
nodes = (
(121,-46,l),
(117,-38,o),
(123,-30,o),
(126,-21,cs),
(151,36,o),
(196,123,o),
(198,129,cs),
(202,137,o),
(206,142,o),
(214,145,c),
(215,146,o),
(217,153,o),
(217,157,cs),
(214,168,o),
(263,270,o),
(270,276,cs),
(279,284,o),
(286,291,o),
(284,304,c),
(292,308,o),
(296,314,o),
(299,322,cs),
(313,353,o),
(367,479,o),
(369,483,cs),
(372,489,o),
(373,493,o),
(370,501,cs),
(370,515,o),
(369,520,o),
(348,521,c),
(328,478,o),
(329,474,o),
(324,466,cs),
(298,406,ls),
(296,400,o),
(290,376,o),
(281,378,c),
(279,370,o),
(263,323,o),
(260,315,cs),
(158,125,o),
(148,102,o),
(138,98,cs),
(135,96,o),
(128,84,o),
(130,80,cs),
(132,66,o),
(111,7,o),
(97,12,c),
(96,-2,o),
(88,-36,o),
(83,-49,c),
(74,-79,o),
(106,-65,o),
(107,-64,cs)
);
},
{
closed = 1;
nodes = (
(318,-4,o),
(332,-2,o),
(345,-2,cs),
(395,-2,o),
(372,6,o),
(423,4,cs),
(444,3,o),
(448,21,o),
(454,44,c),
(449,56,o),
(448,67,o),
(448,80,cs),
(448,89,o),
(448,98,o),
(449,108,cs),
(458,248,o),
(449,221,o),
(449,404,cs),
(449,420,o),
(447,439,o),
(440,444,c),
(435,454,o),
(407,458,o),
(370,452,cs),
(357,449,o),
(120,452,o),
(101,452,cs),
(88,452,o),
(85,443,o),
(73,440,cs),
(69,439,o),
(68,427,o),
(73,426,c),
(85,423,o),
(97,415,o),
(110,415,cs),
(115,415,o),
(121,416,o),
(126,420,cs),
(136,424,o),
(154,425,o),
(164,425,cs),
(189,424,o),
(208,422,o),
(232,425,cs),
(242,425,o),
(254,427,o),
(261,424,cs),
(273,417,o),
(286,416,o),
(298,416,cs),
(309,416,o),
(382,421,o),
(390,421,cs),
(415,421,o),
(422,387,o),
(422,370,cs),
(422,342,o),
(391,349,o),
(373,329,c),
(346,320,o),
(330,310,o),
(318,299,cs),
(294,278,o),
(271,258,o),
(247,238,cs),
(222,216,o),
(186,202,o),
(162,173,cs),
(143,149,o),
(98,136,o),
(72,104,c),
(56,90,o),
(43,77,o),
(29,67,cs),
(11,54,o),
(0,37,o),
(0,24,cs),
(0,10,o),
(13,-1,o),
(46,-1,cs),
(50,-1,o),
(54,-1,o),
(59,-1,cs),
(78,1,o),
(126,7,o),
(143,-2,c),
(181,16,o),
(266,-4,o),
(305,-4,cs)
);
},
{
closed = 1;
nodes = (
(126,36,o),
(75,31,o),
(62,31,cs),
(38,31,o),
(81,77,o),
(88,83,cs),
(106,99,o),
(178,141,o),
(206,169,cs),
(215,178,o),
(226,190,o),
(236,194,cs),
(272,207,o),
(296,242,o),
(327,266,c),
(342,298,o),
(404,297,o),
(422,327,c),
(417,271,o),
(414,128,o),
(417,72,cs),
(418,32,o),
(381,33,o),
(365,33,cs),
(341,32,o),
(316,32,o),
(292,32,cs),
(268,32,o),
(167,40,o),
(142,26,c)
);
}
);
width = 524;
}
);
unicode = 11365;
},
{
glyphname = ae;
lastChange = "2023-11-05 14:52:43 +0000";
layers = (
{
anchors = (
{
name = bottom;
pos = (421,0);
},
{
name = top;
pos = (421,450);
}
);
layerId = m01;
shapes = (
{
closed = 1;
nodes = (
(41,-8,o),
(47,-7,o),
(53,-3,cs),
(63,0,o),
(72,1,o),
(83,1,cs),
(91,1,o),
(127,1,o),
(137,-3,c),
(166,9,o),
(197,1,o),
(229,1,cs),
(239,1,o),
(252,4,o),
(260,1,cs),
(277,-6,o),
(295,-8,o),
(312,-8,cs),
(326,-8,o),
(339,-7,o),
(352,-7,c),
(366,0,o),
(382,1,o),
(398,1,cs),
(559,6,o),
(348,1,o),
(647,1,cs),
(655,1,o),
(690,1,o),
(698,-7,c),
(704,-7,o),
(724,-9,o),
(732,-3,cs),
(744,2,o),
(751,1,o),
(760,-7,c),
(762,-8,o),
(769,-7,o),
(772,-3,cs),
(780,4,o),
(786,0,o),
(792,-3,c),
(819,2,o),
(848,29,o),
(804,29,cs),
(575,29,ls),
(566,29,o),
(556,27,o),
(549,30,cs),
(526,41,o),
(521,41,o),
(496,33,c),
(475,47,o),
(478,28,o),
(462,28,cs),
(449,28,o),
(448,66,o),
(448,87,cs),
(448,121,o),
(454,178,o),
(454,206,cs),
(454,268,o),
(455,284,o),
(455,299,cs),
(455,311,o),
(448,324,o),
(448,336,cs),
(448,338,o),
(448,340,o),
(449,344,cs),
(454,359,o),
(448,370,o),
(448,387,cs),
(448,393,o),
(448,400,o),
(447,406,c),
(469,391,o),
(523,343,o),
(544,326,cs),
(576,300,o),
(617,280,o),
(639,249,c),
(670,242,o),
(678,219,o),
(697,204,cs),
(705,198,o),
(712,189,o),
(722,187,cs),
(746,181,o),
(777,150,o),
(798,137,cs),
(806,132,o),
(815,134,o),
(824,139,cs),
(837,148,o),
(827,164,o),
(841,173,c),
(833,179,o),
(833,208,o),
(833,214,cs),
(833,327,o),
(832,301,o),
(832,414,cs),
(832,425,o),
(830,451,o),
(806,451,cs),
(420,456,o),
(226,454,o),
(113,454,cs),
(98,454,o),
(90,447,o),
(77,443,cs),
(73,442,o),
(73,428,o),
(77,426,cs),
(89,422,o),
(101,414,o),
(115,414,cs),
(120,414,o),
(125,415,o),
(131,419,cs),
(153,429,o),
(200,421,o),
(226,424,cs),
(236,424,o),
(248,426,o),
(255,424,cs),
(276,413,o),
(324,416,o),
(342,414,c),
(354,422,o),
(365,423,o),
(376,423,cs),
(419,422,o),
(406,423,o),
(410,386,cs),
(411,378,o),
(409,374,o),
(410,369,c),
(397,363,o),
(385,350,o),
(371,348,c),
(362,329,o),
(347,320,o),
(334,310,cs),
(310,291,o),
(287,273,o),
(264,254,cs),
(239,235,o),
(212,222,o),
(189,195,cs),
(169,173,o),
(92,121,o),
(66,91,c),
(50,78,o),
(39,65,o),
(26,54,cs),
(-22,12,o),
(6,-8,o),
(36,-8,cs)
);
},
{
closed = 1;
nodes = (
(116,36,o),
(101,29,o),
(79,32,cs),
(69,32,o),
(61,31,o),
(53,31,c),
(56,35,o),
(60,38,o),
(63,44,cs),
(70,55,o),
(200,162,o),
(228,187,cs),
(237,196,o),
(248,207,o),
(258,210,cs),
(294,222,o),
(319,253,o),
(349,274,c),
(366,305,o),
(395,309,o),
(414,337,c),
(414,325,o),
(414,312,o),
(417,301,cs),
(423,275,o),
(417,261,o),
(417,235,cs),
(417,159,o),
(417,78,o),
(417,60,cs),
(417,51,o),
(417,44,o),
(417,35,c),
(412,35,o),
(407,36,o),
(399,38,c),
(392,33,o),
(365,32,o),
(359,32,cs),
(259,32,o),
(273,30,o),
(169,33,cs),
(158,33,o),
(147,31,o),
(136,26,c)
);
},
{
closed = 1;
nodes = (
(596,114,o),
(609,128,o),
(619,138,cs),
(624,145,o),
(624,154,o),
(619,161,cs),
(611,171,o),
(603,177,o),
(590,175,cs),
(565,175,o),
(550,162,o),
(550,146,cs),
(550,137,o),
(558,114,o),
(582,114,cs)
);
},
{
closed = 1;
nodes = (
(579,137,o),
(578,144,o),
(578,146,cs),
(578,150,o),
(581,153,o),
(588,153,cs),
(591,154,o),
(593,152,o),
(595,150,cs),
(596,147,o),
(596,145,o),
(595,144,cs),
(593,140,o),
(589,137,o),
(585,137,cs)
);
},
{
closed = 1;
nodes = (
(789,174,o),
(774,194,o),
(753,200,cs),
(739,206,o),
(744,219,o),
(730,219,c),
(667,275,o),
(656,279,o),
(648,285,cs),
(635,289,o),
(633,304,o),
(617,307,c),
(597,335,o),
(567,355,o),
(533,370,cs),
(523,376,o),
(515,384,o),
(510,392,cs),
(503,403,o),
(494,410,o),
(482,421,c),
(493,421,ls),
(503,421,o),
(514,420,o),
(524,420,cs),
(562,421,o),
(571,432,o),
(610,421,c),
(674,421,ls),
(699,421,o),
(699,438,o),
(728,426,cs),
(733,425,o),
(739,421,o),
(745,421,cs),
(798,421,l),
(802,185,l)
);
}
);
width = 851;
}
);
unicode = 230;
},
{
glyphname = b;
lastChange = "2024-02-03 09:46:13 +0000";
layers = (
{
anchors = (
{
name = bottom;
pos = (244,0);
},
{
name = center;
pos = (244,225);
},
{
name = top;
pos = (244,450);
}
);
layerId = m01;
shapes = (
{
closed = 1;
nodes = (
(80,-1,o),
(92,-3,o),
(106,0,c),
(116,0,o),
(127,-8,o),
(138,0,cs),
(143,4,o),
(152,0,o),
(160,0,cs),
(409,-1,ls),
(417,-1,o),
(422,-2,o),
(430,-1,cs),
(438,-1,o),
(446,9,o),
(446,18,cs),
(446,64,o),
(447,100,o),
(447,146,cs),
(447,153,o),
(435,178,o),
(444,187,cs),
(450,194,o),
(441,219,o),
(441,225,cs),
(441,256,o),
(449,333,o),
(441,342,c),
(445,350,o),
(450,358,o),
(441,367,c),
(444,371,o),
(445,376,o),
(445,381,cs),
(445,396,o),
(438,415,o),
(438,431,c),
(440,440,o),
(430,449,o),
(422,450,c),
(94,451,l),
(76,453,o),
(70,484,o),
(71,654,c),
(71,660,o),
(69,700,o),
(64,700,cs),
(40,700,o),
(40,691,o),
(40,665,c),
(45,70,l),
(45,65,o),
(45,31,o),
(45,26,cs),
(45,13,o),
(45,-2,o),
(72,-1,cs)
);
},
{
closed = 1;
nodes = (
(269,187,o),
(284,200,o),
(284,216,cs),
(284,225,o),
(276,248,o),
(252,248,cs),
(238,248,o),
(225,234,o),
(215,224,cs),
(210,217,o),
(210,208,o),
(215,201,cs),
(223,191,o),
(231,185,o),
(244,187,cs)
);
},
{
closed = 1;
nodes = (
(243,208,o),
(241,210,o),
(239,212,cs),
(238,215,o),
(238,217,o),
(239,218,cs),
(241,222,o),
(245,225,o),
(249,225,cs),
(255,225,o),
(256,218,o),
(256,216,cs),
(256,212,o),
(253,209,o),
(246,209,cs)
);
},
{
closed = 1;
nodes = (
(129,36,ls),
(120,36,o),
(92,41,o),
(83,35,cs),
(78,31,o),
(80,261,o),
(80,379,cs),
(80,403,o),
(83,417,o),
(129,417,cs),
(146,417,o),
(138,416,o),
(155,416,cs),
(377,416,ls),
(385,416,o),
(394,417,o),
(403,416,c),
(406,415,o),
(409,412,o),
(409,407,cs),
(409,374,o),
(408,364,o),
(409,359,cs),
(411,348,o),
(424,329,o),
(417,320,cs),
(413,313,o),
(412,271,o),
(409,255,cs),
(408,246,o),
(417,174,o),
(417,43,cs),
(417,37,o),
(416,33,o),
(409,33,cs),
(399,33,o),
(388,32,o),
(378,32,cs)
);
}
);
width = 487;
}
);
unicode = 98;
},
{
glyphname = "beta-latin";
lastChange = "2024-02-03 03:52:31 +0000";
layers = (
{
layerId = m01;
shapes = (
{
ref = B;
},
{
closed = 1;
nodes = (
(26,-160,o),
(46,-176,o),
(42,-195,c),
(49,-199,o),
(53,-202,o),
(59,-196,cs),
(64,-191,o),
(61,-184,o),
(68,-166,c),
(68,-150,o),
(69,-84,o),
(66,-69,cs),
(65,-63,o),
(64,-53,o),
(67,-50,cs),
(71,-40,o),
(74,-33,o),
(71,-25,c),
(80,-15,o),
(75,-2,o),
(76,8,cs),
(77,19,o),
(71,25,o),
(70,35,c),
(40,11,l),
(42,-25,o),
(40,-30,o),
(41,-67,c),
(34,-77,o),
(32,-86,o),
(40,-97,c),
(35,-106,o),
(30,-116,o),
(40,-126,c)
);
}
);
width = 441;
}
);
unicode = 42933;
},
{
glyphname = bilabialclick;
lastChange = "2024-02-09 15:11:28 +0000";
layers = (
{
anchors = (
{
name = bottom;
pos = (238,2);
},
{
name = center;
pos = (238,350);
},
{
name = ogonek;
pos = (362,-3);
},
{
name = top;
pos = (248,700);
},
{
name = topleft;
pos = (72,698);
},
{
name = topright;
pos = (362,994);
}
);
layerId = m01;
shapes = (
{
closed = 1;
nodes = (
(414,-6,ls),
(422,-6,o),
(432,1,o),
(439,7,cs),
(442,9,o),
(442,17,o),
(442,22,cs),
(442,163,o),
(443,220,o),
(443,379,cs),
(443,389,o),
(444,400,o),
(450,409,c),
(452,411,o),
(443,420,o),
(445,423,c),
(447,429,o),
(451,434,o),
(451,442,cs),
(451,581,ls),
(451,587,o),
(450,592,o),
(446,597,cs),
(440,604,o),
(451,606,o),
(451,611,cs),
(451,646,ls),
(451,658,o),
(450,670,o),
(450,682,cs),
(450,688,o),
(442,695,o),
(436,698,cs),
(432,700,o),
(425,698,o),
(420,698,cs),
(78,698,ls),
(72,698,o),
(66,699,o),
(61,698,cs),
(55,698,o),
(45,686,o),
(45,679,cs),
(45,629,ls),
(45,619,o),
(46,609,o),
(45,600,c),
(34,592,o),
(45,586,o),
(45,578,cs),
(45,477,ls),
(45,472,o),
(38,465,o),
(40,463,cs),
(45,457,o),
(45,450,o),
(45,444,c),
(45,25,ls),
(45,12,o),
(54,3,o),
(66,3,c),
(160,3,o),
(171,4,o),
(179,0,cs),
(190,-7,o),
(195,3,o),
(205,3,cs),
(310,3,o),
(320,0,o),
(327,3,cs),
(337,6,o),
(343,-11,o),
(353,3,c),
(362,-3,o),
(372,-6,o),
(382,-6,cs)
);
},
{
closed = 1;
nodes = (
(274,305,o),
(284,334,o),
(284,345,cs),
(284,366,o),
(265,382,o),
(233,382,cs),
(217,384,o),
(206,377,o),
(196,364,cs),
(190,355,o),
(190,344,o),
(196,335,cs),
(209,322,o),
(225,305,o),
(244,305,cs)
);
},
{
closed = 1;
nodes = (
(179,36,o),
(170,37,o),
(161,37,cs),
(78,37,ls),
(73,37,o),
(68,45,o),
(72,49,cs),
(78,57,o),
(79,64,o),
(79,73,cs),
(79,120,ls),
(79,128,o),
(78,136,o),
(72,143,c),
(71,145,o),
(72,151,o),
(74,154,cs),
(83,167,o),
(83,180,o),
(76,194,cs),
(72,205,o),
(71,212,o),
(78,220,c),
(80,221,o),
(79,226,o),
(78,228,c),
(72,234,o),
(71,240,o),
(71,247,cs),
(71,269,o),
(70,279,o),
(78,287,c),
(79,289,o),
(78,296,o),
(76,298,cs),
(70,304,o),
(72,311,o),
(70,318,cs),
(68,328,o),
(84,337,o),
(71,347,c),
(71,647,l),
(72,654,o),
(82,663,o),
(89,663,cs),
(401,663,ls),
(417,663,o),
(417,663,o),
(417,646,cs),
(417,490,ls),
(417,481,o),
(417,474,o),
(412,466,cs),
(406,458,o),
(407,447,o),
(412,438,cs),
(415,432,o),
(416,429,o),
(412,424,cs),
(410,422,o),
(407,415,o),
(409,413,cs),
(415,405,o),
(419,399,o),
(412,390,cs),
(409,387,o),
(406,378,o),
(409,375,c),
(415,366,o),
(417,355,o),
(417,241,cs),
(417,233,o),
(415,225,o),
(409,219,cs),
(407,217,o),
(410,213,o),
(409,211,cs),
(406,202,o),
(421,194,o),
(409,186,c),
(409,51,l),
(409,44,o),
(408,37,o),
(404,30,c),
(389,30,o),
(374,29,o),
(358,29,cs),
(257,29,ls),
(248,29,o),
(238,27,o),
(229,34,cs),
(226,36,o),
(216,28,o),
(211,30,cs),
(205,32,o),
(200,38,o),
(194,30,c),
(192,29,o),
(187,28,o),
(186,29,cs)
);
}
);
width = 491;
}
);
unicode = 664;
},
{
glyphname = bstroke;
lastChange = "2023-11-11 15:19:03 +0000";
layers = (
{
layerId = m01;
shapes = (
{
ref = b;
},
{
closed = 1;
nodes = (
(-65,620,o),
(-51,593,o),
(37,591,cs),
(50,591,o),
(85,592,o),
(98,590,cs),
(124,587,o),
(110,595,o),
(183,590,cs),
(196,589,o),
(208,596,o),
(222,592,c),
(255,602,o),
(249,609,o),
(222,616,c),
(192,626,o),
(172,629,o),
(138,622,cs),
(129,620,o),
(77,621,o),
(64,621,cs),
(6,622,o),
(14,622,o),
(5,622,cs)
);
}
);
width = 487;
}
);
unicode = 384;
},
{
glyphname = c;
lastChange = "2024-02-10 08:51:30 +0000";
layers = (
{
anchors = (
{
name = bottom;
pos = (225,7);
},
{
name = top;
pos = (222,450);
}
);
layerId = m01;
shapes = (
{
closed = 1;
nodes = (
(71,-1,o),
(78,0,o),
(86,0,c),
(273,0,o),
(316,4,o),
(325,-3,cs),
(327,-5,o),
(341,-3,o),
(344,0,cs),
(361,14,o),
(398,-14,o),
(398,9,cs),
(398,13,o),
(397,17,o),
(395,24,cs),
(393,32,o),
(382,28,o),
(375,28,cs),
(299,28,o),
(283,28,o),
(207,28,cs),
(198,28,o),
(188,25,o),
(180,28,cs),
(162,37,o),
(146,42,o),
(131,29,c),
(117,39,o),
(108,40,o),
(95,29,cs),
(85,21,o),
(73,42,o),
(73,49,cs),
(73,70,o),
(74,84,o),
(80,92,cs),
(87,101,o),
(76,111,o),
(74,120,c),
(74,134,o),
(85,142,o),
(80,153,cs),
(76,161,o),
(69,176,o),
(77,186,cs),
(84,195,o),
(72,210,o),
(72,220,cs),
(72,254,o),
(73,278,o),
(73,313,cs),
(73,318,o),
(74,324,o),
(77,329,cs),
(81,334,o),
(77,336,o),
(76,340,cs),
(69,365,o),
(74,383,o),
(74,409,c),
(81,413,o),
(88,413,o),
(96,413,cs),
(160,413,ls),
(194,413,o),
(217,435,o),
(242,413,c),
(265,413,ls),
(300,413,o),
(290,438,o),
(319,418,cs),
(324,415,o),
(330,413,o),
(336,413,cs),
(378,413,ls),
(386,413,o),
(396,422,o),
(398,429,cs),
(400,437,o),
(388,449,o),
(378,449,cs),
(66,449,ls),
(52,449,o),
(51,444,o),
(42,436,c),
(39,432,o),
(39,423,o),
(40,422,cs),
(46,413,o),
(46,402,o),
(46,393,cs),
(45,303,o),
(44,234,o),
(44,183,cs),
(43,42,o),
(45,25,o),
(46,18,cs),
(46,11,o),
(57,0,o),
(63,0,cs)
);
},
{
closed = 1;
nodes = (
(265,202,o),
(268,219,o),
(268,229,cs),
(268,248,o),
(261,263,o),
(248,269,cs),
(238,275,o),
(218,257,o),
(213,248,cs),
(202,235,o),
(207,221,o),
(209,210,cs),
(212,200,o),
(249,201,o),
(257,202,cs)
);
},
{
closed = 1;
nodes = (
(241,226,o),
(230,225,o),
(229,228,cs),
(229,232,o),
(228,235,o),
(231,238,cs),
(232,241,o),
(238,247,o),
(241,245,cs),
(244,243,o),
(245,238,o),
(245,234,cs),
(245,231,o),
(245,226,o),
(242,226,cs)
);
}
);
width = 418;
}
);
unicode = 99;
},
